<svg width="40" height="40" viewBox="0 0 40 40" fill="none" xmlns="http://www.w3.org/2000/svg">
<rect x="0.5" y="0.5" width="39" height="39" rx="3.5" stroke="white"/>
<path d="M15.8894 11.127C14.4035 11.4551 13.2691 11.8207 11.8675 12.416C11.6378 12.5145 11.6003 12.5566 11.2769 13.0676C9.73002 15.5145 8.7269 18.0316 8.27221 20.6145C8.03784 21.9598 7.99565 22.5457 8.00034 24.2051C8.00502 25.0535 8.02377 25.8691 8.04721 26.0098L8.08471 26.2629L8.69409 26.6801C10.2175 27.716 11.8019 28.5129 13.4613 29.0801C13.8035 29.1973 14.1082 29.2816 14.1363 29.2723C14.2535 29.2254 15.4207 27.3645 15.4207 27.2238C15.4207 27.2051 15.2988 27.1441 15.1535 27.0879C14.7832 26.9426 13.5831 26.3473 13.5035 26.2676C13.4238 26.1879 13.4425 26.1598 13.6956 25.977L13.8972 25.8316L14.366 26.0332C16.841 27.0879 19.6675 27.4301 22.2878 26.9895C23.4925 26.7879 24.5894 26.4551 25.8785 25.902C26.0425 25.8316 26.0472 25.8316 26.2535 25.9957C26.366 26.0848 26.4597 26.1832 26.4597 26.2113C26.4597 26.277 25.48 26.7926 24.9597 26.9988C24.7535 27.0832 24.566 27.1676 24.5425 27.1863C24.4488 27.2707 25.6628 29.2863 25.8082 29.291C25.841 29.291 26.1128 29.2066 26.4175 29.0988C28.1472 28.5035 29.7082 27.7207 31.241 26.6801L31.8503 26.2629L31.8832 26.0098C31.8972 25.8691 31.9253 25.2645 31.9441 24.6738C32.0753 20.5395 31.0066 16.7707 28.6535 13.0629L28.3066 12.5191L27.6644 12.252C26.4785 11.7598 24.9316 11.291 23.7925 11.0801L23.3707 11.0004L23.291 11.1129C23.2441 11.1691 23.0941 11.4598 22.9582 11.7551L22.7097 12.2848L22.4753 12.2566C22.3488 12.2426 22.0394 12.2051 21.7957 12.1723C21.2144 12.0973 18.7722 12.0973 18.1628 12.1723C17.905 12.2004 17.591 12.2379 17.4597 12.2566L17.2253 12.2801L16.9207 11.6566C16.5644 10.9301 16.6253 10.9629 15.8894 11.127ZM16.8457 18.8566C17.4597 19.1566 17.905 19.7426 18.0738 20.4645C18.1675 20.8582 18.1394 21.5098 18.0082 21.8895C17.4691 23.502 15.7019 23.9895 14.5535 22.8457C13.8035 22.0957 13.6206 20.8816 14.1082 19.8832C14.3753 19.3441 14.8113 18.9504 15.3691 18.7582C15.6269 18.6645 15.7441 18.6504 16.091 18.6645C16.4472 18.6832 16.5503 18.7066 16.8457 18.8566ZM24.8238 18.8613C25.6253 19.2551 26.1082 20.0754 26.1082 21.041C26.1082 21.7441 25.8878 22.3254 25.4425 22.7988C24.2238 24.1066 22.255 23.4223 21.8613 21.5566C21.655 20.577 22.0816 19.4848 22.8738 18.9785C23.2582 18.7301 23.5816 18.6457 24.0597 18.6691C24.4207 18.6832 24.5191 18.7066 24.8238 18.8613Z" fill="white"/>
</svg>
