<svg width="455" height="235" viewBox="0 0 455 235" fill="none" xmlns="http://www.w3.org/2000/svg">
<path d="M51 143.5C52 144.833 54.6 147.5 57 147.5C58 146.833 60.2 145.9 61 147.5C62.5 151.167 65.7 156.3 66.5 147.5C67.6667 142.5 71 116.2 75 50.9999C76 45.8332 78.6 36.5999 81 40.9999C82 43.4999 84.2 47 85 40.9999C85.6667 30.6665 87.5 12.7998 89.5 23.9998C90.3333 40.9999 92.4 79.8999 94 99.4999C95.6667 105.667 99.1 120.3 99.5 129.5C100.333 146.833 102.8 178.4 106 166C106.833 163.833 109 160.8 111 166C111.5 166.833 112.8 168 114 166C114.833 164.167 117 161.6 119 166C120.167 169.333 122.6 174 123 166C124.667 124.667 129.1 40.5999 133.5 34.9999C135 30.4999 138.5 24.0999 140.5 34.4999C140.667 35.6666 141.3 37.3999 142.5 34.9999C143.333 33.9999 145.2 33.5999 146 39.9999C149.5 78.1666 157.4 155.3 161 158.5C163 163.333 167.1 170.1 167.5 158.5C168 155.333 169.6 150.9 172 158.5C172.5 158.5 177 176.5 179.5 158.5C182.167 115.667 187.9 29.4 189.5 26.9999C191.333 16.6666 195.1 3.09991 195.5 31.4999C196.167 45.3332 198 65.3998 200 34.9999C200.667 28.3332 202.3 18.9998 203.5 34.9999C204.833 62.9999 207.8 119.6 209 122C210.5 125 212.5 145 215.5 128.5C216.167 127.333 218 126.7 220 133.5C222 138 226.6 145.5 229 139.5C229.833 138 231.8 136.4 233 142C233.833 143.5 235.8 145.6 237 142C239 127.167 243.3 89.6 244.5 58C244.667 53 246.2 44.3 251 49.5C252.333 50.6667 255.1 52.3 255.5 49.5C256.333 27.8333 258.6 -2.5 261 49.5C263.167 74.5 267.6 124.9 268 126.5C268.833 130.667 271.1 136.9 273.5 128.5C274 127.167 275.2 125.6 276 130C277 132.5 279.4 136.4 281 132C281.833 130.5 284 128.9 286 134.5C287.333 137 290.6 140.5 293 134.5C296.333 112.667 302.7 63.9 301.5 43.5C301.833 36.6667 303.6 27.1 308 43.5C309.333 51.6667 312.3 65.6 313.5 56C313.833 53.6667 314.8 50.4 316 56C318.667 86.5 324.2 147.5 325 147.5C326.167 151.167 329.8 157.2 335 152C336 151.333 338.6 150.4 341 152C343.667 155.833 350.6 161.3 357 152.5C359 149 363.6 142.7 366 145.5C366.833 146.667 368.8 148.3 370 145.5C371 143.167 373.7 139.9 376.5 145.5C378.667 150 383.5 158.1 385.5 154.5C386 153.667 387.4 152.5 389 154.5C390 156.5 392.5 159.3 394.5 154.5C395.5 153.167 398.5 151.3 402.5 154.5C405.667 158 412.6 162.9 415 154.5C417 149.167 422.3 140.1 427.5 146.5C428.167 147.667 429.9 149.3 431.5 146.5C432.333 144.667 434.9 142.1 438.5 146.5C439.667 150.333 442.1 162.1 442.5 178.5C442.5 183.667 443.7 192.1 448.5 184.5" stroke="white"/>
<mask id="path-2-inside-1_12_682" fill="white">
<path d="M48 6H451V211H48V6Z"/>
</mask>
<path d="M48 211H47V212H48V211ZM451 210H48V212H451V210ZM49 211V6H47V211H49Z" fill="white" mask="url(#path-2-inside-1_12_682)"/>
<line x1="104.5" y1="217" x2="104.5" y2="211" stroke="white"/>
<path d="M161.5 217V210.5" stroke="white"/>
<line x1="218.5" y1="217" x2="218.5" y2="211" stroke="white"/>
<line x1="275.5" y1="217" x2="275.5" y2="211" stroke="white"/>
<line x1="332.5" y1="217" x2="332.5" y2="210" stroke="white"/>
<line x1="389.5" y1="217" x2="389.5" y2="210" stroke="white"/>
<line x1="450.5" y1="216" x2="450.5" y2="209" stroke="white"/>
<path d="M24.6996 10V9.20455L27.1605 6.65483C27.4233 6.37784 27.6399 6.13518 27.8104 5.92685C27.9832 5.71615 28.1122 5.5161 28.1974 5.3267C28.2827 5.13731 28.3253 4.93608 28.3253 4.72301C28.3253 4.48153 28.2685 4.2732 28.1548 4.09801C28.0412 3.92045 27.8861 3.78433 27.6896 3.68963C27.4931 3.59257 27.2718 3.54403 27.0256 3.54403C26.7652 3.54403 26.5379 3.5973 26.3438 3.70384C26.1496 3.81037 26.0005 3.9607 25.8963 4.15483C25.7921 4.34896 25.7401 4.57623 25.7401 4.83665H24.6925C24.6925 4.39394 24.7943 4.00687 24.9979 3.67543C25.2015 3.34399 25.4808 3.08712 25.8359 2.90483C26.1911 2.72017 26.5947 2.62784 27.0469 2.62784C27.5038 2.62784 27.9063 2.71899 28.2543 2.90128C28.6046 3.0812 28.8781 3.32741 29.0746 3.63991C29.2711 3.95005 29.3693 4.30043 29.3693 4.69105C29.3693 4.96094 29.3184 5.22491 29.2166 5.48295C29.1172 5.741 28.9432 6.02865 28.6946 6.34588C28.446 6.66075 28.1004 7.04309 27.6577 7.4929L26.2124 9.00568V9.05895H29.4865V10H24.6996ZM33.233 10.0994C32.7879 10.0994 32.3878 10.0142 32.0327 9.84375C31.6799 9.67093 31.3982 9.43419 31.1875 9.13352C30.9768 8.83286 30.8643 8.48958 30.8501 8.10369H31.9155C31.9415 8.41619 32.08 8.67306 32.331 8.87429C32.5819 9.07552 32.8826 9.17614 33.233 9.17614C33.5123 9.17614 33.7597 9.11222 33.9751 8.98438C34.1929 8.85417 34.3634 8.67543 34.4865 8.44815C34.612 8.22088 34.6747 7.96165 34.6747 7.67045C34.6747 7.37453 34.6108 7.11056 34.483 6.87855C34.3551 6.64654 34.1787 6.46425 33.9538 6.33168C33.7313 6.1991 33.4756 6.13163 33.1868 6.12926C32.9666 6.12926 32.7453 6.16714 32.5227 6.2429C32.3002 6.31866 32.1203 6.41809 31.983 6.54119L30.978 6.39205L31.3864 2.72727L35.3849 2.72727V3.66832L32.299 3.66832L32.0682 5.70313H32.1108C32.2528 5.56581 32.4411 5.45099 32.6754 5.35866C32.9122 5.26634 33.1655 5.22017 33.4354 5.22017C33.8781 5.22017 34.2723 5.32552 34.6179 5.53622C34.9659 5.74692 35.2393 6.03456 35.4382 6.39915C35.6394 6.76136 35.7389 7.17803 35.7365 7.64915C35.7389 8.12027 35.6323 8.54048 35.4169 8.9098C35.2038 9.27912 34.9079 9.57031 34.5291 9.78338C34.1527 9.99408 33.7206 10.0994 33.233 10.0994ZM39.5655 10.1207C39.0044 10.1184 38.525 9.97041 38.1273 9.67685C37.7296 9.38329 37.4254 8.95597 37.2147 8.39489C37.004 7.83381 36.8986 7.15791 36.8986 6.36719C36.8986 5.57884 37.004 4.9053 37.2147 4.34659C37.4277 3.78788 37.7331 3.36174 38.1309 3.06818C38.531 2.77462 39.0092 2.62784 39.5655 2.62784C40.1219 2.62784 40.5989 2.7758 40.9966 3.07173C41.3944 3.36529 41.6986 3.79143 41.9093 4.35014C42.1223 4.90649 42.2289 5.57884 42.2289 6.36719C42.2289 7.16027 42.1235 7.83736 41.9128 8.39844C41.7021 8.95715 41.3979 9.38447 41.0002 9.6804C40.6025 9.97396 40.1242 10.1207 39.5655 10.1207ZM39.5655 9.17259C40.0579 9.17259 40.4426 8.93229 40.7196 8.4517C40.999 7.97112 41.1387 7.27628 41.1387 6.36719C41.1387 5.76349 41.0748 5.25331 40.9469 4.83665C40.8214 4.41761 40.6403 4.10038 40.4036 3.88494C40.1692 3.66714 39.8899 3.55824 39.5655 3.55824C39.0755 3.55824 38.6908 3.79972 38.4114 4.28267C38.132 4.76562 37.9912 5.46046 37.9888 6.36719C37.9888 6.97325 38.0516 7.4858 38.177 7.90483C38.3049 8.3215 38.486 8.63755 38.7203 8.85298C38.9547 9.06605 39.2364 9.17259 39.5655 9.17259Z" fill="white"/>
<path d="M24.6996 61V60.2045L27.1605 57.6548C27.4233 57.3778 27.6399 57.1352 27.8104 56.9268C27.9832 56.7161 28.1122 56.5161 28.1974 56.3267C28.2827 56.1373 28.3253 55.9361 28.3253 55.723C28.3253 55.4815 28.2685 55.2732 28.1548 55.098C28.0412 54.9205 27.8861 54.7843 27.6896 54.6896C27.4931 54.5926 27.2718 54.544 27.0256 54.544C26.7652 54.544 26.5379 54.5973 26.3438 54.7038C26.1496 54.8104 26.0005 54.9607 25.8963 55.1548C25.7921 55.349 25.7401 55.5762 25.7401 55.8366H24.6925C24.6925 55.3939 24.7943 55.0069 24.9979 54.6754C25.2015 54.344 25.4808 54.0871 25.8359 53.9048C26.1911 53.7202 26.5947 53.6278 27.0469 53.6278C27.5038 53.6278 27.9063 53.719 28.2543 53.9013C28.6046 54.0812 28.8781 54.3274 29.0746 54.6399C29.2711 54.95 29.3693 55.3004 29.3693 55.6911C29.3693 55.9609 29.3184 56.2249 29.2166 56.483C29.1172 56.741 28.9432 57.0286 28.6946 57.3459C28.446 57.6607 28.1004 58.0431 27.6577 58.4929L26.2124 60.0057V60.0589H29.4865V61H24.6996ZM33.3643 61.1207C32.8033 61.1184 32.3239 60.9704 31.9261 60.6768C31.5284 60.3833 31.2242 59.956 31.0135 59.3949C30.8028 58.8338 30.6974 58.1579 30.6974 57.3672C30.6974 56.5788 30.8028 55.9053 31.0135 55.3466C31.2266 54.7879 31.532 54.3617 31.9297 54.0682C32.3298 53.7746 32.808 53.6278 33.3643 53.6278C33.9207 53.6278 34.3977 53.7758 34.7955 54.0717C35.1932 54.3653 35.4974 54.7914 35.7081 55.3501C35.9212 55.9065 36.0277 56.5788 36.0277 57.3672C36.0277 58.1603 35.9223 58.8374 35.7116 59.3984C35.5009 59.9571 35.1967 60.3845 34.799 60.6804C34.4013 60.974 33.9231 61.1207 33.3643 61.1207ZM33.3643 60.1726C33.8568 60.1726 34.2415 59.9323 34.5185 59.4517C34.7978 58.9711 34.9375 58.2763 34.9375 57.3672C34.9375 56.7635 34.8736 56.2533 34.7457 55.8366C34.6203 55.4176 34.4392 55.1004 34.2024 54.8849C33.968 54.6671 33.6887 54.5582 33.3643 54.5582C32.8743 54.5582 32.4896 54.7997 32.2102 55.2827C31.9309 55.7656 31.79 56.4605 31.7876 57.3672C31.7876 57.9732 31.8504 58.4858 31.9759 58.9048C32.1037 59.3215 32.2848 59.6375 32.5192 59.853C32.7536 60.0661 33.0353 60.1726 33.3643 60.1726ZM39.8194 61.1207C39.2583 61.1184 38.7789 60.9704 38.3812 60.6768C37.9835 60.3833 37.6793 59.956 37.4686 59.3949C37.2579 58.8338 37.1525 58.1579 37.1525 57.3672C37.1525 56.5788 37.2579 55.9053 37.4686 55.3466C37.6816 54.7879 37.987 54.3617 38.3848 54.0682C38.7849 53.7746 39.2631 53.6278 39.8194 53.6278C40.3758 53.6278 40.8528 53.7758 41.2505 54.0717C41.6483 54.3653 41.9525 54.7914 42.1632 55.3501C42.3762 55.9065 42.4828 56.5788 42.4828 57.3672C42.4828 58.1603 42.3774 58.8374 42.1667 59.3984C41.956 59.9571 41.6518 60.3845 41.2541 60.6804C40.8564 60.974 40.3781 61.1207 39.8194 61.1207ZM39.8194 60.1726C40.3118 60.1726 40.6966 59.9323 40.9735 59.4517C41.2529 58.9711 41.3926 58.2763 41.3926 57.3672C41.3926 56.7635 41.3287 56.2533 41.2008 55.8366C41.0753 55.4176 40.8942 55.1004 40.6575 54.8849C40.4231 54.6671 40.1438 54.5582 39.8194 54.5582C39.3294 54.5582 38.9447 54.7997 38.6653 55.2827C38.3859 55.7656 38.2451 56.4605 38.2427 57.3672C38.2427 57.9732 38.3055 58.4858 38.4309 58.9048C38.5588 59.3215 38.7399 59.6375 38.9743 59.853C39.2086 60.0661 39.4904 60.1726 39.8194 60.1726Z" fill="white"/>
<path d="M27.4588 104.727V112H26.358V105.828H26.3153L24.5753 106.964V105.913L26.3899 104.727H27.4588ZM31.8267 112.099C31.3816 112.099 30.9815 112.014 30.6264 111.844C30.2737 111.671 29.992 111.434 29.7812 111.134C29.5705 110.833 29.4581 110.49 29.4439 110.104H30.5092C30.5353 110.416 30.6738 110.673 30.9247 110.874C31.1757 111.076 31.4763 111.176 31.8267 111.176C32.1061 111.176 32.3535 111.112 32.5689 110.984C32.7867 110.854 32.9571 110.675 33.0803 110.448C33.2057 110.221 33.2685 109.962 33.2685 109.67C33.2685 109.375 33.2045 109.111 33.0767 108.879C32.9489 108.647 32.7725 108.464 32.5476 108.332C32.325 108.199 32.0694 108.132 31.7805 108.129C31.5604 108.129 31.339 108.167 31.1165 108.243C30.8939 108.319 30.714 108.418 30.5767 108.541L29.5717 108.392L29.9801 104.727H33.9787V105.668H30.8928L30.6619 107.703H30.7045C30.8466 107.566 31.0348 107.451 31.2692 107.359C31.5059 107.266 31.7592 107.22 32.0291 107.22C32.4718 107.22 32.866 107.326 33.2116 107.536C33.5597 107.747 33.8331 108.035 34.032 108.399C34.2332 108.761 34.3326 109.178 34.3303 109.649C34.3326 110.12 34.2261 110.54 34.0107 110.91C33.7976 111.279 33.5017 111.57 33.1229 111.783C32.7464 111.994 32.3144 112.099 31.8267 112.099ZM38.1593 112.121C37.5982 112.118 37.1188 111.97 36.7211 111.677C36.3233 111.383 36.0191 110.956 35.8084 110.395C35.5977 109.834 35.4924 109.158 35.4924 108.367C35.4924 107.579 35.5977 106.905 35.8084 106.347C36.0215 105.788 36.3269 105.362 36.7246 105.068C37.1247 104.775 37.6029 104.628 38.1593 104.628C38.7156 104.628 39.1926 104.776 39.5904 105.072C39.9881 105.365 40.2923 105.791 40.503 106.35C40.7161 106.906 40.8226 107.579 40.8226 108.367C40.8226 109.16 40.7173 109.837 40.5066 110.398C40.2959 110.957 39.9917 111.384 39.5939 111.68C39.1962 111.974 38.718 112.121 38.1593 112.121ZM38.1593 111.173C38.6517 111.173 39.0364 110.932 39.3134 110.452C39.5927 109.971 39.7324 109.276 39.7324 108.367C39.7324 107.763 39.6685 107.253 39.5407 106.837C39.4152 106.418 39.2341 106.1 38.9973 105.885C38.763 105.667 38.4836 105.558 38.1593 105.558C37.6692 105.558 37.2845 105.8 37.0051 106.283C36.7258 106.766 36.5849 107.46 36.5826 108.367C36.5826 108.973 36.6453 109.486 36.7708 109.905C36.8986 110.321 37.0797 110.638 37.3141 110.853C37.5485 111.066 37.8302 111.173 38.1593 111.173Z" fill="white"/>
<path d="M27.4588 155.727V163H26.358V156.828H26.3153L24.5753 157.964V156.913L26.3899 155.727H27.4588ZM31.9581 163.121C31.397 163.118 30.9176 162.97 30.5199 162.677C30.1222 162.383 29.8179 161.956 29.6072 161.395C29.3965 160.834 29.2912 160.158 29.2912 159.367C29.2912 158.579 29.3965 157.905 29.6072 157.347C29.8203 156.788 30.1257 156.362 30.5234 156.068C30.9235 155.775 31.4018 155.628 31.9581 155.628C32.5144 155.628 32.9915 155.776 33.3892 156.072C33.7869 156.365 34.0911 156.791 34.3018 157.35C34.5149 157.906 34.6214 158.579 34.6214 159.367C34.6214 160.16 34.5161 160.837 34.3054 161.398C34.0947 161.957 33.7905 162.384 33.3928 162.68C32.995 162.974 32.5168 163.121 31.9581 163.121ZM31.9581 162.173C32.4505 162.173 32.8352 161.932 33.1122 161.452C33.3916 160.971 33.5312 160.276 33.5312 159.367C33.5312 158.763 33.4673 158.253 33.3395 157.837C33.214 157.418 33.0329 157.1 32.7962 156.885C32.5618 156.667 32.2824 156.558 31.9581 156.558C31.468 156.558 31.0833 156.8 30.804 157.283C30.5246 157.766 30.3838 158.46 30.3814 159.367C30.3814 159.973 30.4441 160.486 30.5696 160.905C30.6974 161.321 30.8786 161.638 31.1129 161.853C31.3473 162.066 31.629 162.173 31.9581 162.173ZM38.4132 163.121C37.8521 163.118 37.3727 162.97 36.975 162.677C36.5772 162.383 36.273 161.956 36.0623 161.395C35.8516 160.834 35.7463 160.158 35.7463 159.367C35.7463 158.579 35.8516 157.905 36.0623 157.347C36.2754 156.788 36.5808 156.362 36.9785 156.068C37.3786 155.775 37.8568 155.628 38.4132 155.628C38.9695 155.628 39.4466 155.776 39.8443 156.072C40.242 156.365 40.5462 156.791 40.7569 157.35C40.97 157.906 41.0765 158.579 41.0765 159.367C41.0765 160.16 40.9712 160.837 40.7605 161.398C40.5498 161.957 40.2456 162.384 39.8478 162.68C39.4501 162.974 38.9719 163.121 38.4132 163.121ZM38.4132 162.173C38.9056 162.173 39.2903 161.932 39.5673 161.452C39.8467 160.971 39.9863 160.276 39.9863 159.367C39.9863 158.763 39.9224 158.253 39.7946 157.837C39.6691 157.418 39.488 157.1 39.2512 156.885C39.0169 156.667 38.7375 156.558 38.4132 156.558C37.9231 156.558 37.5384 156.8 37.2591 157.283C36.9797 157.766 36.8388 158.46 36.8365 159.367C36.8365 159.973 36.8992 160.486 37.0247 160.905C37.1525 161.321 37.3336 161.638 37.568 161.853C37.8024 162.066 38.0841 162.173 38.4132 162.173Z" fill="white"/>
<path d="M27.1001 214.099C26.6551 214.099 26.255 214.014 25.8999 213.844C25.5471 213.671 25.2654 213.434 25.0547 213.134C24.844 212.833 24.7315 212.49 24.7173 212.104H25.7827C25.8087 212.416 25.9472 212.673 26.1982 212.874C26.4491 213.076 26.7498 213.176 27.1001 213.176C27.3795 213.176 27.6269 213.112 27.8423 212.984C28.0601 212.854 28.2306 212.675 28.3537 212.448C28.4792 212.221 28.5419 211.962 28.5419 211.67C28.5419 211.375 28.478 211.111 28.3501 210.879C28.2223 210.647 28.0459 210.464 27.821 210.332C27.5985 210.199 27.3428 210.132 27.054 210.129C26.8338 210.129 26.6125 210.167 26.3899 210.243C26.1674 210.319 25.9875 210.418 25.8501 210.541L24.8452 210.392L25.2536 206.727H29.2521V207.668H26.1662L25.9354 209.703H25.978C26.12 209.566 26.3082 209.451 26.5426 209.359C26.7794 209.266 27.0327 209.22 27.3026 209.22C27.7453 209.22 28.1394 209.326 28.4851 209.536C28.8331 209.747 29.1065 210.035 29.3054 210.399C29.5066 210.761 29.6061 211.178 29.6037 211.649C29.6061 212.12 29.4995 212.54 29.2841 212.91C29.071 213.279 28.7751 213.57 28.3963 213.783C28.0199 213.994 27.5878 214.099 27.1001 214.099ZM33.4327 214.121C32.8716 214.118 32.3922 213.97 31.9945 213.677C31.5968 213.383 31.2926 212.956 31.0819 212.395C30.8712 211.834 30.7658 211.158 30.7658 210.367C30.7658 209.579 30.8712 208.905 31.0819 208.347C31.2949 207.788 31.6003 207.362 31.998 207.068C32.3981 206.775 32.8764 206.628 33.4327 206.628C33.9891 206.628 34.4661 206.776 34.8638 207.072C35.2615 207.365 35.5658 207.791 35.7765 208.35C35.9895 208.906 36.0961 209.579 36.0961 210.367C36.0961 211.16 35.9907 211.837 35.78 212.398C35.5693 212.957 35.2651 213.384 34.8674 213.68C34.4696 213.974 33.9914 214.121 33.4327 214.121ZM33.4327 213.173C33.9251 213.173 34.3098 212.932 34.5868 212.452C34.8662 211.971 35.0059 211.276 35.0059 210.367C35.0059 209.763 34.9419 209.253 34.8141 208.837C34.6886 208.418 34.5075 208.1 34.2708 207.885C34.0364 207.667 33.757 207.558 33.4327 207.558C32.9426 207.558 32.5579 207.8 32.2786 208.283C31.9992 208.766 31.8584 209.46 31.856 210.367C31.856 210.973 31.9187 211.486 32.0442 211.905C32.1721 212.321 32.3532 212.638 32.5875 212.853C32.8219 213.066 33.1036 213.173 33.4327 213.173Z" fill="white"/>
<path d="M14 197.881L3.81818 197.881L3.81818 191.498L5.14062 191.498L5.14062 196.345L8.2429 196.345L8.2429 191.831L9.56037 191.831L9.56037 196.345L12.6776 196.345L12.6776 191.438L14 191.438L14 197.881ZM9.46591 188.079L14 188.079L14 189.565L6.36364 189.565L6.36364 188.138L7.60653 188.138L7.60653 188.044C7.20218 187.868 6.87737 187.593 6.6321 187.219C6.38684 186.841 6.2642 186.365 6.2642 185.792C6.2642 185.271 6.37358 184.816 6.59233 184.425C6.80776 184.033 7.12926 183.73 7.55682 183.515C7.98437 183.299 8.51302 183.192 9.14275 183.192L14 183.192L14 184.678L9.32173 184.678C8.76823 184.678 8.3357 184.822 8.02415 185.111C7.70928 185.399 7.55185 185.795 7.55185 186.299C7.55185 186.644 7.62642 186.95 7.77557 187.219C7.92472 187.484 8.14347 187.694 8.43182 187.85C8.71686 188.002 9.06155 188.079 9.46591 188.079ZM14.1541 177.907C14.1541 178.659 13.9934 179.307 13.6719 179.851C13.3471 180.391 12.8913 180.809 12.3047 181.104C11.7147 181.395 11.0237 181.541 10.2315 181.541C9.44934 181.541 8.75994 181.395 8.16335 181.104C7.56676 180.809 7.10109 180.398 6.76633 179.871C6.43158 179.34 6.2642 178.72 6.2642 178.011C6.2642 177.58 6.33546 177.163 6.47798 176.758C6.6205 176.354 6.84422 175.991 7.14915 175.67C7.45407 175.348 7.85014 175.095 8.33736 174.909C8.82126 174.723 9.40956 174.631 10.1023 174.631L10.6293 174.631L10.6293 180.701L9.51562 180.701L9.51562 176.087C9.12453 176.087 8.77817 176.167 8.47656 176.326C8.17164 176.485 7.93134 176.709 7.75568 176.997C7.58002 177.282 7.49219 177.617 7.49219 178.001C7.49219 178.419 7.59493 178.783 7.80043 179.095C8.0026 179.403 8.26775 179.642 8.59588 179.811C8.92069 179.977 9.27367 180.059 9.65483 180.059L10.5249 180.059C11.0353 180.059 11.4695 179.97 11.8274 179.791C12.1854 179.609 12.4588 179.355 12.6477 179.03C12.8333 178.706 12.9261 178.326 12.9261 177.892C12.9261 177.61 12.8864 177.353 12.8068 177.121C12.724 176.889 12.6013 176.689 12.4389 176.52C12.2765 176.351 12.076 176.221 11.8374 176.132L12.0909 174.725C12.5052 174.838 12.8681 175.04 13.1797 175.331C13.4879 175.62 13.7282 175.983 13.9006 176.42C14.0696 176.854 14.1541 177.35 14.1541 177.907ZM14 172.981L6.36363 172.981L6.36363 171.544L7.5767 171.544L7.5767 171.465C7.16572 171.326 6.84256 171.08 6.60724 170.729C6.36861 170.374 6.24929 169.973 6.24929 169.526C6.24929 169.433 6.2526 169.324 6.25923 169.198C6.26586 169.069 6.27415 168.967 6.28409 168.895L7.70596 168.895C7.68939 168.954 7.67116 169.06 7.65128 169.213C7.62808 169.365 7.61648 169.518 7.61648 169.67C7.61648 170.021 7.69105 170.335 7.8402 170.61C7.98603 170.882 8.18987 171.097 8.4517 171.256C8.71023 171.415 9.00521 171.495 9.33665 171.495L14 171.495L14 172.981ZM17.0227 164.68C17.0227 165.286 16.9432 165.808 16.7841 166.246C16.625 166.68 16.4145 167.035 16.1527 167.31C15.8909 167.585 15.6042 167.79 15.2926 167.926L14.7656 166.649C14.9115 166.559 15.0656 166.44 15.228 166.291C15.3937 166.138 15.5346 165.933 15.6506 165.674C15.7666 165.412 15.8246 165.076 15.8246 164.665C15.8246 164.102 15.687 163.636 15.4119 163.268C15.1401 162.9 14.706 162.716 14.1094 162.716L12.608 162.716L12.608 162.811C12.7704 162.9 12.951 163.029 13.1499 163.198C13.3487 163.364 13.5211 163.593 13.6669 163.884C13.8127 164.176 13.8857 164.556 13.8857 165.023C13.8857 165.626 13.7448 166.17 13.4631 166.654C13.178 167.134 12.7588 167.515 12.2053 167.797C11.6484 168.075 10.964 168.215 10.152 168.215C9.33996 168.215 8.64394 168.077 8.06392 167.802C7.4839 167.524 7.03977 167.142 6.73153 166.659C6.41998 166.175 6.2642 165.626 6.2642 165.013C6.2642 164.539 6.34375 164.156 6.50284 163.865C6.65862 163.573 6.84091 163.346 7.04971 163.183C7.25852 163.018 7.44247 162.89 7.60156 162.801L7.60156 162.691L6.36363 162.691L6.36363 161.235L14.169 161.235C14.8253 161.235 15.3639 161.387 15.7848 161.692C16.2057 161.997 16.5173 162.41 16.7195 162.93C16.9216 163.447 17.0227 164.03 17.0227 164.68ZM12.6527 164.695C12.6527 164.267 12.5533 163.906 12.3544 163.611C12.1522 163.313 11.8639 163.087 11.4893 162.935C11.1115 162.779 10.6591 162.701 10.1321 162.701C9.61837 162.701 9.16595 162.777 8.77486 162.93C8.38376 163.082 8.07883 163.306 7.86008 163.601C7.63802 163.896 7.52699 164.261 7.52699 164.695C7.52699 165.142 7.64299 165.515 7.875 165.813C8.10369 166.112 8.41524 166.337 8.80966 166.49C9.20407 166.639 9.64488 166.713 10.1321 166.713C10.6326 166.713 11.0717 166.637 11.4496 166.485C11.8274 166.332 12.1224 166.107 12.3345 165.808C12.5466 165.507 12.6527 165.136 12.6527 164.695ZM16.8636 158.301C16.8636 158.523 16.8454 158.726 16.8089 158.908C16.7758 159.09 16.7393 159.226 16.6996 159.316L15.4815 158.958C15.5544 158.686 15.5859 158.444 15.576 158.232C15.566 158.02 15.4865 157.832 15.3374 157.67C15.1882 157.504 14.9446 157.358 14.6065 157.232L14.0994 157.048L6.36363 159.843L6.36363 158.252L12.2898 156.318L12.2898 156.238L6.36363 154.304L6.36363 152.708L15.0192 155.855C15.4169 156.001 15.7533 156.187 16.0284 156.412C16.3068 156.637 16.5156 156.906 16.6548 157.218C16.794 157.529 16.8636 157.89 16.8636 158.301ZM7.12926 139.03L7.12926 140.581C6.79782 140.641 6.50615 140.752 6.25426 140.914C6.00236 141.077 5.78859 141.276 5.61292 141.511C5.43726 141.746 5.30468 142.01 5.2152 142.301C5.12571 142.59 5.08096 142.896 5.08096 143.221C5.08096 143.808 5.22845 144.333 5.52344 144.797C5.81842 145.258 6.25094 145.623 6.82102 145.891C7.3911 146.156 8.08712 146.289 8.90909 146.289C9.73769 146.289 10.437 146.156 11.0071 145.891C11.5772 145.623 12.008 145.256 12.2997 144.792C12.5914 144.328 12.7372 143.806 12.7372 143.226C12.7372 142.905 12.6941 142.6 12.608 142.311C12.5185 142.02 12.3875 141.756 12.2152 141.521C12.0428 141.286 11.8324 141.087 11.5838 140.924C11.3319 140.759 11.0436 140.644 10.7187 140.581L10.7237 139.03C11.2242 139.113 11.6849 139.274 12.1058 139.512C12.5234 139.748 12.8847 140.051 13.1896 140.422C13.4912 140.79 13.7249 141.211 13.8906 141.685C14.0563 142.159 14.1392 142.676 14.1392 143.236C14.1392 144.118 13.9304 144.903 13.5128 145.593C13.0919 146.282 12.4903 146.826 11.7081 147.223C10.9259 147.618 9.9929 147.815 8.90909 147.815C7.82197 147.815 6.88897 147.616 6.11008 147.218C5.32789 146.821 4.72798 146.277 4.31037 145.588C3.88944 144.898 3.67897 144.114 3.67897 143.236C3.67897 142.696 3.75686 142.192 3.91264 141.725C4.0651 141.254 4.29048 140.832 4.58878 140.457C4.88376 140.083 5.24503 139.773 5.67258 139.527C6.09682 139.282 6.58238 139.116 7.12926 139.03ZM14.1541 134.095C14.1541 134.811 13.9901 135.435 13.6619 135.969C13.3338 136.503 12.8748 136.917 12.2848 137.212C11.6948 137.507 11.0054 137.654 10.2166 137.654C9.42448 137.654 8.73177 137.507 8.13849 137.212C7.54521 136.917 7.08451 136.503 6.75639 135.969C6.42826 135.435 6.2642 134.811 6.2642 134.095C6.2642 133.379 6.42826 132.754 6.75639 132.22C7.08451 131.687 7.54521 131.272 8.13849 130.977C8.73177 130.682 9.42448 130.535 10.2166 130.535C11.0054 130.535 11.6948 130.682 12.2848 130.977C12.8748 131.272 13.3338 131.687 13.6619 132.22C13.9901 132.754 14.1541 133.379 14.1541 134.095ZM12.9062 134.09C12.9062 133.626 12.7836 133.241 12.5383 132.936C12.2931 132.631 11.9666 132.406 11.5589 132.26C11.1513 132.111 10.7022 132.036 10.2116 132.036C9.72443 132.036 9.27699 132.111 8.86932 132.26C8.45833 132.406 8.12855 132.631 7.87997 132.936C7.63139 133.241 7.5071 133.626 7.5071 134.09C7.5071 134.557 7.63139 134.945 7.87997 135.253C8.12855 135.558 8.45833 135.785 8.86932 135.934C9.27699 136.08 9.72443 136.153 10.2116 136.153C10.7022 136.153 11.1513 136.08 11.5589 135.934C11.9666 135.785 12.2931 135.558 12.5383 135.253C12.7836 134.945 12.9062 134.557 12.9062 134.09ZM9.46591 127.389L14 127.389L14 128.876L6.36363 128.876L6.36363 127.449L7.60653 127.449L7.60653 127.354C7.20217 127.179 6.87736 126.904 6.6321 126.529C6.38683 126.151 6.2642 125.676 6.2642 125.102C6.2642 124.582 6.37358 124.126 6.59233 123.735C6.80776 123.344 7.12926 123.041 7.55681 122.825C7.98437 122.61 8.51302 122.502 9.14275 122.502L14 122.502L14 123.989L9.32173 123.989C8.76823 123.989 8.3357 124.133 8.02414 124.421C7.70928 124.71 7.55184 125.106 7.55184 125.609C7.55184 125.954 7.62642 126.261 7.77556 126.529C7.92471 126.794 8.14346 127.005 8.43181 127.161C8.71685 127.313 9.06155 127.389 9.46591 127.389ZM8.22798 114.786L8.46662 116.134C8.29427 116.19 8.1302 116.279 7.97443 116.402C7.81865 116.521 7.69105 116.684 7.59162 116.889C7.49218 117.095 7.44247 117.352 7.44247 117.66C7.44247 118.081 7.53693 118.432 7.72585 118.714C7.91145 118.996 8.15175 119.136 8.44673 119.136C8.70194 119.136 8.90743 119.042 9.06321 118.853C9.21898 118.664 9.34659 118.359 9.44602 117.938L9.72443 116.725C9.88683 116.022 10.1371 115.499 10.4751 115.154C10.8132 114.809 11.2524 114.637 11.7926 114.637C12.25 114.637 12.6577 114.77 13.0156 115.035C13.3703 115.297 13.6487 115.663 13.8508 116.134C14.053 116.601 14.1541 117.143 14.1541 117.759C14.1541 118.614 13.9718 119.312 13.6072 119.852C13.2393 120.393 12.7173 120.724 12.0412 120.847L11.8224 119.41C12.197 119.32 12.4803 119.136 12.6726 118.858C12.8615 118.58 12.956 118.217 12.956 117.769C12.956 117.282 12.8549 116.893 12.6527 116.601C12.4472 116.309 12.197 116.163 11.902 116.163C11.6633 116.163 11.4628 116.253 11.3004 116.432C11.138 116.607 11.0154 116.878 10.9325 117.242L10.6491 118.535C10.4867 119.247 10.2282 119.774 9.87358 120.116C9.51894 120.454 9.06984 120.623 8.52627 120.623C8.07552 120.623 7.6811 120.497 7.34304 120.245C7.00497 119.993 6.74147 119.645 6.55255 119.201C6.36032 118.757 6.2642 118.248 6.2642 117.675C6.2642 116.849 6.44318 116.2 6.80113 115.726C7.15577 115.252 7.63139 114.939 8.22798 114.786ZM10.8331 108.165L6.36363 108.165L6.36363 106.674L14 106.674L14 108.135L12.6776 108.135L12.6776 108.215C13.0852 108.391 13.4249 108.672 13.6967 109.06C13.9652 109.445 14.0994 109.924 14.0994 110.497C14.0994 110.988 13.9917 111.422 13.7763 111.8C13.5575 112.174 13.2344 112.469 12.8068 112.684C12.3793 112.897 11.8506 113.003 11.2209 113.003L6.36363 113.003L6.36363 111.516L11.0419 111.516C11.5623 111.516 11.9766 111.372 12.2848 111.084C12.593 110.795 12.7472 110.421 12.7472 109.96C12.7472 109.682 12.6776 109.405 12.5383 109.13C12.3991 108.851 12.1887 108.621 11.907 108.439C11.6252 108.253 11.2673 108.162 10.8331 108.165ZM14 104.676L6.36363 104.676L6.36363 103.25L7.60653 103.25L7.60653 103.155C7.1856 102.996 6.85748 102.736 6.62216 102.375C6.38352 102.013 6.2642 101.581 6.2642 101.077C6.2642 100.567 6.38352 100.139 6.62215 99.7944C6.86079 99.4464 7.18892 99.1895 7.60653 99.0238L7.60653 98.9442C7.19886 98.762 6.87405 98.4719 6.6321 98.0742C6.38683 97.6765 6.2642 97.2025 6.2642 96.6523C6.2642 95.9596 6.48129 95.3945 6.91548 94.957C7.34966 94.5162 8.00426 94.2958 8.87926 94.2958L14 94.2958L14 95.7823L9.01846 95.7823C8.50142 95.7823 8.12689 95.9232 7.89488 96.2049C7.66287 96.4866 7.54687 96.823 7.54687 97.2141C7.54687 97.698 7.69602 98.0742 7.99431 98.3427C8.28929 98.6111 8.66879 98.7454 9.13281 98.7454L14 98.7454L14 100.227L8.924 100.227C8.5097 100.227 8.17661 100.356 7.92471 100.615C7.67282 100.873 7.54687 101.21 7.54687 101.624C7.54687 101.906 7.62144 102.166 7.77059 102.404C7.91643 102.64 8.12026 102.83 8.3821 102.976C8.64394 103.119 8.9472 103.19 9.2919 103.19L14 103.19L14 104.676ZM16.8636 92.3034L6.36363 92.3034L6.36363 90.8517L7.60156 90.8517L7.60156 90.7274C7.44247 90.6413 7.25852 90.517 7.04971 90.3546C6.8409 90.1922 6.65861 89.9668 6.50284 89.6784C6.34375 89.3901 6.2642 89.0089 6.2642 88.535C6.2642 87.9185 6.41998 87.3683 6.73153 86.8844C7.04308 86.4005 7.49218 86.021 8.07883 85.7459C8.66548 85.4675 9.37144 85.3283 10.1967 85.3283C11.022 85.3283 11.7296 85.4658 12.3196 85.7409C12.9062 86.016 13.3587 86.3939 13.6768 86.8745C13.9917 87.3551 14.1491 87.9036 14.1491 88.5201C14.1491 88.9841 14.0713 89.3636 13.9155 89.6586C13.7597 89.9502 13.5774 90.1789 13.3686 90.3446C13.1598 90.5104 12.9742 90.638 12.8118 90.7274L12.8118 90.8169L16.8636 90.8169L16.8636 92.3034ZM10.1818 90.8468C10.7187 90.8468 11.1894 90.7689 11.5937 90.6131C11.9981 90.4573 12.3146 90.2319 12.5433 89.937C12.7687 89.642 12.8814 89.2807 12.8814 88.8532C12.8814 88.409 12.7637 88.0378 12.5284 87.7395C12.2898 87.4412 11.9666 87.2158 11.5589 87.0634C11.1513 86.9076 10.6922 86.8297 10.1818 86.8297C9.67803 86.8297 9.22561 86.906 8.82457 87.0584C8.42353 87.2076 8.107 87.4329 7.875 87.7346C7.64299 88.0328 7.52698 88.4057 7.52698 88.8532C7.52698 89.284 7.63802 89.6486 7.86008 89.9469C8.08214 90.2419 8.39204 90.4656 8.78977 90.6181C9.1875 90.7705 9.65151 90.8468 10.1818 90.8468ZM6.36363 80.0982L7.55681 80.0982L7.55681 84.2694L6.36363 84.2694L6.36363 80.0982ZM4.53409 83.1507L4.53409 81.6642L11.7578 81.6642C12.0462 81.6642 12.2633 81.6212 12.4091 81.535C12.5516 81.4488 12.6494 81.3378 12.7024 81.2019C12.7521 81.0627 12.777 80.9119 12.777 80.7495C12.777 80.6301 12.7687 80.5257 12.7521 80.4363C12.7356 80.3468 12.7223 80.2772 12.7124 80.2274L13.9403 79.959C13.9735 80.0452 14.0066 80.1678 14.0398 80.3269C14.0762 80.486 14.0961 80.6848 14.0994 80.9235C14.1061 81.3146 14.0365 81.6792 13.8906 82.0172C13.7448 82.3553 13.5194 82.6287 13.2145 82.8375C12.9096 83.0463 12.5267 83.1507 12.066 83.1507L4.53409 83.1507ZM14 78.4538L6.36363 78.4538L6.36363 76.9673L14 76.9673L14 78.4538ZM5.18536 77.7031C5.18536 77.9616 5.09919 78.1837 4.92684 78.3693C4.75118 78.5516 4.54237 78.6428 4.30042 78.6428C4.05516 78.6428 3.84635 78.5516 3.674 78.3693C3.49834 78.1837 3.41051 77.9616 3.41051 77.7031C3.41051 77.4446 3.49834 77.2242 3.674 77.0419C3.84635 76.8563 4.05516 76.7635 4.30042 76.7635C4.54237 76.7635 4.75118 76.8563 4.92684 77.0419C5.09919 77.2242 5.18536 77.4446 5.18536 77.7031ZM9.4659 73.481L14 73.481L14 74.9675L6.36363 74.9675L6.36363 73.5407L7.60653 73.5407L7.60653 73.4462C7.20217 73.2705 6.87736 72.9954 6.6321 72.6209C6.38683 72.2431 6.2642 71.7675 6.2642 71.1941C6.2642 70.6737 6.37357 70.218 6.59232 69.8269C6.80776 69.4358 7.12926 69.1325 7.55681 68.9171C7.98437 68.7016 8.51301 68.5939 9.14275 68.5939L14 68.5939L14 70.0804L9.32173 70.0804C8.76822 70.0804 8.3357 70.2246 8.02414 70.513C7.70927 70.8013 7.55184 71.1974 7.55184 71.7012C7.55184 72.0459 7.62641 72.3524 7.77556 72.6209C7.92471 72.8861 8.14346 73.0965 8.43181 73.2523C8.71685 73.4048 9.06155 73.481 9.4659 73.481ZM9.77414 62.4627C8.52793 62.4627 7.38115 62.2987 6.3338 61.9705C5.28645 61.6424 4.32031 61.1635 3.43536 60.5337L3.43536 59.1715C3.76349 59.4168 4.16619 59.6455 4.64346 59.8576C5.12073 60.0697 5.64441 60.2553 6.21448 60.4144C6.78124 60.5735 7.36955 60.6978 7.9794 60.7873C8.58593 60.8768 9.18418 60.9215 9.77414 60.9215C10.563 60.9215 11.3617 60.8436 12.1704 60.6879C12.9792 60.5321 13.7299 60.3216 14.4226 60.0565C15.1153 59.7913 15.6804 59.4963 16.1179 59.1715L16.1179 60.5337C15.2329 61.1635 14.2668 61.6424 13.2195 61.9705C12.1721 62.2986 11.0237 62.4627 9.77414 62.4627ZM11.4098 56.237L9.59516 56.247L9.59516 55.9885L6.36363 52.9458L6.36363 51.166L10.0426 54.6362L10.0426 54.8699L11.4098 56.237ZM14 57.6042L3.81818 57.6042L3.81818 56.1177L14 56.1177L14 57.6042ZM14 52.7818L10.3707 55.5162L9.33167 54.492L14 50.9572L14 52.7818ZM14 47.6983L3.81818 50.5222L3.81817 48.9064L11.7031 46.9228L11.7031 46.8283L3.81817 44.7651L3.81817 43.1642L11.7081 41.101L11.7081 41.0066L3.81817 39.0279L3.81817 37.4071L14 40.236L14 41.7821L6.37357 43.9249L6.37357 44.0044L14 46.1472L14 47.6983ZM9.77414 33.267C11.0237 33.267 12.1721 33.4311 13.2195 33.7592C14.2668 34.0874 15.2329 34.5663 16.1179 35.196L16.1179 36.5582C15.7898 36.313 15.3871 36.0843 14.9098 35.8722C14.4325 35.66 13.9105 35.4744 13.3437 35.3153C12.7737 35.1562 12.1837 35.032 11.5739 34.9425C10.964 34.853 10.3641 34.8082 9.77414 34.8082C8.98863 34.8082 8.19152 34.8861 7.38281 35.0419C6.57409 35.1977 5.82338 35.4081 5.13067 35.6733C4.43797 35.9384 3.87286 36.2334 3.43536 36.5582L3.43536 35.196C4.3203 34.5663 5.28645 34.0874 6.3338 33.7592C7.38115 33.4311 8.52793 33.267 9.77414 33.267Z" fill="white"/>
<path d="M55 232.349L55 233.755L47.7273 231.195L47.7273 229.568L55 227.004L55 228.411L49.2187 230.353L49.2187 230.41L55 232.349ZM52.1484 232.303L52.1484 228.467L53.2067 228.467L53.2067 232.303L52.1484 232.303ZM47.7273 226.046L47.7273 224.434L52.9972 222.275L52.9972 222.19L47.7273 220.031L47.7273 218.419L55 218.419L55 219.683L50.0036 219.683L50.0036 219.75L54.9787 221.76L54.9787 222.705L49.9929 224.715L49.9929 224.782L55 224.782L55 226.046L47.7273 226.046Z" fill="white"/>
<path d="M74 232.349L74 233.755L66.7273 231.195L66.7273 229.568L74 227.004L74 228.411L68.2187 230.353L68.2187 230.41L74 232.349ZM71.1484 232.303L71.1484 228.467L72.2067 228.467L72.2067 232.303L71.1484 232.303ZM66.7273 226.046L66.7273 224.434L71.9972 222.275L71.9972 222.19L66.7273 220.031L66.7273 218.419L74 218.419L74 219.683L69.0036 219.683L69.0036 219.75L73.9787 221.76L73.9787 222.705L68.9929 224.715L68.9929 224.782L74 224.782L74 226.046L66.7273 226.046Z" fill="white"/>
<path d="M93 233.283L85.7273 233.283L85.7273 230.555C85.7273 229.997 85.8314 229.528 86.0398 229.149C86.2481 228.768 86.5346 228.48 86.8991 228.286C87.2614 228.09 87.6733 227.991 88.1349 227.991C88.6013 227.991 89.0156 228.09 89.3778 228.286C89.7401 228.483 90.0253 228.773 90.2337 229.156C90.4396 229.54 90.5426 230.012 90.5426 230.573L90.5426 232.381L89.4595 232.381L89.4595 230.751C89.4595 230.424 89.4027 230.156 89.2891 229.948C89.1754 229.74 89.0192 229.586 88.8203 229.487C88.6214 229.385 88.393 229.334 88.1349 229.334C87.8769 229.334 87.6496 229.385 87.4531 229.487C87.2566 229.586 87.1039 229.741 86.995 229.952C86.8838 230.16 86.8281 230.429 86.8281 230.758L86.8281 231.965L93 231.965L93 233.283ZM85.7273 226.847L85.7273 225.235L90.9972 223.076L90.9972 222.991L85.7273 220.831L85.7273 219.219L93 219.219L93 220.483L88.0036 220.483L88.0036 220.551L92.9787 222.561L92.9787 223.506L87.9929 225.515L87.9929 225.583L93 225.583L93 226.847L85.7273 226.847Z" fill="white"/>
<path d="M150 232.283L142.727 232.283L142.727 229.555C142.727 228.997 142.831 228.528 143.04 228.149C143.248 227.768 143.535 227.48 143.899 227.286C144.261 227.09 144.673 226.991 145.135 226.991C145.601 226.991 146.016 227.09 146.378 227.286C146.74 227.483 147.025 227.773 147.234 228.156C147.44 228.54 147.543 229.012 147.543 229.573L147.543 231.381L146.46 231.381L146.46 229.751C146.46 229.424 146.403 229.156 146.289 228.948C146.175 228.74 146.019 228.586 145.82 228.487C145.621 228.385 145.393 228.334 145.135 228.334C144.877 228.334 144.65 228.385 144.453 228.487C144.257 228.586 144.104 228.741 143.995 228.952C143.884 229.16 143.828 229.429 143.828 229.758L143.828 230.965L150 230.965L150 232.283ZM142.727 225.847L142.727 224.235L147.997 222.076L147.997 221.991L142.727 219.831L142.727 218.219L150 218.219L150 219.483L145.004 219.483L145.004 219.551L149.979 221.561L149.979 222.506L144.993 224.515L144.993 224.583L150 224.583L150 225.847L142.727 225.847Z" fill="white"/>
<path d="M206 232.283L198.727 232.283L198.727 229.555C198.727 228.997 198.831 228.528 199.04 228.149C199.248 227.768 199.535 227.48 199.899 227.286C200.261 227.09 200.673 226.991 201.135 226.991C201.601 226.991 202.016 227.09 202.378 227.286C202.74 227.483 203.025 227.773 203.234 228.156C203.44 228.54 203.543 229.012 203.543 229.573L203.543 231.381L202.46 231.381L202.46 229.751C202.46 229.424 202.403 229.156 202.289 228.948C202.175 228.74 202.019 228.586 201.82 228.487C201.621 228.385 201.393 228.334 201.135 228.334C200.877 228.334 200.65 228.385 200.453 228.487C200.257 228.586 200.104 228.741 199.995 228.952C199.884 229.16 199.828 229.429 199.828 229.758L199.828 230.965L206 230.965L206 232.283ZM198.727 225.847L198.727 224.235L203.997 222.076L203.997 221.991L198.727 219.831L198.727 218.219L206 218.219L206 219.483L201.004 219.483L201.004 219.551L205.979 221.561L205.979 222.506L200.993 224.515L200.993 224.583L206 224.583L206 225.847L198.727 225.847Z" fill="white"/>
<path d="M112 232.349L112 233.755L104.727 231.195L104.727 229.568L112 227.004L112 228.411L106.219 230.353L106.219 230.41L112 232.349ZM109.148 232.303L109.148 228.467L110.207 228.467L110.207 232.303L109.148 232.303ZM104.727 226.046L104.727 224.434L109.997 222.275L109.997 222.19L104.727 220.031L104.727 218.419L112 218.419L112 219.683L107.004 219.683L107.004 219.75L111.979 221.76L111.979 222.705L106.993 224.715L106.993 224.782L112 224.782L112 226.046L104.727 226.046Z" fill="white"/>
<path d="M131 232.349L131 233.755L123.727 231.195L123.727 229.568L131 227.004L131 228.411L125.219 230.353L125.219 230.41L131 232.349ZM128.148 232.303L128.148 228.467L129.207 228.467L129.207 232.303L128.148 232.303ZM123.727 226.046L123.727 224.434L128.997 222.275L128.997 222.19L123.727 220.031L123.727 218.419L131 218.419L131 219.683L126.004 219.683L126.004 219.75L130.979 221.76L130.979 222.705L125.993 224.715L125.993 224.782L131 224.782L131 226.046L123.727 226.046Z" fill="white"/>
<path d="M168 232.349L168 233.755L160.727 231.195L160.727 229.568L168 227.004L168 228.411L162.219 230.353L162.219 230.41L168 232.349ZM165.148 232.303L165.148 228.467L166.207 228.467L166.207 232.303L165.148 232.303ZM160.727 226.046L160.727 224.434L165.997 222.275L165.997 222.19L160.727 220.031L160.727 218.419L168 218.419L168 219.683L163.004 219.683L163.004 219.75L167.979 221.76L167.979 222.705L162.993 224.715L162.993 224.782L168 224.782L168 226.046L160.727 226.046Z" fill="white"/>
<path d="M225 232.349L225 233.755L217.727 231.195L217.727 229.568L225 227.004L225 228.411L219.219 230.353L219.219 230.41L225 232.349ZM222.148 232.303L222.148 228.467L223.207 228.467L223.207 232.303L222.148 232.303ZM217.727 226.046L217.727 224.434L222.997 222.275L222.997 222.19L217.727 220.031L217.727 218.419L225 218.419L225 219.683L220.004 219.683L220.004 219.75L224.979 221.76L224.979 222.705L219.993 224.715L219.993 224.782L225 224.782L225 226.046L217.727 226.046Z" fill="white"/>
<path d="M244 232.349L244 233.755L236.727 231.195L236.727 229.568L244 227.004L244 228.411L238.219 230.353L238.219 230.41L244 232.349ZM241.148 232.303L241.148 228.467L242.207 228.467L242.207 232.303L241.148 232.303ZM236.727 226.046L236.727 224.434L241.997 222.275L241.997 222.19L236.727 220.031L236.727 218.419L244 218.419L244 219.683L239.004 219.683L239.004 219.75L243.979 221.76L243.979 222.705L238.993 224.715L238.993 224.782L244 224.782L244 226.046L236.727 226.046Z" fill="white"/>
<path d="M263 232.283L255.727 232.283L255.727 229.555C255.727 228.997 255.831 228.528 256.04 228.149C256.248 227.768 256.535 227.48 256.899 227.286C257.261 227.09 257.673 226.991 258.135 226.991C258.601 226.991 259.016 227.09 259.378 227.286C259.74 227.483 260.025 227.773 260.234 228.156C260.44 228.54 260.543 229.012 260.543 229.573L260.543 231.381L259.46 231.381L259.46 229.751C259.46 229.424 259.403 229.156 259.289 228.948C259.175 228.74 259.019 228.586 258.82 228.487C258.621 228.385 258.393 228.334 258.135 228.334C257.877 228.334 257.65 228.385 257.453 228.487C257.257 228.586 257.104 228.741 256.995 228.952C256.884 229.16 256.828 229.429 256.828 229.758L256.828 230.965L263 230.965L263 232.283ZM255.727 225.847L255.727 224.235L260.997 222.076L260.997 221.991L255.727 219.831L255.727 218.219L263 218.219L263 219.483L258.004 219.483L258.004 219.551L262.979 221.561L262.979 222.506L257.993 224.515L257.993 224.583L263 224.583L263 225.847L255.727 225.847Z" fill="white"/>
<path d="M282 232.349L282 233.755L274.727 231.195L274.727 229.568L282 227.004L282 228.411L276.219 230.353L276.219 230.41L282 232.349ZM279.148 232.303L279.148 228.467L280.207 228.467L280.207 232.303L279.148 232.303ZM274.727 226.046L274.727 224.434L279.997 222.275L279.997 222.19L274.727 220.031L274.727 218.419L282 218.419L282 219.683L277.004 219.683L277.004 219.75L281.979 221.76L281.979 222.705L276.993 224.715L276.993 224.782L282 224.782L282 226.046L274.727 226.046Z" fill="white"/>
<path d="M301 232.349L301 233.755L293.727 231.195L293.727 229.568L301 227.004L301 228.411L295.219 230.353L295.219 230.41L301 232.349ZM298.148 232.303L298.148 228.467L299.207 228.467L299.207 232.303L298.148 232.303ZM293.727 226.046L293.727 224.434L298.997 222.275L298.997 222.19L293.727 220.031L293.727 218.419L301 218.419L301 219.683L296.004 219.683L296.004 219.75L300.979 221.76L300.979 222.705L295.993 224.715L295.993 224.782L301 224.782L301 226.046L293.727 226.046Z" fill="white"/>
<path d="M320 233.283L312.727 233.283L312.727 230.555C312.727 229.997 312.831 229.528 313.04 229.149C313.248 228.768 313.535 228.48 313.899 228.286C314.261 228.09 314.673 227.991 315.135 227.991C315.601 227.991 316.016 228.09 316.378 228.286C316.74 228.483 317.025 228.773 317.234 229.156C317.44 229.54 317.543 230.012 317.543 230.573L317.543 232.381L316.46 232.381L316.46 230.751C316.46 230.424 316.403 230.156 316.289 229.948C316.175 229.74 316.019 229.586 315.82 229.487C315.621 229.385 315.393 229.334 315.135 229.334C314.877 229.334 314.65 229.385 314.453 229.487C314.257 229.586 314.104 229.741 313.995 229.952C313.884 230.16 313.828 230.429 313.828 230.758L313.828 231.965L320 231.965L320 233.283ZM312.727 226.847L312.727 225.235L317.997 223.076L317.997 222.991L312.727 220.831L312.727 219.219L320 219.219L320 220.483L315.004 220.483L315.004 220.551L319.979 222.561L319.979 223.506L314.993 225.515L314.993 225.583L320 225.583L320 226.847L312.727 226.847Z" fill="white"/>
<path d="M339 232.349L339 233.755L331.727 231.195L331.727 229.568L339 227.004L339 228.411L333.219 230.353L333.219 230.41L339 232.349ZM336.148 232.303L336.148 228.467L337.207 228.467L337.207 232.303L336.148 232.303ZM331.727 226.046L331.727 224.434L336.997 222.275L336.997 222.19L331.727 220.031L331.727 218.419L339 218.419L339 219.683L334.004 219.683L334.004 219.75L338.979 221.76L338.979 222.705L333.993 224.715L333.993 224.782L339 224.782L339 226.046L331.727 226.046Z" fill="white"/>
<path d="M358 233.349L358 234.755L350.727 232.195L350.727 230.568L358 228.004L358 229.411L352.219 231.353L352.219 231.41L358 233.349ZM355.148 233.303L355.148 229.467L356.207 229.467L356.207 233.303L355.148 233.303ZM350.727 227.046L350.727 225.434L355.997 223.275L355.997 223.19L350.727 221.031L350.727 219.419L358 219.419L358 220.683L353.004 220.683L353.004 220.75L357.979 222.76L357.979 223.705L352.993 225.715L352.993 225.782L358 225.782L358 227.046L350.727 227.046Z" fill="white"/>
<path d="M377 233.283L369.727 233.283L369.727 230.555C369.727 229.997 369.831 229.528 370.04 229.149C370.248 228.768 370.535 228.48 370.899 228.286C371.261 228.09 371.673 227.991 372.135 227.991C372.601 227.991 373.016 228.09 373.378 228.286C373.74 228.483 374.025 228.773 374.234 229.156C374.44 229.54 374.543 230.012 374.543 230.573L374.543 232.381L373.46 232.381L373.46 230.751C373.46 230.424 373.403 230.156 373.289 229.948C373.175 229.74 373.019 229.586 372.82 229.487C372.621 229.385 372.393 229.334 372.135 229.334C371.877 229.334 371.65 229.385 371.453 229.487C371.257 229.586 371.104 229.741 370.995 229.952C370.884 230.16 370.828 230.429 370.828 230.758L370.828 231.965L377 231.965L377 233.283ZM369.727 226.847L369.727 225.235L374.997 223.076L374.997 222.991L369.727 220.831L369.727 219.219L377 219.219L377 220.483L372.004 220.483L372.004 220.551L376.979 222.561L376.979 223.506L371.993 225.515L371.993 225.583L377 225.583L377 226.847L369.727 226.847Z" fill="white"/>
<path d="M396 232.349L396 233.755L388.727 231.195L388.727 229.568L396 227.004L396 228.411L390.219 230.353L390.219 230.41L396 232.349ZM393.148 232.303L393.148 228.467L394.207 228.467L394.207 232.303L393.148 232.303ZM388.727 226.046L388.727 224.434L393.997 222.275L393.997 222.19L388.727 220.031L388.727 218.419L396 218.419L396 219.683L391.004 219.683L391.004 219.75L395.979 221.76L395.979 222.705L390.993 224.715L390.993 224.782L396 224.782L396 226.046L388.727 226.046Z" fill="white"/>
<path d="M415 232.349L415 233.755L407.727 231.195L407.727 229.568L415 227.004L415 228.411L409.219 230.353L409.219 230.41L415 232.349ZM412.148 232.303L412.148 228.467L413.207 228.467L413.207 232.303L412.148 232.303ZM407.727 226.046L407.727 224.434L412.997 222.275L412.997 222.19L407.727 220.031L407.727 218.419L415 218.419L415 219.683L410.004 219.683L410.004 219.75L414.979 221.76L414.979 222.705L409.993 224.715L409.993 224.782L415 224.782L415 226.046L407.727 226.046Z" fill="white"/>
<path d="M453 232.349L453 233.755L445.727 231.195L445.727 229.568L453 227.004L453 228.411L447.219 230.353L447.219 230.41L453 232.349ZM450.148 232.303L450.148 228.467L451.207 228.467L451.207 232.303L450.148 232.303ZM445.727 226.046L445.727 224.434L450.997 222.275L450.997 222.19L445.727 220.031L445.727 218.419L453 218.419L453 219.683L448.004 219.683L448.004 219.75L452.979 221.76L452.979 222.705L447.993 224.715L447.993 224.782L453 224.782L453 226.046L445.727 226.046Z" fill="white"/>
<path d="M434 233.283L426.727 233.283L426.727 230.555C426.727 229.997 426.831 229.528 427.04 229.149C427.248 228.768 427.535 228.48 427.899 228.286C428.261 228.09 428.673 227.991 429.135 227.991C429.601 227.991 430.016 228.09 430.378 228.286C430.74 228.483 431.025 228.773 431.234 229.156C431.44 229.54 431.543 230.012 431.543 230.573L431.543 232.381L430.46 232.381L430.46 230.751C430.46 230.424 430.403 230.156 430.289 229.948C430.175 229.74 430.019 229.586 429.82 229.487C429.621 229.385 429.393 229.334 429.135 229.334C428.877 229.334 428.65 229.385 428.453 229.487C428.257 229.586 428.104 229.741 427.995 229.952C427.884 230.16 427.828 230.429 427.828 230.758L427.828 231.965L434 231.965L434 233.283ZM426.727 226.847L426.727 225.235L431.997 223.076L431.997 222.991L426.727 220.831L426.727 219.219L434 219.219L434 220.483L429.004 220.483L429.004 220.551L433.979 222.561L433.979 223.506L428.993 225.515L428.993 225.583L434 225.583L434 226.847L426.727 226.847Z" fill="white"/>
<path d="M187 232.349L187 233.755L179.727 231.195L179.727 229.568L187 227.004L187 228.411L181.219 230.353L181.219 230.41L187 232.349ZM184.148 232.303L184.148 228.467L185.207 228.467L185.207 232.303L184.148 232.303ZM179.727 226.046L179.727 224.434L184.997 222.275L184.997 222.19L179.727 220.031L179.727 218.419L187 218.419L187 219.683L182.004 219.683L182.004 219.75L186.979 221.76L186.979 222.705L181.993 224.715L181.993 224.782L187 224.782L187 226.046L179.727 226.046Z" fill="white"/>
</svg>
