<svg width="205" height="66" viewBox="0 0 205 66" fill="none" xmlns="http://www.w3.org/2000/svg">
<g clip-path="url(#clip0_50_9823)">
<path d="M68.2782 47.814H85.2696V55.5192H58.1668V5.16309H68.2782V47.814Z" fill="white"/>
<path d="M91.2896 47.4508V55.5192H121.441V47.4508H91.2896ZM91.2896 5.16309V13.1537H121.441V5.16309H91.2896Z" fill="white"/>
<path d="M128.895 5.16309V13.1537H159.073V5.16309H128.895ZM128.895 47.4508V55.5192H159.073V47.4508H128.895Z" fill="white"/>
<path d="M192.899 55.5192L181.068 35.906H176.637V55.5192H166.526V5.16309H185.811C191.674 5.16309 196.157 6.58997 199.258 9.44375C202.333 12.2975 203.871 16.0593 203.871 20.7032C203.871 24.5169 202.802 27.682 200.691 30.2504C198.554 32.8188 195.505 34.531 191.492 35.3871L204.105 55.4933H192.899V55.5192ZM176.637 28.9791H184.951C190.736 28.9791 193.629 26.4367 193.629 21.3518C193.629 18.939 192.925 17.0452 191.518 15.6702C190.111 14.3211 187.922 13.6466 184.951 13.6466H176.637V28.9791Z" fill="white"/>
<path d="M46.4657 66.0001L39.7682 51.7312C43.156 49.4482 45.8142 46.4388 47.7166 42.7029C49.6451 38.9671 50.5832 34.7902 50.5832 30.1723C50.5832 25.2171 49.4626 20.7808 47.2475 16.8633C45.0324 12.9459 41.9833 9.88454 38.1524 7.7053C35.3379 6.12275 32.3149 5.11096 29.0313 4.66992V14.1133C30.4907 14.4506 31.8458 14.9695 33.0706 15.6959C35.3118 17.019 37.0839 18.9388 38.3348 21.4294C39.6118 23.9199 40.2372 26.8515 40.2372 30.1723C40.2372 33.493 39.6118 36.4246 38.3348 38.9152C37.0839 41.4058 35.3118 43.3256 33.0706 44.6487C30.8294 45.9718 28.2234 46.6463 25.2525 46.6463C22.2816 46.6463 19.7017 45.9718 17.4344 44.6487C15.1932 43.3256 13.4472 41.4058 12.1702 38.9152C11.4145 37.4364 10.8932 35.8279 10.6066 34.0638H0.234543C0.67757 37.4883 1.69393 40.6275 3.30967 43.5331C5.5248 47.4765 8.57387 50.5378 12.4047 52.743C16.2617 54.9223 20.5356 56.0119 25.2525 56.0119C27.5458 56.0119 29.6567 55.7784 31.5591 55.3114L36.3282 66.0001H46.4657Z" fill="white"/>
<path d="M21.9168 29.809L7.14055 11.7783C5.68117 13.283 4.40421 14.9953 3.30967 16.8892C1.17272 20.7028 0.0521208 25.0095 0 29.809H21.9168Z" fill="#47D8D6"/>
<path d="M119.305 26.2031H91.2896V33.9083H119.305V26.2031Z" fill="#7DDA6F"/>
<path d="M156.91 26.2031H128.895V33.9083H156.91V26.2031Z" fill="#47D8D6"/>
<path d="M24.4968 0V23.5307L9.19933 4.85141C9.98114 4.28066 10.789 3.76179 11.649 3.26887C15.4799 1.08962 19.7538 0 24.4968 0Z" fill="#7DDA6F"/>
</g>
<defs>
<clipPath id="clip0_50_9823">
<rect width="204.079" height="66" fill="white"/>
</clipPath>
</defs>
</svg>
