<svg width="235" height="76" viewBox="0 0 235 76" fill="none" xmlns="http://www.w3.org/2000/svg">
<g clip-path="url(#clip0_50_19468)">
<path d="M78.6234 55.0582H98.1893V63.9308H66.9799V5.94495H78.6234V55.0582Z" fill="#105244"/>
<path d="M105.121 54.6399V63.9308H139.842V54.6399H105.121ZM105.121 5.94495V15.1462H139.842V5.94495H105.121Z" fill="#105244"/>
<path d="M148.424 5.94495V15.1462H183.175V5.94495H148.424ZM148.424 54.6399V63.9308H183.175V54.6399H148.424Z" fill="#105244"/>
<path d="M222.126 63.9308L208.502 41.3459H203.401V63.9308H191.757V5.94495H213.964C220.716 5.94495 225.877 7.58803 229.448 10.8742C232.989 14.1604 234.76 18.4921 234.76 23.8396C234.76 28.2311 233.53 31.8758 231.099 34.8333C228.638 37.7909 225.127 39.7626 220.506 40.7484L235.03 63.9009H222.126V63.9308ZM203.401 33.3695H212.973C219.635 33.3695 222.966 30.4418 222.966 24.5865C222.966 21.8082 222.156 19.6273 220.536 18.044C218.915 16.4905 216.394 15.7138 212.973 15.7138H203.401V33.3695Z" fill="#105244"/>
<path d="M53.5059 76L45.7936 59.5692C49.6948 56.9402 52.7557 53.4748 54.9464 49.173C57.167 44.8711 58.2474 40.0613 58.2474 34.7437C58.2474 29.0377 56.957 23.9292 54.4062 19.4182C51.8554 14.9072 48.3444 11.3821 43.9331 8.87263C40.6921 7.05031 37.2111 5.88521 33.43 5.37735V16.2516C35.1105 16.6399 36.6709 17.2374 38.0813 18.0739C40.6621 19.5975 42.7027 21.8082 44.1432 24.6761C45.6136 27.544 46.3338 30.9198 46.3338 34.7437C46.3338 38.5676 45.6136 41.9434 44.1432 44.8113C42.7027 47.6792 40.6621 49.8899 38.0813 51.4135C35.5006 52.9371 32.4997 53.7138 29.0787 53.7138C25.6576 53.7138 22.6868 52.9371 20.076 51.4135C17.4952 49.8899 15.4846 47.6792 14.0142 44.8113C13.1439 43.1085 12.5437 41.2563 12.2136 39.2248H0.270081C0.780233 43.1682 1.95058 46.783 3.81114 50.1289C6.3619 54.6698 9.87294 58.195 14.2843 60.7343C18.7256 63.2437 23.647 64.4984 29.0787 64.4984C31.7194 64.4984 34.1502 64.2296 36.3408 63.6918L41.8325 76H53.5059Z" fill="#105244"/>
<path d="M25.2375 34.3255L8.22245 13.5629C6.54195 15.2956 5.07151 17.2673 3.81114 19.4481C1.3504 23.8396 0.0600179 28.7987 0 34.3255H25.2375Z" fill="#47D8D6"/>
<path d="M137.381 30.1729H105.121V39.0456H137.381V30.1729Z" fill="#7DDA6F"/>
<path d="M180.684 30.1729H148.424V39.0456H180.684V30.1729Z" fill="#47D8D6"/>
<path d="M28.2084 0V27.0959L10.5932 5.58648C11.4934 4.92925 12.4237 4.33176 13.414 3.76415C17.8253 1.25472 22.7468 0 28.2084 0Z" fill="#7DDA6F"/>
</g>
<defs>
<clipPath id="clip0_50_19468">
<rect width="235" height="76" fill="white"/>
</clipPath>
</defs>
</svg>
