<svg width="120" height="120" viewBox="0 0 120 120" fill="none" xmlns="http://www.w3.org/2000/svg">
<rect opacity="0.06" width="120" height="120" rx="60" fill="#105244"/>
<g clip-path="url(#clip0_14_699)">
<path d="M65.0567 80.3506C65.0567 80.6211 64.836 80.8337 64.577 80.8337H48.7564C48.4973 80.8337 48.2767 80.6211 48.2767 80.3506C48.2767 80.0897 48.4973 79.8675 48.7564 79.8675C49.7158 79.8675 50.4353 79.568 50.963 78.9496C51.8744 77.8868 51.9608 76.1283 51.9224 75.0752H61.4109C61.3725 76.138 61.4685 77.8965 62.3703 78.9593C62.898 79.568 63.6176 79.8675 64.577 79.8675C64.836 79.8675 65.0567 80.0897 65.0567 80.3506V80.3506ZM78.6322 34.167H34.7011C32.1011 34.167 30 36.2829 30 38.9013V69.3747C30 71.9931 32.1011 74.109 34.7011 74.109H64.6057V68.1863H34.7011C34.0583 68.1863 33.5306 67.6549 33.5306 66.9979V38.9013C33.5306 38.2443 34.0583 37.7129 34.7011 37.7129H78.6322C79.275 37.7129 79.8027 38.2443 79.8027 38.9013V52.4665H83.3333V38.9013C83.3333 36.2829 81.2322 34.167 78.6322 34.167V34.167ZM56.6715 69.8868C57.3526 69.8868 57.9091 70.4472 57.9091 71.1525C57.9091 71.8482 57.3526 72.4085 56.6715 72.4085C56.5069 72.4098 56.3437 72.3783 56.1912 72.3157C56.0388 72.2532 55.9002 72.1608 55.7833 72.0441C55.6665 71.9273 55.5738 71.7884 55.5105 71.6354C55.4472 71.4824 55.4146 71.3183 55.4146 71.1525C55.4146 70.4472 55.9711 69.8868 56.6715 69.8868Z" fill="#105244"/>
<path d="M77.608 39.389V43.0658H35.834V39.389C35.834 39.2731 35.9298 39.167 36.0447 39.167H77.3973C77.5122 39.167 77.608 39.2731 77.608 39.389ZM57.1998 45.9639H74.5981V46.9289H57.1998V45.9639ZM53.0424 47.4115V51.7542C53.0424 52.0101 52.9415 52.2556 52.7619 52.4366C52.5823 52.6176 52.3387 52.7193 52.0847 52.7193H38.361C38.107 52.7193 37.8635 52.6176 37.6839 52.4366C37.5043 52.2556 37.4034 52.0101 37.4034 51.7542V47.4115C37.4034 47.1555 37.5043 46.91 37.6839 46.7291C37.8635 46.5481 38.107 46.4464 38.361 46.4464H52.0847C52.3387 46.4464 52.5823 46.5481 52.7619 46.7291C52.9415 46.91 53.0424 47.1555 53.0424 47.4115ZM57.1998 49.1003H74.5981V50.0654H57.1998V49.1003ZM57.1998 52.2367H62.6461V53.2018H57.1998V52.2367ZM61.1866 57.062V64.9658C61.1866 65.2218 61.0857 65.4672 60.9061 65.6482C60.7265 65.8292 60.4829 65.9309 60.2289 65.9309H52.3759C52.1219 65.9309 51.8783 65.8292 51.6987 65.6482C51.5191 65.4672 51.4182 65.2218 51.4182 64.9658V57.062C51.4182 56.8061 51.5191 56.5606 51.6987 56.3796C51.8783 56.1986 52.1219 56.0969 52.3759 56.0969H60.2289C60.4829 56.0969 60.7265 56.1986 60.9061 56.3796C61.0857 56.5606 61.1866 56.8061 61.1866 57.062ZM47.1689 57.062V64.9658C47.1689 65.2218 47.068 65.4672 46.8884 65.6482C46.7088 65.8292 46.4652 65.9309 46.2112 65.9309H38.3582C38.1042 65.9309 37.8606 65.8292 37.681 65.6482C37.5014 65.4672 37.4005 65.2218 37.4005 64.9658V57.062C37.4005 56.8061 37.5014 56.5606 37.681 56.3796C37.8606 56.1986 38.1042 56.0969 38.3582 56.0969H46.2112C46.4652 56.0969 46.7088 56.1986 46.8884 56.3796C47.068 56.5606 47.1689 56.8061 47.1689 57.062ZM87.1276 53.9034H68.06C66.4798 53.9034 65.1869 55.1966 65.1869 56.7985V83.7718C65.1869 85.3642 66.4798 86.667 68.06 86.667H87.1276C88.7174 86.667 90.0007 85.3642 90.0007 83.7718V56.7985C90.0007 55.1966 88.7174 53.9034 87.1276 53.9034ZM77.0814 85.5282C76.5164 85.5282 76.0567 85.065 76.0567 84.4956C76.0555 84.2898 76.1152 84.0882 76.228 83.9165C76.3407 83.7449 76.5016 83.6109 76.6902 83.5316C76.8787 83.4523 77.0863 83.4312 77.2868 83.4711C77.4872 83.511 77.6713 83.61 77.8158 83.7556C77.9603 83.9012 78.0585 84.0867 78.0981 84.2887C78.1377 84.4906 78.1168 84.6999 78.0381 84.8899C77.9594 85.0799 77.8264 85.242 77.6561 85.3556C77.4857 85.4693 77.2857 85.5294 77.0814 85.5282ZM87.8459 81.3592C87.8459 81.89 87.4245 82.3242 86.8882 82.3242H68.2994C67.7727 82.3242 67.3417 81.89 67.3417 81.3592V57.2811C67.3417 56.7406 67.7727 56.316 68.2994 56.316H86.8882C87.4245 56.316 87.8459 56.7406 87.8459 57.2811V81.3592Z" fill="#105244"/>
<path d="M70.8368 63.2773H85.0007V72.19H70.8368V63.2773ZM70.8368 58.333H85.0007V60.7003H70.8368V58.333ZM70.834 77.3884H82.3369V78.333H70.834V77.3884ZM70.834 74.5544H84.9978V75.4991H70.834V74.5544Z" fill="#105244"/>
</g>
<defs>
<clipPath id="clip0_14_699">
<rect width="60" height="60" fill="white" transform="translate(30 30)"/>
</clipPath>
</defs>
</svg>
