<svg width="120" height="120" viewBox="0 0 120 120" fill="none" xmlns="http://www.w3.org/2000/svg">
<rect opacity="0.06" width="120" height="120" rx="60" fill="#105244"/>
<path d="M34.1538 79.2904C33.5826 79.2904 33.0348 79.0647 32.6308 78.6631C32.2269 78.2614 32 77.7166 32 77.1485V57.8712C32 57.3032 32.2269 56.7584 32.6308 56.3567C33.0348 55.955 33.5826 55.7293 34.1538 55.7293C34.7251 55.7293 35.2729 55.955 35.6768 56.3567C36.0808 56.7584 36.3077 57.3032 36.3077 57.8712V77.1485C36.3077 77.7166 36.0808 78.2614 35.6768 78.6631C35.2729 79.0647 34.7251 79.2904 34.1538 79.2904ZM85.8462 79.2904C85.2749 79.2904 84.7271 79.0647 84.3232 78.6631C83.9192 78.2614 83.6923 77.7166 83.6923 77.1485V57.8712C83.6923 57.3032 83.9192 56.7584 84.3232 56.3567C84.7271 55.955 85.2749 55.7293 85.8462 55.7293C86.4174 55.7293 86.9652 55.955 87.3692 56.3567C87.7731 56.7584 88 57.3032 88 57.8712V77.1485C88 77.7166 87.7731 78.2614 87.3692 78.6631C86.9652 79.0647 86.4174 79.2904 85.8462 79.2904ZM79.3846 55.7293H40.6154C40.0441 55.7293 39.4963 55.955 39.0924 56.3567C38.6885 56.7584 38.4615 57.3032 38.4615 57.8712V68.5808C38.4615 78.6907 46.7538 90 57.8462 90H62.1538C73.2462 90 81.5385 78.6907 81.5385 68.5808V57.8712C81.5385 57.3032 81.3115 56.7584 80.9076 56.3567C80.5037 55.955 79.9559 55.7293 79.3846 55.7293ZM67.9843 72.2371C67.7848 72.4367 67.5475 72.5951 67.2861 72.7032C67.0248 72.8112 66.7446 72.8669 66.4615 72.8669C66.1785 72.8669 65.8983 72.8112 65.6369 72.7032C65.3756 72.5951 65.1383 72.4367 64.9388 72.2371L62.1538 69.4676V81.4323C62.1538 82.0004 61.9269 82.5452 61.523 82.9469C61.1191 83.3486 60.5712 83.5742 60 83.5742C59.4288 83.5742 58.8809 83.3486 58.477 82.9469C58.0731 82.5452 57.8462 82.0004 57.8462 81.4323V69.4676L55.0612 72.2371C54.8625 72.4417 54.6249 72.6048 54.3621 72.7171C54.0993 72.8293 53.8167 72.8884 53.5307 72.8909C53.2447 72.8934 52.9611 72.8392 52.6964 72.7315C52.4317 72.6238 52.1912 72.4647 51.989 72.2636C51.7868 72.0625 51.6268 71.8234 51.5185 71.5601C51.4102 71.2969 51.3557 71.0149 51.3582 70.7305C51.3607 70.4461 51.4201 70.165 51.533 69.9037C51.6459 69.6423 51.81 69.406 52.0157 69.2084L58.4772 62.7827C58.8811 62.3811 59.4289 62.1555 60 62.1555C60.5711 62.1555 61.1189 62.3811 61.5228 62.7827L67.9843 69.2084C68.3881 69.6101 68.6149 70.1548 68.6149 70.7227C68.6149 71.2907 68.3881 71.8354 67.9843 72.2371ZM71.8742 36.24L74.4458 33.6826C74.6516 33.485 74.8156 33.2486 74.9285 32.9873C75.0414 32.726 75.1008 32.4449 75.1033 32.1605C75.1058 31.8761 75.0513 31.5941 74.943 31.3308C74.8347 31.0676 74.6748 30.8285 74.4725 30.6274C74.2703 30.4262 74.0298 30.2672 73.7651 30.1595C73.5004 30.0518 73.2168 29.9976 72.9308 30.0001C72.6448 30.0026 72.3622 30.0616 72.0994 30.1739C71.8367 30.2862 71.599 30.4493 71.4003 30.6539L68.0877 33.946C65.6215 32.8172 62.8862 32.1682 60 32.1682C57.1138 32.1682 54.3785 32.8172 51.9123 33.9482L48.5997 30.6539C48.401 30.4493 48.1633 30.2862 47.9006 30.1739C47.6378 30.0616 47.3552 30.0026 47.0692 30.0001C46.7832 29.9976 46.4996 30.0518 46.2349 30.1595C45.9702 30.2672 45.7297 30.4262 45.5275 30.6274C45.3252 30.8285 45.1653 31.0676 45.057 31.3308C44.9487 31.5941 44.8942 31.8761 44.8967 32.1605C44.8992 32.4449 44.9586 32.726 45.0715 32.9873C45.1844 33.2486 45.3484 33.485 45.5542 33.6826L48.1258 36.2422C43.5662 39.772 40.6154 45.2639 40.6154 51.4455C40.6154 52.0136 40.8423 52.5584 41.2462 52.9601C41.6502 53.3617 42.198 53.5874 42.7692 53.5874H77.2308C77.802 53.5874 78.3498 53.3617 78.7538 52.9601C79.1577 52.5584 79.3846 52.0136 79.3846 51.4455C79.3846 45.2661 76.4338 39.772 71.8742 36.24V36.24ZM53.6031 48.2326C51.824 48.2326 50.3637 46.7975 50.3637 45.0197C50.3637 43.2419 51.7917 41.8069 53.5729 41.8069H53.6031C55.3843 41.8069 56.8252 43.2419 56.8252 45.0197C56.8252 46.7975 55.3843 48.2326 53.6031 48.2326ZM66.5262 48.2326C64.7471 48.2326 63.2868 46.7975 63.2868 45.0197C63.2868 43.2419 64.7148 41.8069 66.496 41.8069H66.5262C68.3074 41.8069 69.7483 43.2419 69.7483 45.0197C69.7483 46.7975 68.3074 48.2326 66.5262 48.2326V48.2326Z" fill="#105244"/>
</svg>
