<svg width="120" height="120" viewBox="0 0 120 120" fill="none" xmlns="http://www.w3.org/2000/svg">
<rect opacity="0.06" width="120" height="120" rx="60" fill="#105244"/>
<path d="M89.3581 57.8379C86.9423 55.1485 81.6087 49.7707 74.676 46.0135V40.1576H78.2611C78.6762 41.5519 79.9594 42.5829 81.4813 42.5829C83.3302 42.5829 84.84 41.0749 84.84 39.2146C84.84 37.3544 83.3302 35.8464 81.4813 35.8464C79.9471 35.8464 78.6762 36.8774 78.2611 38.2717H73.732C73.2165 38.2717 72.7879 38.6985 72.7879 39.2146V45.0583C69.1648 43.3241 65.1646 42.1304 60.9367 41.9665V39.9179C62.3338 39.5033 63.3647 38.2215 63.3647 36.7013C63.3647 34.841 61.855 33.333 59.9927 33.333C58.1438 33.333 56.634 34.841 56.634 36.7013C56.634 38.2215 57.6662 39.5033 59.0498 39.9179V41.9665C54.8354 42.1304 50.8352 43.3363 47.2121 45.0583V39.2146C47.2121 38.6997 46.7848 38.2717 46.268 38.2717H41.7389C41.3238 36.8762 40.0529 35.8464 38.5186 35.8464C36.6698 35.8464 35.16 37.3544 35.16 39.2146C35.16 41.0749 36.6698 42.5829 38.5186 42.5829C40.0406 42.5829 41.3238 41.5519 41.7389 40.1576H45.324V46.0135C38.3925 49.7707 33.0577 55.1497 30.6419 57.8379C29.786 58.7931 29.786 60.2253 30.6419 61.1805C33.0577 63.87 38.3913 69.2477 45.324 73.0184V79.2131H41.7389C41.3238 77.8188 40.0406 76.7878 38.5186 76.7878C36.6698 76.7878 35.16 78.2958 35.16 80.1561C35.16 82.0163 36.6698 83.5243 38.5186 83.5243C40.0529 83.5243 41.3238 82.4945 41.7389 81.099H46.268C46.7835 81.099 47.2121 80.6722 47.2121 80.1561V73.9736C50.8352 75.6956 54.8354 76.9015 59.0498 77.0654V80.0815C57.6662 80.4961 56.634 81.7778 56.634 83.2981C56.634 85.1583 58.1438 86.6663 59.9927 86.6663C61.855 86.6663 63.3647 85.1583 63.3647 83.2981C63.3647 81.7778 62.3325 80.4961 60.9367 80.0815V77.0654C65.1634 76.9015 69.1648 75.7079 72.7879 73.9736V80.1561C72.7879 80.671 73.2152 81.099 73.732 81.099H78.2611C78.6762 82.4945 79.9471 83.5243 81.4813 83.5243C83.3302 83.5243 84.84 82.0163 84.84 80.1561C84.84 78.2958 83.3302 76.7878 81.4813 76.7878C79.9594 76.7878 78.6762 77.8188 78.2611 79.2131H74.676V73.0184C81.6075 69.249 86.9423 63.87 89.3581 61.1805C90.214 60.2253 90.214 58.7931 89.3581 57.8379ZM59.9951 71.8491C53.1885 71.8491 47.6541 66.3198 47.6541 59.5086C47.6541 52.7097 53.1897 47.1815 59.9951 47.1815C66.8139 47.1815 72.3496 52.7109 72.3496 59.5086C72.3496 66.3198 66.8139 71.8491 59.9951 71.8491Z" fill="#105244"/>
<path d="M59.9945 52.7041C56.2156 52.7041 53.1445 55.7752 53.1445 59.5541C53.1445 63.3441 56.2156 66.4152 59.9945 66.4152C63.7845 66.4152 66.8556 63.3441 66.8556 59.5541C66.8556 55.7752 63.7845 52.7041 59.9945 52.7041ZM60.4256 57.9163C59.2845 57.9163 58.3556 58.8452 58.3556 59.9863C58.3556 60.4585 57.9723 60.843 57.499 60.843C57.0256 60.843 56.6423 60.4597 56.6423 59.9863C56.6423 57.9008 58.339 56.2041 60.4245 56.2041C60.8968 56.2041 61.2812 56.5874 61.2812 57.0608C61.2812 57.5341 60.8979 57.9163 60.4256 57.9163Z" fill="#105244"/>
</svg>
