<svg width="40" height="40" viewBox="0 0 40 40" fill="none" xmlns="http://www.w3.org/2000/svg">
<rect x="0.5" y="0.5" width="39" height="39" rx="3.5" stroke="white"/>
<path d="M20.5531 16.4938C20.5297 26.0657 20.5578 25.3063 20.1594 26.1172C19.8078 26.8344 19.2781 27.3641 18.5703 27.7157C17.975 28.0063 17.6516 28.0813 16.9766 28.0813C16.3203 28.0813 15.9875 28.0063 15.4297 27.7344C14.7219 27.3828 14.15 26.8157 13.8125 26.1172C13.5406 25.55 13.4656 25.2266 13.4656 24.5703C13.4609 23.8907 13.5359 23.5766 13.8453 22.9532C14.0281 22.5782 14.1266 22.4422 14.4875 22.086C14.9516 21.6219 15.3781 21.3641 15.9922 21.1719C16.4422 21.0313 17.1875 20.9985 17.6562 21.0969C17.8484 21.1391 18.0359 21.1719 18.0687 21.1719C18.1109 21.1719 18.125 20.7453 18.125 19.2078V17.2391L17.9047 17.2016C17.7781 17.1828 17.3422 17.1688 16.9297 17.1688C15.725 17.1735 14.7734 17.3891 13.7328 17.8907C9.61718 19.8688 8.22031 24.8797 10.7281 28.6625C11.1641 29.3188 12.1016 30.261 12.7344 30.6828C14.6937 31.9813 17.0516 32.3188 19.2969 31.6157C21.3078 30.9875 23.1031 29.3422 23.9141 27.3922C24.1203 26.886 24.2797 26.3282 24.3875 25.7422C24.4625 25.311 24.4672 24.9078 24.4578 20.5719C24.4484 17.9891 24.4578 15.875 24.4766 15.875C24.4953 15.875 24.5891 15.936 24.6828 16.011C25.2078 16.4282 26.2766 16.9953 27.0875 17.3C28.0016 17.6375 29.2953 17.8907 30.125 17.8907H30.5469L30.5375 15.9547L30.5234 14.0235L30.0687 13.9953C28.6344 13.9016 27.3266 13.3016 26.2531 12.2422C25.2031 11.211 24.5891 9.88909 24.4719 8.40784L24.4391 8.00003H22.5078H20.5719L20.5531 16.4938Z" fill="white"/>
</svg>
