<svg width="40" height="40" viewBox="0 0 40 40" fill="none" xmlns="http://www.w3.org/2000/svg">
<rect width="40" height="40" rx="4" fill="#7DDA6F"/>
<path d="M22.8594 13.2843C22.489 13.3687 22.264 13.4484 21.9453 13.6077C20.9 14.128 20.1547 15.0515 19.8547 16.1952C19.7515 16.603 19.714 17.3765 19.7797 17.7843L19.8219 18.014L19.3812 17.9859C17.825 17.8827 16.1094 17.3249 14.6562 16.4437C13.8547 15.9609 13.2687 15.4921 12.4812 14.7093C11.6422 13.8702 11.7172 13.889 11.4969 14.4468C11.1312 15.3984 11.0984 16.2609 11.4078 17.128C11.6469 17.803 12.1531 18.539 12.664 18.9562L12.9312 19.1718H12.7812C12.5094 19.1718 11.914 19.0265 11.5531 18.8671L11.1875 18.7124V18.9468C11.1875 19.7718 11.6234 20.7702 12.2844 21.4593C12.7719 21.9702 13.25 22.2749 13.9297 22.4999L14.3047 22.6265L13.9015 22.6874C13.6672 22.7202 13.2969 22.739 13.0203 22.7249C12.4625 22.6968 12.4765 22.6546 12.814 23.3015C13.1797 23.9999 13.7797 24.6046 14.4687 24.9562C14.9703 25.214 15.2328 25.2984 15.7531 25.3734L16.1703 25.4343L15.9875 25.5796C15.889 25.6593 15.664 25.8093 15.4906 25.9171C14.1312 26.7421 12.6172 27.1405 11.0281 27.0843C10.3344 27.0562 10.3344 27.0609 11.0234 27.4312C13.3812 28.6968 15.9265 29.1046 18.5703 28.6359C22.5687 27.928 25.7469 25.078 27.0547 21.0421C27.4062 19.9546 27.5937 18.8062 27.5937 17.7421V17.1187L27.8656 16.9171C28.3672 16.5374 29.15 15.703 29.4922 15.1734L29.5765 15.0468L29.3562 15.1405C28.8781 15.3421 27.4906 15.7077 27.4297 15.6468C27.4203 15.6374 27.5609 15.5155 27.7437 15.3749C28.264 14.9765 28.7609 14.2968 28.9765 13.6827L29.0375 13.5093L28.4703 13.7812C27.9359 14.039 27.2937 14.2687 26.7875 14.3952L26.5625 14.4468L26.3187 14.2265C25.8265 13.7812 25.2312 13.4671 24.5797 13.3124C24.1344 13.2046 23.2812 13.1905 22.8594 13.2843Z" fill="black"/>
</svg>
