<svg width="666" height="721" viewBox="0 0 666 721" fill="none" xmlns="http://www.w3.org/2000/svg">
<g clip-path="url(#clip0_50_10236)">
<path d="M84.5652 567.254C105.046 567.125 121.589 557.454 121.515 545.653C121.44 533.852 104.777 524.39 84.2962 524.518C63.8152 524.646 47.2723 534.317 47.3466 546.118C47.4209 557.92 64.0843 567.382 84.5652 567.254Z" fill="#E5EDF7"/>
<path d="M83.8931 551.657C64.4596 551.657 48.7106 542.5 48.7106 531.209V540.974C48.7106 541.067 48.7106 541.162 48.7106 541.255C48.7106 552.543 64.4767 561.703 83.8931 561.703C103.309 561.703 119.076 552.536 119.076 541.248C119.076 541.156 119.076 541.06 119.076 540.967V531.202C119.076 542.5 103.323 551.657 83.8931 551.657Z" fill="#47D8D6"/>
<path d="M83.8931 510.76C64.5418 510.76 48.8442 519.838 48.7106 531.068V531.208C48.7106 542.496 64.4767 551.657 83.8931 551.657C103.309 551.657 119.076 542.5 119.076 531.208C119.076 531.161 119.076 531.113 119.076 531.068C118.942 519.838 103.251 510.76 83.8931 510.76Z" fill="#47D8D6"/>
<path d="M83.8931 546.492C98.4174 546.492 110.192 539.649 110.192 531.208C110.192 522.768 98.4174 515.925 83.8931 515.925C69.3687 515.925 57.5944 522.768 57.5944 531.208C57.5944 539.649 69.3687 546.492 83.8931 546.492Z" fill="#47D8D6"/>
<path d="M83.8931 517.564C97.9455 517.564 109.383 523.971 110.12 532.029C110.144 531.756 110.192 531.486 110.192 531.208C110.192 522.766 98.4151 515.922 83.8931 515.922C69.3711 515.922 57.591 522.763 57.591 531.208C57.591 531.486 57.639 531.756 57.663 532.029C58.3999 523.971 69.844 517.564 83.8931 517.564Z" fill="#47D8D6"/>
<path d="M85.9221 526.41C85.2709 526.533 84.5923 526.687 83.8931 526.875C83.2864 527.025 82.6421 527.217 81.9498 527.439C81.2574 527.661 80.5993 527.915 79.9687 528.188L82.0834 529.406C82.2925 529.32 82.5221 529.238 82.7689 529.156C83.0156 529.074 83.2796 528.985 83.5435 528.886C84.7431 528.466 85.8729 528.113 86.9332 527.826C87.914 527.557 88.9145 527.364 89.9254 527.251C90.8134 527.153 91.7107 527.179 92.5918 527.326C93.4517 527.478 94.2779 527.78 95.0322 528.219C95.9462 528.753 96.5311 529.323 96.787 529.929C97.0304 530.519 97.0304 531.18 96.787 531.77C96.4839 532.471 96.034 533.1 95.4675 533.613C94.7782 534.263 94.0275 534.845 93.2259 535.351L96.0673 536.986L93.7058 538.354L90.8165 536.692C89.2994 537.446 87.7357 538.103 86.1346 538.659C84.5507 539.219 82.9318 539.676 81.2882 540.027L79.7527 536.285C80.5513 536.131 81.3704 535.943 82.217 535.731C82.9345 535.553 83.7342 535.325 84.6162 535.046C85.4662 534.779 86.2984 534.458 87.108 534.085L85.0515 532.895C84.3146 533.175 83.5538 533.439 82.7723 533.692C81.5967 534.082 80.5273 534.376 79.5711 534.605C78.7033 534.81 77.819 534.939 76.9285 534.988C76.1861 535.032 75.4413 534.974 74.7144 534.817C74.0358 534.665 73.3841 534.411 72.7814 534.065C72.0693 533.705 71.4748 533.149 71.0677 532.464C70.7757 531.912 70.6929 531.273 70.8346 530.665C71.0193 529.963 71.3721 529.316 71.8628 528.78C72.4683 528.084 73.1659 527.473 73.9364 526.964L71.5646 525.595L73.9261 524.227L76.3253 525.595C77.0382 525.253 77.7614 524.946 78.4983 524.668C79.2352 524.391 79.9652 524.135 80.6884 523.906C81.4116 523.676 82.1142 523.471 82.786 523.29L84.6505 522.801L85.9221 526.41ZM77.9808 530.172C78.2479 530.313 78.5515 530.369 78.8513 530.333C79.2914 530.286 79.7255 530.194 80.1469 530.059L78.3646 529.033C77.6563 529.53 77.5283 529.91 77.9808 530.172ZM89.2913 532.053C89.0027 531.915 88.6781 531.87 88.3624 531.923C87.8975 531.98 87.4386 532.078 86.9915 532.218L88.7291 533.22C89.0454 533.054 89.3116 532.808 89.5003 532.505C89.5174 532.461 89.5252 532.414 89.5231 532.366C89.521 532.319 89.5091 532.273 89.4882 532.23C89.4672 532.188 89.4377 532.15 89.4015 532.12C89.3652 532.089 89.323 532.067 89.2775 532.053H89.2913Z" fill="#47D8D6"/>
<path d="M85.9221 525.534C85.2709 525.657 84.5923 525.811 83.8931 525.999C83.2864 526.15 82.6421 526.341 81.9498 526.564C81.2574 526.786 80.5993 527.039 79.9687 527.313L82.0834 528.53C82.2925 528.445 82.5221 528.363 82.7689 528.281C83.0156 528.199 83.2796 528.11 83.5435 528.011C84.7431 527.589 85.8729 527.235 86.9332 526.95C87.9137 526.68 88.9143 526.489 89.9254 526.379C90.8132 526.278 91.7107 526.303 92.5918 526.451C93.4518 526.604 94.278 526.907 95.0322 527.347C95.9542 527.877 96.5402 528.448 96.787 529.057C97.0304 529.647 97.0304 530.308 96.787 530.897C96.4847 531.599 96.0348 532.228 95.4675 532.741C94.7782 533.391 94.0275 533.973 93.2259 534.479L96.0673 536.117L93.7058 537.485L90.8165 535.82C89.3001 536.576 87.7362 537.233 86.1346 537.786C84.5512 538.349 82.9322 538.806 81.2882 539.155L79.7527 535.413C80.5513 535.259 81.3704 535.071 82.217 534.858C82.9345 534.681 83.7342 534.453 84.6162 534.174C85.4657 533.904 86.2979 533.582 87.108 533.21L85.0515 532.019C84.3158 532.3 83.556 532.566 82.7723 532.816C81.5967 533.206 80.5273 533.501 79.5711 533.73C78.7033 533.935 77.819 534.063 76.9285 534.113C76.1861 534.156 75.4413 534.099 74.7144 533.942C74.0353 533.791 73.3834 533.537 72.7814 533.189C72.0686 532.83 71.4739 532.274 71.0677 531.588C70.7757 531.036 70.6929 530.397 70.8346 529.789C71.0193 529.087 71.3721 528.44 71.8628 527.904C72.4683 527.208 73.1659 526.597 73.9364 526.088L71.5646 524.72L73.9261 523.352L76.3253 524.72C77.0382 524.382 77.7626 524.073 78.4983 523.793C79.2318 523.512 79.9652 523.259 80.6884 523.03C81.4116 522.801 82.1142 522.596 82.786 522.418C83.4578 522.24 84.0816 522.076 84.6505 521.925L85.9221 525.534ZM77.9808 529.297C78.2473 529.439 78.5515 529.495 78.8513 529.457C79.2916 529.412 79.7259 529.32 80.1469 529.184L78.3646 528.158C77.6563 528.657 77.5283 529.037 77.9808 529.297ZM89.2913 531.178C89.0027 531.039 88.6777 530.995 88.3624 531.051C87.8972 531.106 87.4382 531.205 86.9915 531.346L88.7291 532.344C89.0443 532.179 89.3103 531.933 89.5003 531.633C89.518 531.589 89.5262 531.541 89.5244 531.493C89.5226 531.446 89.5108 531.399 89.4898 531.356C89.4689 531.313 89.4391 531.275 89.4026 531.245C89.366 531.214 89.3234 531.191 89.2775 531.178H89.2913Z" fill="#47D8D6"/>
<path d="M217.781 338.309C240.123 338.168 258.169 327.62 258.088 314.748C258.007 301.875 239.829 291.554 217.488 291.694C195.146 291.834 177.1 302.383 177.181 315.255C177.262 328.127 195.44 338.449 217.781 338.309Z" fill="#E5EDF7"/>
<path d="M183.192 304.79C182.746 304.23 182.335 303.643 181.962 303.032C181.441 302.176 181.016 301.265 180.694 300.316C180.291 299.12 180.086 297.867 180.087 296.605L180.036 313.978C180.036 318.948 183.309 323.922 189.886 327.715L189.938 310.342C187.366 308.922 185.079 307.04 183.192 304.79Z" fill="#E5EDF7"/>
<path d="M189.938 310.345L189.886 327.715L213.402 314.077L236.921 300.44L236.965 283.066L213.45 296.704L189.938 310.345Z" fill="#47D8D6"/>
<path d="M180.087 296.704C180.087 296.622 180.087 296.54 180.087 296.458C180.005 301.476 183.288 306.514 189.934 310.342L213.446 296.704H180.087Z" fill="white"/>
<path d="M236.965 283.066C231.382 279.848 224.328 278.007 217.066 277.539C224.325 278.007 231.379 279.851 236.945 283.066H236.965Z" fill="#47D8D6"/>
<path d="M236.962 283.066C231.379 279.851 224.325 278.007 217.083 277.539C211.681 277.176 206.255 277.597 200.974 278.787C197.05 279.651 193.277 281.095 189.78 283.07C188.271 283.932 186.851 284.94 185.54 286.08C185.235 286.35 184.947 286.62 184.67 286.884C184.618 286.935 184.57 286.986 184.519 287.034L184.33 287.226C184.272 287.284 184.217 287.346 184.162 287.404C184.108 287.462 184.029 287.544 183.964 287.616C183.898 287.688 183.823 287.766 183.758 287.845L183.549 288.081L183.405 288.249L183.223 288.474L183.103 288.618L182.846 288.96C182.805 289.011 182.767 289.066 182.73 289.117L182.562 289.35L182.456 289.5C182.377 289.613 182.301 289.73 182.226 289.843L182.13 289.993L181.979 290.232L181.887 290.39C181.818 290.506 181.749 290.622 181.684 290.732C181.657 290.78 181.633 290.828 181.609 290.876C181.585 290.923 181.52 291.04 181.479 291.122C181.438 291.204 181.42 291.231 181.393 291.286C181.366 291.341 181.3 291.478 181.256 291.573C181.211 291.669 181.191 291.71 181.16 291.779C181.129 291.847 181.088 291.943 181.054 292.025C181.019 292.107 181.002 292.145 180.978 292.206L180.886 292.435L180.79 292.692L180.704 292.938C180.684 293.003 180.663 293.068 180.639 293.137C180.615 293.205 180.601 293.267 180.581 293.331C180.56 293.396 180.522 293.523 180.498 293.619C180.474 293.715 180.454 293.78 180.433 293.858L180.382 294.077C180.382 294.132 180.358 294.187 180.344 294.241C180.33 294.296 180.313 294.395 180.296 294.471C180.298 294.498 180.298 294.525 180.296 294.553C180.265 294.71 180.241 294.871 180.217 295.032C180.217 295.076 180.217 295.12 180.2 295.168C180.183 295.216 180.176 295.333 180.169 295.418V295.504C180.169 295.664 180.142 295.846 180.132 295.989C180.132 296.027 180.132 296.065 180.132 296.102V296.366V296.458C180.132 296.54 180.132 296.622 180.132 296.704H213.494L219.293 293.342L237.01 283.08L236.962 283.066Z" fill="#105244"/>
<path d="M256.039 281.969L255.987 312.35C255.987 315.305 254.764 318.295 252.289 321.124L252.337 290.742C254.815 287.917 256.029 284.924 256.039 281.969Z" fill="#105244"/>
<mask id="mask0_50_10236" style="mask-type:luminance" maskUnits="userSpaceOnUse" x="252" y="281" width="5" height="41">
<path d="M256.039 281.969L255.987 312.35C255.987 315.305 254.764 318.295 252.289 321.124L252.337 290.742C254.815 287.917 256.029 284.924 256.039 281.969Z" fill="white"/>
</mask>
<g mask="url(#mask0_50_10236)">
<path d="M255.819 284.117C255.693 284.748 255.514 285.369 255.285 285.971C255.036 286.636 254.733 287.28 254.38 287.897C253.966 288.628 253.495 289.325 252.971 289.983C252.773 290.236 252.56 290.489 252.337 290.746L252.289 321.127C252.512 320.874 252.721 320.618 252.923 320.365C253.446 319.706 253.917 319.009 254.332 318.278C254.682 317.663 254.983 317.021 255.233 316.359C255.462 315.755 255.641 315.134 255.772 314.502C255.895 313.889 255.966 313.266 255.984 312.641C255.984 312.545 255.984 312.453 255.984 312.354L256.035 281.972C256.035 282.065 256.035 282.16 256.035 282.256C256.016 282.881 255.944 283.504 255.819 284.117Z" fill="#105244"/>
</g>
<path d="M246.079 268.348L222.56 281.989L252.337 290.746C258.986 283.152 256.536 274.375 246.079 268.348Z" fill="#105244"/>
<path d="M222.512 312.374L252.289 321.127L252.341 290.746L222.563 281.989L222.512 312.374Z" fill="#105244"/>
<path d="M242.178 306.559C241.997 306.733 241.815 306.901 241.627 307.086C241.438 307.27 241.284 307.387 241.109 307.534C240.934 307.681 240.825 307.783 240.674 307.907C240.523 308.03 240.304 308.197 240.115 308.344C239.927 308.492 239.817 308.577 239.659 308.687C239.502 308.796 239.255 308.974 239.053 309.114C238.85 309.254 238.744 309.333 238.587 309.456C238.367 309.6 238.141 309.737 237.901 309.877C237.743 309.973 237.593 310.075 237.431 310.168C237.373 310.205 237.311 310.239 237.253 310.27C236.965 310.441 236.671 310.612 236.376 310.77L236.033 310.948C235.762 311.091 235.485 311.231 235.207 311.372C235.108 311.42 235.012 311.471 234.912 311.515C234.542 311.697 234.162 311.857 233.781 312.042L233.576 312.131C233.253 312.271 232.928 312.408 232.599 312.538L232.229 312.685C231.924 312.805 231.622 312.918 231.31 313.027L230.988 313.15C230.583 313.291 230.172 313.431 229.757 313.564C229.271 313.718 228.777 313.872 228.28 314.012C228.252 314.023 228.224 314.031 228.195 314.036C227.718 314.173 227.242 314.3 226.762 314.419L226.237 314.539C225.895 314.621 225.552 314.703 225.209 314.779C225.004 314.826 224.791 314.864 224.585 314.909C224.267 314.97 223.951 315.035 223.633 315.093C223.461 315.127 223.29 315.151 223.119 315.182C222.63 315.269 222.136 315.348 221.638 315.418L221.096 315.497C220.455 315.582 219.811 315.661 219.163 315.726H218.975C218.464 315.774 217.947 315.815 217.446 315.849C217.251 315.849 217.052 315.873 216.857 315.887C216.476 315.911 216.092 315.928 215.708 315.945L214.968 315.966H214.074H213.309H212.415L211.616 315.942L210.804 315.911C210.536 315.911 210.266 315.883 209.995 315.863C209.724 315.842 209.453 315.832 209.183 315.808C208.912 315.784 208.641 315.767 208.37 315.743L207.568 315.665L206.759 315.576L205.961 315.473L205.173 315.357C204.885 315.319 204.6 315.271 204.316 315.223C204.031 315.175 203.802 315.134 203.541 315.09L202.691 314.926C202.444 314.881 202.201 314.826 201.958 314.775L200.953 314.549L200.268 314.385L199.24 314.112C198.952 314.033 198.657 313.958 198.369 313.872L197.265 313.53L196.923 313.421C196.676 313.339 196.433 313.26 196.193 313.174L195.823 313.044C195.596 312.962 195.373 312.884 195.154 312.798L194.811 312.665C194.657 312.61 194.51 312.548 194.359 312.487C194.112 312.384 193.865 312.288 193.619 312.182L193.187 311.991C192.95 311.885 192.714 311.779 192.481 311.666C192.344 311.604 192.21 311.536 192.073 311.471C191.823 311.351 191.576 311.225 191.329 311.095C191.216 311.036 191.096 310.978 190.986 310.917C190.644 310.725 190.27 310.53 189.91 310.322L189.859 327.695C190.219 327.903 190.579 328.102 190.935 328.29L191.278 328.468C191.525 328.598 191.775 328.721 192.021 328.844L192.433 329.039L193.139 329.364L193.571 329.555L194.311 329.86L194.592 329.976C194.647 330 194.705 330.017 194.763 330.038C194.877 330.086 194.996 330.127 195.106 330.171C195.326 330.257 195.548 330.335 195.775 330.417C195.894 330.458 196.018 330.506 196.145 330.547C196.385 330.633 196.628 330.712 196.875 330.794L197.217 330.9C197.577 331.016 197.941 331.129 198.321 331.242L198.729 331.358L199.192 331.485L200.22 331.748L200.905 331.916L201.906 332.145C202.03 332.169 202.15 332.2 202.249 332.227L202.626 332.295L203.476 332.456L204.247 332.593L205.104 332.726L205.556 332.798L205.899 332.843L206.698 332.942C206.967 332.976 207.238 333.007 207.51 333.034L208.309 333.113C208.466 333.113 208.62 333.144 208.775 333.154C208.929 333.164 209.008 333.154 209.117 333.178C209.388 333.202 209.656 333.219 209.93 333.233C210.204 333.246 210.468 333.267 210.739 333.28L211.551 333.311C211.709 333.311 211.863 333.311 212.017 333.332H212.36H213.254H214.019C214.32 333.332 214.619 333.325 214.913 333.311H215.421C215.499 333.311 215.575 333.311 215.654 333.311L216.805 333.253C217.001 333.253 217.196 333.233 217.391 333.215C217.905 333.181 218.42 333.14 218.923 333.092C218.978 333.092 219.036 333.092 219.095 333.092H219.112C219.76 333.027 220.404 332.949 221.045 332.863L221.586 332.785C222.083 332.709 222.577 332.631 223.067 332.545L223.41 332.494L223.592 332.46L224.544 332.271L225.172 332.145C225.514 332.07 225.857 331.987 226.2 331.905L226.721 331.786C227.204 331.663 227.684 331.536 228.157 331.403L228.239 331.379C228.739 331.238 229.233 331.084 229.72 330.931C229.736 330.922 229.753 330.917 229.771 330.913C230.169 330.783 230.559 330.653 230.947 330.51C231.056 330.476 231.163 330.435 231.29 330.393C231.598 330.281 231.903 330.168 232.205 330.051L232.575 329.904C232.918 329.774 233.229 329.638 233.552 329.497L233.757 329.408C234.141 329.237 234.518 329.066 234.888 328.882L235.183 328.738C235.464 328.598 235.738 328.457 236.009 328.314L236.352 328.136C236.65 327.972 236.941 327.794 237.233 327.637C237.291 327.606 237.353 327.572 237.411 327.534L237.459 327.503L237.88 327.243C238.103 327.099 238.329 326.966 238.545 326.819C238.706 326.713 238.857 326.607 239.012 326.497C239.166 326.388 239.423 326.214 239.622 326.07C239.82 325.926 239.923 325.841 240.074 325.728C240.225 325.615 240.451 325.441 240.633 325.293C240.814 325.146 240.927 325.047 241.068 324.921L241.589 324.472L241.678 324.39C241.839 324.247 241.986 324.093 242.141 323.946C242.23 323.853 242.326 323.768 242.415 323.676C242.682 323.405 242.943 323.128 243.19 322.848L243.237 305.475C242.991 305.755 242.73 306.032 242.463 306.302C242.367 306.381 242.271 306.47 242.178 306.559Z" fill="#47D8D6"/>
<path d="M189.938 310.359C192.6 311.887 195.443 313.078 198.4 313.906C214.852 318.743 234.916 314.97 243.227 305.478L213.45 296.721L189.938 310.359Z" fill="#47D8D6"/>
<path d="M91.5156 476.401C88.64 478.06 88.6263 480.742 91.4779 482.397L370.566 644.262C373.425 645.918 378.065 645.918 380.941 644.262L559.28 541.505C562.152 539.849 562.173 537.16 559.314 535.505L280.226 373.64C277.375 371.981 272.727 371.984 269.855 373.64L91.5156 476.401Z" fill="#E5EDF7"/>
<path d="M561.71 521.802C561.71 522.897 560.991 523.991 559.544 524.826L381.215 627.583C378.336 629.239 373.696 629.239 370.837 627.583L91.7521 465.718C90.3332 464.897 89.6237 463.82 89.6203 462.742L89.6477 472.597C89.6477 473.675 90.3606 474.752 91.7796 475.573L370.865 637.438C373.723 639.094 378.364 639.094 381.243 637.438L559.582 534.681C561.025 533.846 561.748 532.751 561.748 531.66L561.71 521.802Z" fill="#E5EDF7"/>
<path d="M91.783 459.722C88.904 461.381 88.8902 464.063 91.7453 465.718L370.83 627.583C373.689 629.239 378.329 629.239 381.208 627.583L559.544 524.829C562.42 523.173 562.437 520.485 559.578 518.829L280.494 356.968C277.639 355.309 272.994 355.312 270.122 356.968L91.783 459.722Z" fill="white"/>
<path d="M264.937 381.346L280.459 390.349L296.071 381.357L280.548 372.354L264.937 381.346Z" fill="#E5EDF7"/>
<path d="M284.425 392.651L299.944 401.651L315.556 392.658L300.033 383.655L284.425 392.651Z" fill="#E5EDF7"/>
<path d="M303.91 403.949L319.432 412.952L335.044 403.956L319.522 394.957L303.91 403.949Z" fill="#E5EDF7"/>
<path d="M323.412 415.261L338.921 424.254L354.529 415.261L339.02 406.265L323.412 415.261Z" fill="#E5EDF7"/>
<path d="M342.897 426.563L358.406 435.559L374.018 426.563L358.509 417.57L342.897 426.563Z" fill="#E5EDF7"/>
<path d="M362.385 437.865L377.908 446.867L393.516 437.871L377.993 428.868L362.385 437.865Z" fill="#E5EDF7"/>
<path d="M381.87 449.166L397.393 458.169L413.005 449.173L397.482 440.17L381.87 449.166Z" fill="#E5EDF7"/>
<path d="M401.358 460.468L416.881 469.471L432.49 460.474L416.967 451.475L401.358 460.468Z" fill="#E5EDF7"/>
<path d="M420.843 471.769L436.366 480.772L451.978 471.78L436.455 462.777L420.843 471.769Z" fill="#E5EDF7"/>
<path d="M440.345 483.078L455.854 492.074L471.466 483.078L455.957 474.085L440.345 483.078Z" fill="#E5EDF7"/>
<path d="M459.833 494.383L475.343 503.379L490.951 494.383L475.442 485.387L459.833 494.383Z" fill="#E5EDF7"/>
<path d="M479.318 505.684L494.827 514.68L510.439 505.684L494.93 496.688L479.318 505.684Z" fill="#E5EDF7"/>
<path d="M498.807 516.986L514.33 525.989L529.938 516.993L514.415 507.99L498.807 516.986Z" fill="#E5EDF7"/>
<path d="M246.302 393.093L277.882 411.41L293.49 402.414L261.91 384.096L246.302 393.093Z" fill="#E5EDF7"/>
<path d="M281.402 413.452L296.925 422.455L312.537 413.459L297.014 404.456L281.402 413.452Z" fill="#E5EDF7"/>
<path d="M299.992 424.233L315.515 433.236L331.127 424.24L315.604 415.237L299.992 424.233Z" fill="#E5EDF7"/>
<path d="M318.583 435.015L334.105 444.018L349.717 435.022L334.194 426.019L318.583 435.015Z" fill="#E5EDF7"/>
<path d="M337.187 445.804L352.696 454.796L368.304 445.804L352.795 436.808L337.187 445.804Z" fill="#E5EDF7"/>
<path d="M355.773 456.585L371.283 465.581L386.894 456.585L371.385 447.589L355.773 456.585Z" fill="#E5EDF7"/>
<path d="M374.364 467.367L389.873 476.36L405.485 467.367L389.976 458.371L374.364 467.367Z" fill="#E5EDF7"/>
<path d="M392.954 478.148L408.477 487.151L424.086 478.155L408.566 469.152L392.954 478.148Z" fill="#E5EDF7"/>
<path d="M411.545 488.93L427.067 497.93L442.676 488.937L427.156 479.934L411.545 488.93Z" fill="#E5EDF7"/>
<path d="M430.135 499.712L445.654 508.715L461.266 499.719L445.743 490.716L430.135 499.712Z" fill="#E5EDF7"/>
<path d="M448.722 510.494L464.245 519.493L479.857 510.5L464.334 501.498L448.722 510.494Z" fill="#E5EDF7"/>
<path d="M467.497 521.381L494.9 537.273L510.511 528.281L483.113 512.385L467.497 521.381Z" fill="#E5EDF7"/>
<path d="M226.779 404.339L266.115 427.151L281.741 418.152L242.405 395.336L226.779 404.339Z" fill="#E5EDF7"/>
<path d="M269.639 429.197L285.162 438.2L300.784 429.197L285.261 420.194L269.639 429.197Z" fill="#E5EDF7"/>
<path d="M287.972 439.828L303.481 448.824L319.107 439.821L303.598 430.825L287.972 439.828Z" fill="#E5EDF7"/>
<path d="M306.295 450.456L321.804 459.452L337.43 450.449L321.921 441.453L306.295 450.456Z" fill="#E5EDF7"/>
<path d="M324.618 461.083L340.127 470.076L355.749 461.073L340.24 452.08L324.618 461.083Z" fill="#E5EDF7"/>
<path d="M342.938 471.708L358.447 480.704L374.072 471.701L358.563 462.705L342.938 471.708Z" fill="#E5EDF7"/>
<path d="M361.261 482.335L376.77 491.328L392.395 482.329L376.883 473.333L361.261 482.335Z" fill="#E5EDF7"/>
<path d="M379.58 492.96L395.09 501.956L410.715 492.953L395.206 483.957L379.58 492.96Z" fill="#E5EDF7"/>
<path d="M397.903 503.584L413.426 512.587L429.048 503.584L413.529 494.584L397.903 503.584Z" fill="#E5EDF7"/>
<path d="M416.226 514.212L431.746 523.215L447.371 514.212L431.849 505.209L416.226 514.212Z" fill="#E5EDF7"/>
<path d="M435.831 525.582L475.384 548.52L491.006 539.52L451.457 516.582L435.831 525.582Z" fill="#E5EDF7"/>
<path d="M187.768 426.82L207.441 438.231L227.245 426.82L236.15 431.985L251.477 423.153L222.899 406.577L187.768 426.82Z" fill="#E5EDF7"/>
<path d="M239.416 434.222L254.928 443.214L270.551 434.215L255.042 425.219L239.416 434.222Z" fill="#E5EDF7"/>
<path d="M211.338 440.488L226.861 449.491L242.487 440.488L226.964 431.489L211.338 440.488Z" fill="#E5EDF7"/>
<path d="M167.574 438.453L206.91 461.268L222.532 452.265L183.196 429.45L167.574 438.453Z" fill="#E5EDF7"/>
<path d="M257.914 444.948L273.423 453.941L289.045 444.942L273.536 435.946L257.914 444.948Z" fill="#E5EDF7"/>
<path d="M276.408 455.675L291.931 464.678L307.557 455.675L292.03 446.672L276.408 455.675Z" fill="#E5EDF7"/>
<path d="M294.906 466.402L310.425 475.405L326.051 466.402L310.528 457.399L294.906 466.402Z" fill="#E5EDF7"/>
<path d="M313.4 477.129L328.923 486.132L344.545 477.129L329.022 468.126L313.4 477.129Z" fill="#E5EDF7"/>
<path d="M331.895 487.856L347.421 496.859L363.043 487.856L347.52 478.853L331.895 487.856Z" fill="#E5EDF7"/>
<path d="M350.406 498.59L365.915 507.586L381.537 498.583L366.028 489.59L350.406 498.59Z" fill="#E5EDF7"/>
<path d="M368.901 509.317L384.41 518.313L400.035 509.31L384.526 500.317L368.901 509.317Z" fill="#E5EDF7"/>
<path d="M387.398 520.047L402.921 529.05L418.543 520.047L403.021 511.044L387.398 520.047Z" fill="#E5EDF7"/>
<path d="M405.893 530.774L421.416 539.773L437.041 530.774L421.518 521.771L405.893 530.774Z" fill="#E5EDF7"/>
<path d="M425.22 541.98L455.875 559.764L471.5 550.761L440.842 532.98L425.22 541.98Z" fill="#E5EDF7"/>
<path d="M229.833 451.218L245.359 460.221L260.981 451.218L245.458 442.215L229.833 451.218Z" fill="#E5EDF7"/>
<path d="M248.344 461.952L263.853 470.945L279.476 461.942L263.967 452.949L248.344 461.952Z" fill="#E5EDF7"/>
<path d="M266.839 472.679L282.348 481.675L297.973 472.672L282.464 463.676L266.839 472.679Z" fill="#E5EDF7"/>
<path d="M285.337 483.406L300.859 492.409L316.482 483.406L300.959 474.403L285.337 483.406Z" fill="#E5EDF7"/>
<path d="M303.831 494.133L319.354 503.136L334.979 494.133L319.457 485.13L303.831 494.133Z" fill="#E5EDF7"/>
<path d="M322.325 504.86L337.848 513.863L353.474 504.86L337.951 495.857L322.325 504.86Z" fill="#E5EDF7"/>
<path d="M340.823 515.587L356.346 524.59L371.968 515.587L356.449 506.584L340.823 515.587Z" fill="#E5EDF7"/>
<path d="M359.331 526.32L374.84 535.316L390.466 526.314L374.957 517.321L359.331 526.32Z" fill="#E5EDF7"/>
<path d="M377.829 537.047L393.338 546.043L408.96 537.041L393.451 528.048L377.829 537.047Z" fill="#E5EDF7"/>
<path d="M396.82 548.062L436.369 571L451.992 561.997L412.442 539.062L396.82 548.062Z" fill="#E5EDF7"/>
<path d="M210.444 463.317L225.967 472.32L241.592 463.317L226.069 454.314L210.444 463.317Z" fill="#E5EDF7"/>
<path d="M228.805 473.969L244.331 482.968L259.953 473.969L244.43 464.966L228.805 473.969Z" fill="#E5EDF7"/>
<path d="M247.169 484.617L262.678 493.613L278.3 484.61L262.791 475.614L247.169 484.617Z" fill="#E5EDF7"/>
<path d="M265.516 495.258L281.039 504.261L296.664 495.258L281.141 486.255L265.516 495.258Z" fill="#E5EDF7"/>
<path d="M283.811 505.869L354.231 546.711L369.857 537.711L299.433 496.866L283.811 505.869Z" fill="#E5EDF7"/>
<path d="M357.902 548.838L373.425 557.841L389.047 548.838L373.524 539.835L357.902 548.838Z" fill="#E5EDF7"/>
<path d="M376.626 559.698L416.175 582.637L431.801 573.634L392.248 550.695L376.626 559.698Z" fill="#E5EDF7"/>
<path d="M560.874 242.594L295.728 88.364C288.743 84.3004 273.107 88.9763 273.107 100.244L279.99 348.376L556.463 517.01C561.635 520.164 568.63 517.352 569.703 511.4C569.852 510.573 569.927 509.734 569.926 508.893V258.281C569.924 255.105 569.087 251.984 567.498 249.232C565.91 246.479 563.626 244.19 560.874 242.594Z" fill="#E5EDF7"/>
<path d="M553.796 246.778L288.778 92.626C287.185 91.6968 285.375 91.2036 283.53 91.1964C281.686 91.1891 279.872 91.668 278.272 92.5846C276.673 93.5012 275.344 94.8231 274.42 96.4166C273.496 98.0101 273.01 99.8188 273.011 101.66V349.727C273.011 350.612 273.244 351.482 273.686 352.25C274.128 353.017 274.764 353.656 275.531 354.102L555.328 516.842C556.099 517.291 556.975 517.529 557.867 517.532C558.76 517.535 559.637 517.304 560.411 516.86C561.185 516.417 561.828 515.777 562.275 515.007C562.722 514.236 562.958 513.361 562.958 512.471V262.687C562.958 259.467 562.112 256.303 560.505 253.512C558.897 250.72 556.584 248.398 553.796 246.778Z" fill="#105244"/>
<path d="M286.783 344.698L434.563 430.671L448.352 438.696L549.193 497.376V261.168L286.783 108.473V344.698Z" fill="white"/>
<path d="M312.794 309.494L304.05 304.455V333.431L312.794 338.47V309.494Z" fill="#47D8D6"/>
<path d="M329.831 299.116L321.088 294.081V343.248L329.831 348.286V299.116Z" fill="#47D8D6"/>
<path d="M347.037 293.814L338.294 288.775V353.164L347.037 358.199V293.814Z" fill="#105244"/>
<path d="M364.078 286.07L355.335 281.031V362.981L364.078 368.02V286.07Z" fill="#105244"/>
<path d="M379.786 302.17V306.72L532.025 394.252V389.699L379.786 302.17Z" fill="#E5EDF7"/>
<path d="M379.786 335.863V340.532L532.025 428.058V423.392L379.786 335.863Z" fill="#E5EDF7"/>
<path d="M379.786 324.045V328.652L532.025 416.178V411.574L379.786 324.045Z" fill="#E5EDF7"/>
<path d="M379.786 313.318V317.864L532.025 405.393V400.847L379.786 313.318Z" fill="#E5EDF7"/>
<path d="M379.786 372.607V377.272L532.025 464.801V460.136L379.786 372.607Z" fill="#E5EDF7"/>
<path d="M379.786 360.583V365.188L532.025 452.717V448.113L379.786 360.583Z" fill="#E5EDF7"/>
<path d="M379.786 347.996V352.545L532.025 440.074V435.525L379.786 347.996Z" fill="#E5EDF7"/>
<path d="M409.927 308.403L379.786 290.817V295.367L409.927 312.948V308.403Z" fill="#E5EDF7"/>
<path d="M304.976 144.697L404.193 201.869V286.723L304.976 229.555V144.697Z" stroke="#E5EDF7" stroke-width="6" stroke-miterlimit="10"/>
<path d="M304.976 208.341L404.193 265.512" stroke="#E5EDF7" stroke-width="6" stroke-miterlimit="10"/>
<path d="M304.976 187.126L404.193 244.298" stroke="#E5EDF7" stroke-width="6" stroke-miterlimit="10"/>
<path d="M304.976 165.912L404.193 223.083" stroke="#E5EDF7" stroke-width="6" stroke-miterlimit="10"/>
<path d="M379.388 187.578V272.432" stroke="#E5EDF7" stroke-width="6" stroke-miterlimit="10"/>
<path d="M354.584 173.283V258.141" stroke="#E5EDF7" stroke-width="6" stroke-miterlimit="10"/>
<path d="M329.78 158.992V243.846" stroke="#E5EDF7" stroke-width="6" stroke-miterlimit="10"/>
<path d="M404.179 201.865C398.274 221.219 392.159 224.209 385.455 222.796C374.984 220.586 368.112 206.459 358.721 207.102C347.027 207.903 348.83 225.402 337.564 223.846C327.326 222.433 324.433 213.776 314.785 212.216C307.385 211.012 306.518 218.486 304.979 229.565" stroke="#E5EDF7" stroke-width="6" stroke-miterlimit="10"/>
<path d="M470.949 325.174C454.363 315.617 440.918 292.49 440.918 273.523C440.918 254.556 454.363 246.914 470.949 256.472V239.464C446.151 225.177 426.049 236.591 426.049 264.958C426.049 293.325 446.148 327.897 470.949 342.184C495.75 356.472 515.848 345.058 515.848 316.694L500.983 308.143C500.976 327.093 487.531 334.727 470.949 325.174Z" fill="#105244"/>
<path d="M470.949 239.458V256.465C487.531 266.018 500.976 289.148 500.976 308.115L515.841 316.667C515.841 288.32 495.743 253.742 470.949 239.458Z" fill="#47D8D6"/>
<path d="M475.624 292.415C474.987 291.327 473.943 290.535 472.722 290.215C471.501 289.894 470.203 290.07 469.112 290.704L402.654 329.08C402.331 329.273 402.032 329.502 401.763 329.764L379.073 329.46L353.57 344.349L375.927 350.192L370.076 372.504L395.58 357.618L406.427 337.724C406.787 337.617 407.132 337.468 407.456 337.279L473.913 298.904C475.002 298.269 475.793 297.229 476.114 296.012C476.434 294.796 476.258 293.502 475.624 292.415Z" fill="#47D8D6"/>
<path d="M206.074 518.033C206.478 518.615 207.015 519.093 207.64 519.428L262.791 551.198C265.533 552.775 269.951 552.775 272.683 551.198L298.409 536.381C299.026 536.047 299.56 535.579 299.972 535.012C300.959 533.565 300.431 531.855 298.409 530.692L243.255 498.908C240.513 497.348 236.095 497.348 233.38 498.908L207.64 513.74C205.642 514.91 205.114 516.586 206.074 518.033Z" fill="#105244"/>
<path d="M206.074 518.032C206.478 518.614 207.015 519.093 207.64 519.428L262.791 551.198C265.533 552.775 269.951 552.775 272.682 551.198L298.409 536.38C299.026 536.047 299.56 535.579 299.972 535.012C299.566 534.431 299.031 533.952 298.409 533.613L243.255 501.829C240.513 500.256 236.095 500.256 233.38 501.829L207.64 516.664C207.014 516.986 206.477 517.456 206.074 518.032Z" fill="#E5EDF7"/>
<path d="M306.617 642.514C306.617 641.306 304.904 640.328 302.803 640.328H294.662C294.332 640.329 294.003 640.298 293.679 640.236C292.892 640.13 292.176 639.726 291.681 639.107C291.397 638.669 291.087 638.238 290.748 637.814C290.186 637.109 290.389 636.285 291.341 635.738L297.096 632.43C297.833 632.006 298.206 631.452 298.21 630.894C298.213 630.337 297.847 629.765 297.096 629.334L287.712 623.95C286.877 623.529 285.954 623.309 285.018 623.309C284.082 623.309 283.159 623.529 282.324 623.95L276.525 627.282C275.452 627.827 274.218 627.963 273.053 627.665C272.227 627.463 271.339 627.258 270.561 627.084C269.354 626.813 268.57 626.146 268.57 625.404V620.684C268.57 619.473 266.856 618.495 264.755 618.495H251.494C249.39 618.495 247.683 619.473 247.683 620.684V625.356C247.683 626.129 246.812 626.793 245.551 627.067C244.753 627.238 243.967 627.426 243.193 627.631C241.986 627.965 240.699 627.843 239.577 627.289L233.802 623.991C232.307 623.14 229.894 623.143 228.41 623.991L219.057 629.393C218.262 629.854 217.898 630.467 217.96 631.069C218.015 631.585 218.382 632.095 219.074 632.488L224.901 635.81C225.816 636.333 226.076 637.123 225.586 637.804C225.243 638.279 224.88 638.792 224.582 639.237C224.239 639.764 223.468 640.15 222.556 640.308C222.26 640.357 221.959 640.382 221.658 640.383H213.433C211.328 640.383 209.628 641.368 209.631 642.575L209.662 649.324V650.193C209.662 651.401 211.376 652.379 213.484 652.375H221.624C222.971 652.375 224.13 652.871 224.606 653.597C224.894 654.03 225.207 654.46 225.545 654.886C226.107 655.57 225.908 656.415 224.956 656.962L219.211 660.277C217.724 661.132 217.731 662.517 219.211 663.373L228.609 668.746C230.1 669.598 232.513 669.598 233.997 668.746L239.789 665.408C240.861 664.866 242.093 664.73 243.258 665.025C244.087 665.227 244.972 665.432 245.75 665.603C246.96 665.87 247.745 666.537 247.748 667.282V672.003C247.748 673.214 249.462 674.192 251.566 674.188H264.83C266.935 674.188 268.638 673.203 268.635 671.992V667.32C268.635 666.547 269.502 665.88 270.763 665.61C271.524 665.445 272.272 665.266 273.008 665.073C274.235 664.751 275.675 664.867 276.627 665.415L282.392 668.715C283.228 669.136 284.152 669.356 285.088 669.356C286.024 669.356 286.948 669.136 287.784 668.715L297.151 663.321C298.635 662.466 298.635 661.081 297.151 660.243L291.324 656.918C290.412 656.395 290.152 655.604 290.659 654.924C291.502 653.785 292.373 652.43 292.418 652.348H302.816C304.856 652.348 306.511 651.424 306.614 650.268C306.614 650.231 306.614 650.193 306.614 650.155L306.617 642.514ZM276.614 648.291C276.176 649.55 275.456 650.693 274.509 651.633C270.054 656.193 260.289 658.389 251.34 656.422C247.179 655.502 243.834 653.747 241.743 651.592C239.652 649.437 238.819 646.916 239.639 644.409C239.981 643.399 240.514 642.465 241.208 641.655C245.369 636.699 255.586 634.226 264.909 636.288C269.382 637.28 272.909 639.234 274.955 641.611C276.703 643.636 277.364 645.979 276.614 648.291Z" fill="#E5EDF7"/>
<path d="M302.405 634.558H292.006C291.962 634.637 291.091 635.995 290.245 637.134C289.737 637.818 290.001 638.604 290.93 639.128L296.74 642.453C298.227 643.308 298.23 644.693 296.74 645.548L287.372 650.942C286.536 651.363 285.613 651.583 284.677 651.583C283.74 651.583 282.817 651.363 281.981 650.942L276.216 647.638C275.092 647.086 273.804 646.964 272.597 647.296C271.861 647.49 271.113 647.669 270.352 647.833C269.09 648.107 268.22 648.774 268.223 649.543V654.216C268.223 655.427 266.51 656.409 264.415 656.412H251.155C249.047 656.412 247.34 655.437 247.337 654.226V649.506C247.337 648.76 246.545 648.093 245.338 647.826C244.567 647.655 243.673 647.45 242.847 647.248C241.681 646.954 240.448 647.09 239.375 647.631L233.586 650.97C232.102 651.828 229.689 651.828 228.198 650.97L218.8 645.596C217.309 644.741 217.302 643.356 218.8 642.518L224.548 639.203C225.5 638.656 225.699 637.835 225.137 637.127C224.797 636.703 224.484 636.273 224.198 635.837C223.722 635.112 222.563 634.613 221.216 634.616H213.073C210.968 634.616 209.258 633.641 209.251 632.434V631.565C209.233 631.652 209.224 631.74 209.224 631.828L209.255 642.949C209.255 644.16 210.968 645.138 213.076 645.134H217.851L217.737 654.319C217.708 654.476 217.708 654.637 217.737 654.794C217.808 655.083 217.942 655.352 218.13 655.582C218.318 655.812 218.555 655.998 218.824 656.125L228.222 661.498C229.253 662.019 230.418 662.216 231.564 662.066L231.625 662.1V662.059C232.318 662.006 232.993 661.814 233.61 661.495L239.399 658.156C240.471 657.612 241.705 657.475 242.871 657.77C243.697 657.972 244.584 658.177 245.362 658.348C246.569 658.618 247.357 659.285 247.361 660.028V664.751C247.361 665.959 249.074 666.937 251.179 666.937H264.439C266.547 666.937 268.251 665.952 268.247 664.745V660.069C268.247 659.296 269.115 658.632 270.376 658.358C271.137 658.194 271.884 658.016 272.621 657.821C273.828 657.486 275.117 657.608 276.24 658.163L282.005 661.464C282.619 661.783 283.292 661.974 283.983 662.025V662.087L284.082 662.035C285.22 662.178 286.374 661.978 287.396 661.461L296.764 656.07C297.019 655.944 297.246 655.767 297.43 655.549C297.613 655.331 297.749 655.077 297.829 654.804L297.871 654.784V654.469L297.751 645.076H302.443C304.547 645.076 306.251 644.094 306.251 642.887V632.482C306.1 633.638 304.441 634.558 302.405 634.558Z" fill="#105244"/>
<path d="M296.681 614.671L290.927 617.978C289.974 618.526 289.772 619.347 290.334 620.055C290.67 620.479 290.98 620.909 291.266 621.344C291.759 621.966 292.476 622.372 293.264 622.476L296.691 620.513C297.377 620.12 297.72 619.617 297.785 619.104H297.847L297.805 613.135C297.792 613.692 297.418 614.246 296.681 614.671Z" fill="#105244"/>
<path d="M274.537 623.841C273.699 622.889 272.73 622.062 271.658 621.385L271.586 621.341C271.424 621.238 271.243 621.135 271.085 621.033L270.955 620.957C270.804 620.869 270.65 620.783 270.492 620.698L270.314 620.605L269.868 620.376L269.659 620.273L269.221 620.068L268.984 619.962L268.545 619.777L268.285 619.675L267.846 619.504L267.569 619.405C267.421 619.35 267.271 619.299 267.116 619.247L266.832 619.151C266.674 619.1 266.516 619.052 266.355 619.008L266.071 618.922C265.9 618.871 265.728 618.823 265.543 618.779L265.293 618.71L264.494 618.519C264.23 618.46 263.963 618.409 263.699 618.358L263.565 618.331C263.312 618.283 263.058 618.238 262.801 618.197L262.654 618.173C262.397 618.132 262.136 618.094 261.876 618.06H261.793C261.543 618.029 261.29 617.999 261.036 617.975H260.94C260.68 617.951 260.419 617.927 260.162 617.91H260.015C259.758 617.893 259.497 617.876 259.24 617.865H259.124C258.863 617.865 258.599 617.845 258.339 617.841H258.315C258.047 617.841 257.783 617.841 257.516 617.841H257.389C257.136 617.841 256.879 617.841 256.621 617.841H256.498C256.234 617.841 255.97 617.862 255.71 617.879H255.686C255.422 617.879 255.158 617.913 254.897 617.937H254.819C254.562 617.961 254.305 617.985 254.051 618.016H253.938C253.681 618.047 253.427 618.077 253.173 618.115H253.115L252.327 618.242C252.066 618.287 251.809 618.335 251.556 618.385L251.473 618.402C251.227 618.45 250.977 618.505 250.733 618.563H250.672C250.161 618.679 249.66 618.813 249.17 618.956H249.136C248.896 619.025 248.656 619.1 248.42 619.179L248.368 619.196C247.642 619.435 246.939 619.702 246.271 619.996H246.243C246.02 620.095 245.801 620.198 245.585 620.301C244.948 620.607 244.329 620.95 243.731 621.327C243.17 621.683 242.634 622.077 242.127 622.507C241.652 622.912 241.21 623.354 240.807 623.831C240.114 624.635 239.582 625.564 239.238 626.567C238.415 629.068 239.262 631.602 241.339 633.75C245.794 629.187 255.559 626.991 264.508 628.962C268.669 629.882 272.014 631.64 274.105 633.795C275.053 632.855 275.772 631.711 276.206 630.45C276.956 628.213 276.288 625.873 274.537 623.841Z" fill="#105244"/>
<path d="M224.147 621.491C224.445 621.046 224.798 620.533 225.151 620.058C225.655 619.374 225.394 618.587 224.465 618.064L218.639 614.742C217.953 614.349 217.58 613.839 217.525 613.323V618.974C217.497 619.555 217.868 620.143 218.639 620.585L222.097 622.562C223.033 622.404 223.79 622.018 224.147 621.491Z" fill="#105244"/>
<path d="M306.203 624.751C306.203 623.543 304.489 622.565 302.388 622.565H294.248C293.918 622.566 293.588 622.535 293.264 622.473C292.476 622.369 291.759 621.962 291.266 621.34C290.983 620.907 290.672 620.477 290.334 620.051C289.772 619.346 289.974 618.522 290.927 617.975L296.681 614.667C297.418 614.243 297.792 613.689 297.795 613.131C297.799 612.573 297.432 612.002 296.678 611.571L287.304 606.191C286.468 605.769 285.545 605.549 284.608 605.549C283.672 605.549 282.748 605.769 281.913 606.191L276.117 609.522C275.044 610.065 273.81 610.201 272.645 609.905C271.815 609.704 270.931 609.498 270.153 609.324C268.947 609.054 268.162 608.387 268.162 607.644V602.924C268.162 601.713 266.448 600.731 264.347 600.731H251.086C248.978 600.731 247.271 601.713 247.271 602.924V607.607C247.271 608.38 246.404 609.043 245.143 609.317C244.346 609.488 243.56 609.676 242.785 609.881C241.577 610.215 240.289 610.093 239.166 609.539L233.39 606.242C232.555 605.821 231.632 605.602 230.697 605.602C229.761 605.602 228.838 605.821 228.003 606.242L218.649 611.643C217.854 612.105 217.491 612.717 217.552 613.319C217.607 613.836 217.974 614.345 218.666 614.739L224.493 618.06C225.411 618.583 225.672 619.374 225.178 620.054C224.836 620.53 224.472 621.043 224.174 621.488C223.831 622.014 223.06 622.401 222.145 622.558C221.849 622.608 221.55 622.633 221.251 622.633H213.025C210.92 622.633 209.217 623.619 209.224 624.826L209.251 631.575V632.444C209.251 633.651 210.965 634.629 213.073 634.626H221.216C222.563 634.626 223.722 635.122 224.198 635.847C224.486 636.28 224.799 636.71 225.137 637.137C225.699 637.838 225.5 638.666 224.548 639.213L218.8 642.528C217.316 643.383 217.323 644.768 218.8 645.606L228.198 650.98C229.689 651.831 232.102 651.831 233.586 650.98L239.375 647.641C240.448 647.1 241.681 646.964 242.847 647.258C243.673 647.46 244.56 647.665 245.338 647.836C246.545 648.103 247.333 648.77 247.337 649.516V654.236C247.337 655.447 249.05 656.425 251.155 656.422H264.415C266.523 656.422 268.227 655.437 268.223 654.226V649.553C268.223 648.78 269.091 648.113 270.352 647.843C271.113 647.679 271.861 647.5 272.597 647.306C273.805 646.974 275.092 647.096 276.216 647.648L281.981 650.952C282.817 651.373 283.74 651.593 284.677 651.593C285.613 651.593 286.536 651.373 287.372 650.952L296.74 645.558C298.224 644.703 298.22 643.318 296.74 642.462L290.93 639.138C290.018 638.614 289.754 637.824 290.245 637.144C291.091 636.004 291.958 634.646 292.006 634.568H302.405C304.441 634.568 306.1 633.648 306.203 632.492C306.203 632.454 306.203 632.416 306.203 632.379V624.751ZM276.196 630.525C275.762 631.786 275.043 632.931 274.095 633.87C269.639 638.43 259.874 640.626 250.925 638.659C246.764 637.739 243.419 635.984 241.328 633.829C239.238 631.674 238.405 629.153 239.227 626.646C239.571 625.642 240.104 624.713 240.797 623.909C244.958 618.953 255.172 616.48 264.498 618.542C268.971 619.534 272.497 621.488 274.544 623.865C276.288 625.873 276.956 628.212 276.196 630.525Z" fill="#105244"/>
<path d="M479.24 660.151C479.24 659.364 478.126 658.728 476.758 658.728H471.466C471.251 658.73 471.037 658.71 470.825 658.669C470.313 658.601 469.848 658.338 469.526 657.934C469.341 657.651 469.139 657.371 468.92 657.093C468.553 656.638 468.687 656.101 469.307 655.724L473.046 653.576C473.245 653.488 473.417 653.35 473.544 653.174C473.672 652.999 473.751 652.793 473.773 652.577C473.756 652.357 473.68 652.145 473.552 651.964C473.424 651.783 473.249 651.641 473.046 651.551L466.945 648.052C466.402 647.777 465.802 647.634 465.192 647.634C464.583 647.634 463.983 647.777 463.439 648.052L459.669 650.217C458.971 650.57 458.169 650.658 457.41 650.467C456.872 650.334 456.293 650.2 455.793 650.087C455.004 649.913 454.494 649.478 454.494 648.996V645.918C454.494 645.131 453.387 644.495 452.016 644.495H443.392C442.021 644.495 440.911 645.131 440.911 645.918V648.996C440.911 649.499 440.345 649.93 439.54 650.108C439.022 650.221 438.512 650.344 438.008 650.474C437.223 650.693 436.385 650.616 435.653 650.258L431.883 648.114C431.34 647.839 430.74 647.697 430.132 647.697C429.523 647.697 428.923 647.839 428.38 648.114L422.296 651.626C421.779 651.927 421.542 652.311 421.584 652.714C421.621 652.915 421.706 653.104 421.832 653.266C421.958 653.427 422.121 653.556 422.307 653.641L426.077 655.8C426.673 656.142 426.845 656.651 426.516 657.096C426.286 657.404 426.056 657.739 425.861 658.026C425.528 658.417 425.056 658.662 424.545 658.71C424.352 658.742 424.157 658.759 423.962 658.762H418.612C417.241 658.762 416.137 659.401 416.141 660.188L416.158 664.577V665.141C416.158 665.928 417.272 666.564 418.643 666.561H423.938C424.812 666.561 425.566 666.882 425.878 667.354C426.063 667.638 426.269 667.919 426.488 668.192C426.852 668.651 426.725 669.188 426.104 669.561L422.368 671.715C421.402 672.273 421.405 673.173 422.368 673.73L428.479 677.226C429.023 677.5 429.624 677.643 430.233 677.643C430.842 677.643 431.442 677.5 431.986 677.226L435.756 675.057C436.453 674.704 437.256 674.614 438.015 674.804C438.553 674.938 439.132 675.071 439.636 675.181C440.421 675.358 440.931 675.789 440.935 676.275V679.354C440.935 680.14 442.049 680.777 443.42 680.777H452.043C453.414 680.777 454.521 680.137 454.518 679.35V676.309C454.518 675.807 455.08 675.372 455.889 675.194C456.386 675.088 456.872 674.972 457.352 674.852C458.137 674.636 458.974 674.715 459.703 675.075L463.453 677.223C463.997 677.497 464.597 677.64 465.206 677.64C465.815 677.64 466.416 677.497 466.959 677.223L473.05 673.717C474.016 673.159 474.016 672.259 473.05 671.702L469.28 669.54C468.687 669.198 468.515 668.685 468.844 668.244C469.396 667.501 469.962 666.619 469.989 666.568H476.751C478.078 666.568 479.151 665.969 479.223 665.216C479.224 665.192 479.224 665.169 479.223 665.145L479.24 660.151ZM459.727 663.913C459.445 664.734 458.975 665.479 458.356 666.089C455.464 669.054 449.102 670.481 443.276 669.195C440.568 668.596 438.392 667.454 437.031 666.055C435.67 664.656 435.132 663.014 435.66 661.385C435.884 660.729 436.234 660.121 436.688 659.596C439.396 656.371 446.038 654.767 452.112 656.107C455.022 656.751 457.314 658.02 458.644 659.566C459.799 660.879 460.231 662.401 459.741 663.903L459.727 663.913Z" fill="#E5EDF7"/>
<path d="M476.498 654.975H469.735C469.708 655.026 469.142 655.909 468.594 656.651C468.251 657.092 468.433 657.606 469.026 657.948L472.796 660.109C473.766 660.667 473.766 661.567 472.796 662.124L466.706 665.63C466.162 665.905 465.562 666.049 464.952 666.049C464.343 666.049 463.743 665.905 463.199 665.63L459.45 663.486C458.72 663.126 457.883 663.046 457.099 663.263C456.619 663.391 456.132 663.505 455.638 663.605C454.819 663.783 454.267 664.218 454.267 664.72V667.761C454.267 668.545 453.164 669.184 451.793 669.184H443.169C441.799 669.184 440.688 668.548 440.685 667.761V664.683C440.685 664.197 440.17 663.763 439.386 663.588C438.885 663.479 438.303 663.345 437.764 663.212C437.006 663.022 436.203 663.111 435.506 663.465L431.736 665.634C431.192 665.909 430.592 666.052 429.982 666.052C429.373 666.052 428.773 665.909 428.229 665.634L422.118 662.141C421.148 661.584 421.145 660.684 422.118 660.127L425.854 657.972C426.474 657.63 426.605 657.079 426.238 656.603C426.019 656.326 425.816 656.049 425.628 655.765C425.316 655.293 424.565 654.968 423.688 654.972H418.393C417.022 654.972 415.911 654.339 415.908 653.552V652.988C415.902 653.045 415.902 653.102 415.908 653.159L415.928 660.39C415.928 661.177 417.046 661.813 418.413 661.809H421.518L421.443 667.782C421.424 667.885 421.424 667.99 421.443 668.093C421.489 668.28 421.577 668.455 421.699 668.605C421.821 668.754 421.975 668.875 422.149 668.959L428.26 672.454C428.931 672.791 429.688 672.918 430.433 672.82L430.478 672.844V672.817C430.928 672.783 431.366 672.658 431.766 672.451L435.537 670.279C436.234 669.925 437.037 669.836 437.795 670.029C438.333 670.159 438.916 670.293 439.416 670.405C440.201 670.58 440.712 671.014 440.715 671.497V674.575C440.715 675.362 441.829 675.998 443.2 675.995H451.824C453.195 675.995 454.302 675.355 454.298 674.568V671.527C454.298 671.025 454.864 670.594 455.669 670.416C456.163 670.306 456.65 670.192 457.129 670.074C457.913 669.854 458.751 669.932 459.481 670.293L463.23 672.441C463.63 672.647 464.067 672.77 464.515 672.803V672.844L464.581 672.81C465.32 672.905 466.072 672.775 466.736 672.437L472.827 668.931C472.992 668.849 473.138 668.734 473.256 668.593C473.374 668.451 473.461 668.287 473.512 668.11H473.54V667.905L473.464 661.796H476.498C477.869 661.796 478.976 661.16 478.976 660.373V653.607C478.918 654.377 477.838 654.975 476.498 654.975Z" fill="#105244"/>
<path d="M472.793 642.042L469.05 644.19C468.43 644.532 468.299 645.083 468.663 645.558C468.891 645.834 469.093 646.114 469.269 646.4C469.591 646.802 470.057 647.066 470.568 647.135L472.793 645.856C472.975 645.771 473.135 645.643 473.258 645.485C473.381 645.326 473.465 645.14 473.502 644.942H473.543L473.516 641.06C473.491 641.272 473.411 641.474 473.284 641.646C473.158 641.819 472.988 641.955 472.793 642.042Z" fill="#105244"/>
<path d="M458.391 648.004C457.845 647.385 457.214 646.847 456.516 646.406L456.471 646.379C456.365 646.311 456.259 646.242 456.129 646.177L456.043 646.129L455.741 645.958L455.628 645.9C455.532 645.849 455.436 645.798 455.337 645.75L455.2 645.685L454.915 645.551L454.761 645.483L454.477 645.363L454.309 645.295L454.021 645.185L453.842 645.117L453.548 645.018L453.363 644.956L453.054 644.86L452.869 644.806L452.526 644.71L452.365 644.669C452.194 644.624 452.022 644.583 451.844 644.546C451.666 644.508 451.502 644.47 451.327 644.436H451.241L450.744 644.347H450.648L450.144 644.272H450.089L449.596 644.217H449.534C449.363 644.217 449.191 644.183 449.027 644.173H448.931C448.763 644.173 448.588 644.149 448.431 644.142H448.355H447.841H447.228H446.727H446.645L446.134 644.166L445.623 644.204H445.569L445.072 644.255H445L444.499 644.32H444.462L443.951 644.402L443.451 644.498H443.399C443.239 644.53 443.078 644.564 442.916 644.6H442.875C442.532 644.676 442.22 644.761 441.901 644.857H441.881L441.411 645.004H441.38C440.907 645.158 440.451 645.346 440.009 645.524H439.989C439.845 645.586 439.704 645.651 439.564 645.719C439.148 645.922 438.745 646.15 438.357 646.403C437.999 646.638 437.655 646.895 437.329 647.173C437.018 647.435 436.73 647.723 436.469 648.035C436.014 648.56 435.665 649.167 435.441 649.824C434.909 651.452 435.458 653.097 436.812 654.489C439.708 651.524 446.066 650.097 451.892 651.383C454.6 651.982 456.776 653.124 458.137 654.527C458.754 653.915 459.222 653.171 459.508 652.351C459.964 650.85 459.529 649.338 458.391 648.004Z" fill="#105244"/>
<path d="M425.618 646.475C425.813 646.188 426.046 645.853 426.272 645.545C426.615 645.1 426.43 644.591 425.833 644.248L422.063 642.087C421.877 642.002 421.713 641.875 421.586 641.714C421.46 641.553 421.374 641.364 421.337 641.163V644.837C421.346 645.062 421.419 645.281 421.548 645.466C421.677 645.652 421.855 645.798 422.063 645.887L424.312 647.173C424.821 647.117 425.289 646.867 425.618 646.475Z" fill="#105244"/>
<path d="M478.983 648.596C478.983 647.813 477.872 647.173 476.501 647.176H471.209C470.994 647.177 470.78 647.157 470.568 647.118C470.057 647.049 469.591 646.785 469.269 646.383C469.084 646.1 468.882 645.819 468.663 645.541C468.299 645.083 468.43 644.546 469.05 644.173L472.793 642.025C472.991 641.937 473.162 641.798 473.288 641.622C473.415 641.447 473.494 641.241 473.516 641.026C473.5 640.805 473.423 640.593 473.295 640.412C473.167 640.232 472.992 640.089 472.789 640L466.688 636.501C466.145 636.226 465.544 636.083 464.935 636.083C464.326 636.083 463.726 636.226 463.182 636.501L459.412 638.666C458.714 639.019 457.912 639.107 457.153 638.916C456.615 638.782 456.036 638.649 455.536 638.536C454.751 638.361 454.24 637.927 454.24 637.445V634.366C454.24 633.58 453.13 632.943 451.759 632.943H443.135C441.764 632.943 440.657 633.58 440.657 634.366V637.407C440.657 637.91 440.092 638.341 439.286 638.519C438.769 638.632 438.258 638.751 437.754 638.885C436.969 639.104 436.131 639.026 435.4 638.666L431.646 636.521C431.103 636.247 430.502 636.104 429.893 636.104C429.284 636.104 428.684 636.247 428.14 636.521L422.057 640.034C421.539 640.332 421.303 640.718 421.344 641.122C421.381 641.323 421.467 641.512 421.593 641.673C421.72 641.833 421.884 641.961 422.07 642.045L425.84 644.207C426.437 644.549 426.608 645.059 426.279 645.504C426.053 645.812 425.82 646.147 425.625 646.434C425.291 646.823 424.819 647.068 424.308 647.118C424.116 647.15 423.921 647.166 423.726 647.166H418.375C417.004 647.166 415.901 647.806 415.904 648.592V652.981V653.545C415.904 654.332 417.022 654.968 418.389 654.965H423.685C424.562 654.965 425.313 655.287 425.625 655.759C425.813 656.042 426.015 656.32 426.235 656.597C426.601 657.055 426.471 657.592 425.851 657.965L422.115 660.12C421.148 660.677 421.152 661.577 422.115 662.134L428.226 665.627C428.769 665.902 429.37 666.045 429.979 666.045C430.588 666.045 431.189 665.902 431.732 665.627L435.502 663.458C436.2 663.105 437.002 663.015 437.761 663.205C438.299 663.339 438.882 663.472 439.382 663.581C440.167 663.756 440.678 664.19 440.681 664.676V667.755C440.681 668.541 441.795 669.177 443.166 669.177H451.789C453.16 669.177 454.267 668.538 454.264 667.755V664.714C454.264 664.211 454.83 663.776 455.635 663.599C456.129 663.491 456.615 663.377 457.095 663.256C457.88 663.04 458.717 663.119 459.446 663.479L463.196 665.624C463.739 665.898 464.34 666.042 464.949 666.042C465.558 666.042 466.159 665.898 466.702 665.624L472.793 662.117C473.759 661.56 473.759 660.66 472.793 660.103L469.023 657.941C468.43 657.599 468.258 657.086 468.591 656.645C469.139 655.902 469.705 655.02 469.732 654.968H476.498C477.824 654.968 478.897 654.37 478.969 653.617C478.971 653.593 478.971 653.569 478.969 653.545L478.983 648.596ZM459.47 652.359C459.185 653.178 458.716 653.922 458.099 654.534C455.203 657.5 448.845 658.926 443.019 657.64C440.311 657.041 438.138 655.899 436.774 654.496C435.41 653.094 434.875 651.459 435.403 649.831C435.627 649.174 435.976 648.567 436.431 648.042C439.139 644.816 445.781 643.208 451.855 644.553C454.764 645.196 457.057 646.465 458.387 648.011C459.529 649.338 459.964 650.85 459.47 652.352V652.359Z" fill="#105244"/>
<path d="M39.7374 506.139C60.2187 505.935 76.7262 496.202 76.608 484.401C76.4897 472.599 59.7905 463.198 39.3091 463.403C18.8278 463.607 2.32029 473.34 2.43854 485.141C2.55679 496.942 19.256 506.344 39.7374 506.139Z" fill="#E5EDF7"/>
<path d="M36.5364 493.483C17.1063 493.483 1.35382 484.33 1.35382 473.038V482.804C1.35382 482.896 1.35382 482.992 1.35382 483.085C1.35382 494.372 17.12 503.533 36.5364 503.533C55.9527 503.533 71.7189 494.386 71.7189 483.098C71.7189 483.006 71.7189 482.91 71.7189 482.818V473.052C71.7189 484.33 55.9527 493.483 36.5364 493.483Z" fill="#47D8D6"/>
<path d="M36.5364 452.59C17.1886 452.59 1.48748 461.668 1.35724 472.895C1.35724 472.942 1.35724 472.99 1.35724 473.038C1.35724 484.326 17.1234 493.483 36.5398 493.483C55.9562 493.483 71.7188 484.33 71.7188 473.038C71.7188 472.99 71.7188 472.942 71.7188 472.895C71.5852 461.668 55.8876 452.59 36.5364 452.59Z" fill="#47D8D6"/>
<path d="M36.5364 488.321C51.0607 488.321 62.835 481.479 62.835 473.038C62.835 464.598 51.0607 457.755 36.5364 457.755C22.012 457.755 10.2377 464.598 10.2377 473.038C10.2377 481.479 22.012 488.321 36.5364 488.321Z" fill="#47D8D6"/>
<path d="M36.5364 459.394C50.5888 459.394 62.0295 465.8 62.7664 473.856C62.7904 473.586 62.8384 473.315 62.8384 473.038C62.8384 464.596 51.0618 457.752 36.5364 457.752C22.0109 457.752 10.2377 464.593 10.2377 473.038C10.2478 473.312 10.2718 473.585 10.3097 473.856C11.0534 465.8 22.4873 459.394 36.5364 459.394Z" fill="#47D8D6"/>
<path d="M38.5688 468.236C37.9142 468.359 37.239 468.516 36.5398 468.701C35.932 468.851 35.2842 469.041 34.5964 469.269C33.9109 469.494 33.246 469.744 32.6153 470.014L34.7301 471.232C34.938 471.15 35.1665 471.068 35.4156 470.986C35.6658 470.904 35.9263 470.811 36.1902 470.716C37.3898 470.294 38.5197 469.94 39.5799 469.655C40.5647 469.382 41.5698 469.187 42.5857 469.074C43.4749 468.976 44.3734 469.001 45.2557 469.149C46.115 469.299 46.9404 469.601 47.6926 470.042C48.618 470.575 49.2007 471.143 49.4474 471.752C49.5686 472.043 49.6309 472.355 49.6309 472.67C49.6309 472.986 49.5686 473.298 49.4474 473.589C49.1446 474.291 48.6933 474.92 48.1244 475.433C47.4375 476.085 46.6867 476.668 45.883 477.17L48.7276 478.809L46.3628 480.177L43.4735 478.514C41.9582 479.269 40.3954 479.925 38.795 480.478C37.2105 481.041 35.5904 481.498 33.9452 481.846L32.4097 478.104C33.2072 477.949 34.0297 477.763 34.8775 477.546C35.5904 477.372 36.3889 477.143 37.2767 476.862C38.1266 476.594 38.9588 476.273 39.7684 475.901L37.7119 474.711C36.9785 474.988 36.2175 475.255 35.4361 475.508C34.2616 475.898 33.1935 476.202 32.2315 476.421C31.3648 476.626 30.4817 476.755 29.5924 476.804C28.8489 476.846 28.1031 476.788 27.3749 476.633C26.6967 476.481 26.0459 476.226 25.4452 475.877C24.732 475.52 24.137 474.966 23.7315 474.28C23.4393 473.726 23.3566 473.086 23.4984 472.477C23.685 471.777 24.0377 471.132 24.5266 470.596C25.1338 469.9 25.8311 469.288 26.6003 468.776L24.2284 467.408L26.5934 466.04L28.9926 467.408C29.7021 467.066 30.4286 466.761 31.1621 466.481C31.8956 466.2 32.6291 465.947 33.3557 465.722C34.0823 465.496 34.7815 465.287 35.4532 465.106L37.3144 464.617L38.5688 468.236ZM30.6275 471.998C30.8946 472.139 31.1982 472.195 31.498 472.159C31.938 472.112 32.3721 472.02 32.7936 471.885L31.0079 470.859C30.2995 471.359 30.1728 471.74 30.6275 472.002V471.998ZM41.938 473.876C41.6477 473.739 41.322 473.695 41.0056 473.75C40.5407 473.806 40.0818 473.904 39.6347 474.044L41.3724 475.046C41.6887 474.882 41.9541 474.635 42.1401 474.331C42.1574 474.287 42.1654 474.241 42.1637 474.194C42.1621 474.147 42.1508 474.101 42.1305 474.059C42.1103 474.016 42.0815 473.978 42.046 473.948C42.0105 473.917 41.9691 473.894 41.9243 473.88L41.938 473.876Z" fill="#47D8D6"/>
<path d="M38.5688 467.364C37.9131 467.487 37.2367 467.642 36.5398 467.829C35.932 467.979 35.2842 468.167 34.5964 468.393C33.9109 468.619 33.246 468.869 32.6154 469.142L34.7301 470.36C34.9392 470.275 35.1688 470.192 35.4156 470.11C35.6624 470.028 35.9263 469.939 36.1902 469.84C37.3898 469.418 38.5197 469.065 39.5799 468.78C40.5594 468.51 41.5588 468.319 42.5686 468.208C43.4576 468.108 44.3563 468.132 45.2386 468.28C46.0975 468.431 46.9227 468.734 47.6755 469.173C48.6009 469.707 49.1835 470.278 49.4303 470.883C49.5519 471.175 49.6146 471.488 49.6146 471.804C49.6146 472.119 49.5519 472.432 49.4303 472.724C49.1258 473.425 48.6748 474.054 48.1074 474.567C47.4187 475.218 46.668 475.8 45.8658 476.305L48.7106 477.94L46.3456 479.308L43.4563 477.646C41.9412 478.402 40.3783 479.059 38.7779 479.613C37.1929 480.174 35.5729 480.631 33.9281 480.981L32.3926 477.239C33.1901 477.086 34.0126 476.901 34.8603 476.685C35.5732 476.507 36.3718 476.278 37.2595 476.001C38.109 475.73 38.9412 475.408 39.7513 475.036L37.6948 473.846C36.9614 474.126 36.2005 474.389 35.419 474.643C34.2446 475.033 33.1763 475.337 32.2144 475.556C31.3477 475.761 30.4646 475.889 29.5753 475.939C28.8317 475.982 28.0858 475.925 27.3577 475.768C26.6802 475.616 26.0296 475.362 25.4281 475.015C24.7153 474.656 24.1206 474.101 23.7143 473.415C23.4224 472.862 23.3397 472.224 23.4813 471.615C23.667 470.914 24.0198 470.267 24.5095 469.731C25.1158 469.035 25.8133 468.424 26.5831 467.914L24.2113 466.546L26.5763 465.178L28.9755 466.546C29.6849 466.204 30.4116 465.896 31.1451 465.619C31.8785 465.342 32.612 465.086 33.3386 464.856C34.0652 464.627 34.7643 464.422 35.4361 464.244C36.1079 464.066 36.7283 463.902 37.2973 463.751L38.5688 467.364ZM30.6275 471.126C30.8946 471.267 31.1982 471.323 31.498 471.287C31.938 471.24 32.3721 471.148 32.7936 471.013L31.0079 469.987C30.2996 470.484 30.1728 470.864 30.6275 471.126ZM41.938 473.008C41.6482 472.869 41.3224 472.824 41.0057 472.878C40.5407 472.934 40.0818 473.032 39.6347 473.172L41.3724 474.174C41.6887 474.01 41.9542 473.763 42.1402 473.459C42.1574 473.415 42.1654 473.369 42.1638 473.322C42.1621 473.275 42.1508 473.229 42.1306 473.186C42.1103 473.144 42.0815 473.106 42.046 473.076C42.0105 473.045 41.9691 473.022 41.9243 473.008H41.938Z" fill="#47D8D6"/>
<path d="M36.509 479.534C17.0789 479.534 1.32648 470.377 1.32648 459.086V468.851C1.32648 468.947 1.32648 469.04 1.32648 469.132C1.32648 480.42 17.0926 489.58 36.509 489.58C55.9253 489.58 71.6914 480.427 71.6914 469.132C71.6914 469.04 71.6914 468.947 71.6914 468.851V459.086C71.6914 470.377 55.9527 479.534 36.509 479.534Z" fill="#47D8D6"/>
<path d="M36.5089 438.631C17.1611 438.631 1.46002 447.709 1.32977 458.939C1.32977 458.986 1.32977 459.031 1.32977 459.079C1.32977 470.367 17.096 479.527 36.5123 479.527C55.9287 479.527 71.6948 470.37 71.6948 459.079C71.6948 459.031 71.6948 458.986 71.6948 458.939C71.5577 447.716 55.8601 438.631 36.5089 438.631Z" fill="#47D8D6"/>
<path d="M36.509 474.369C51.0333 474.369 62.8076 467.526 62.8076 459.086C62.8076 450.645 51.0333 443.803 36.509 443.803C21.9846 443.803 10.2103 450.645 10.2103 459.086C10.2103 467.526 21.9846 474.369 36.509 474.369Z" fill="#47D8D6"/>
<path d="M36.5089 445.441C50.5614 445.441 62.0021 451.848 62.739 459.907C62.763 459.633 62.811 459.363 62.811 459.086C62.811 450.644 51.0344 443.803 36.5089 443.803C21.9835 443.803 10.2103 450.644 10.2103 459.086C10.2205 459.361 10.2445 459.635 10.2823 459.907C11.0192 451.848 22.4599 445.441 36.5089 445.441Z" fill="#47D8D6"/>
<path d="M38.5413 454.287C37.8878 454.41 37.2115 454.565 36.5123 454.752C35.9045 454.902 35.2568 455.091 34.569 455.316C33.8835 455.542 33.2186 455.792 32.588 456.065L34.7026 457.283C34.9117 457.198 35.1414 457.116 35.3881 457.033C35.6349 456.951 35.8988 456.862 36.1627 456.763C37.3623 456.341 38.4922 455.988 39.5524 455.703C40.5319 455.434 41.5314 455.243 42.5412 455.132C43.4302 455.031 44.3288 455.055 45.2111 455.203C46.0706 455.354 46.896 455.658 47.648 456.1C48.5734 456.63 49.1561 457.201 49.4028 457.81C49.5245 458.101 49.5871 458.414 49.5871 458.73C49.5871 459.046 49.5245 459.359 49.4028 459.65C49.0984 460.352 48.6474 460.98 48.0799 461.494C47.3913 462.145 46.6405 462.727 45.8383 463.232L48.6831 464.867L46.3182 466.235L43.4289 464.569C41.9134 465.324 40.3507 465.981 38.7505 466.536C37.1655 467.097 35.5454 467.554 33.9006 467.904L32.3651 464.162C33.1649 464.009 33.9874 463.824 34.8328 463.608C35.5458 463.43 36.3443 463.201 37.232 462.924C38.0815 462.653 38.9137 462.331 39.7238 461.959L37.6673 460.769C36.9339 461.049 36.173 461.316 35.3916 461.566C34.2171 461.956 33.1489 462.26 32.1869 462.479C31.3202 462.684 30.4371 462.812 29.5478 462.862C28.8043 462.906 28.0583 462.848 27.3303 462.691C26.6522 462.54 26.0015 462.286 25.4007 461.939C24.6871 461.58 24.0921 461.025 23.6869 460.338C23.395 459.785 23.3122 459.147 23.4538 458.538C23.6396 457.837 23.9923 457.19 24.482 456.654C25.0883 455.958 25.7858 455.347 26.5557 454.837L24.1839 453.469L26.5488 452.101L28.948 453.469C29.6575 453.127 30.3841 452.823 31.1176 452.542C31.851 452.262 32.5845 452.009 33.3111 451.779C34.0377 451.55 34.7369 451.345 35.4087 451.167C36.0805 450.989 36.7008 450.825 37.2698 450.675L38.5413 454.287ZM30.6 458.049C30.8666 458.192 31.1707 458.248 31.4706 458.21C31.9106 458.163 32.3447 458.071 32.7662 457.936L30.9804 456.91C30.263 457.41 30.1327 457.789 30.5897 458.049H30.6ZM41.9105 459.931C41.6207 459.792 41.295 459.747 40.9783 459.801C40.5136 459.859 40.0548 459.957 39.6073 460.095L41.345 461.097C41.6612 460.933 41.9268 460.686 42.1128 460.382C42.1301 460.339 42.1382 460.292 42.1368 460.245C42.1354 460.199 42.1243 460.153 42.1044 460.11C42.0845 460.068 42.0561 460.03 42.021 459.999C41.9859 459.969 41.9448 459.945 41.9002 459.931H41.9105Z" fill="#47D8D6"/>
<path d="M38.5414 453.411C37.8879 453.534 37.2115 453.689 36.5123 453.876C35.9045 454.027 35.2568 454.215 34.569 454.441C33.8835 454.666 33.2186 454.916 32.588 455.19L34.7027 456.418C34.9117 456.332 35.1414 456.25 35.3881 456.168C35.6349 456.086 35.8988 455.997 36.1627 455.898C37.3623 455.476 38.4922 455.124 39.5524 454.841C40.5314 454.569 41.531 454.377 42.5412 454.266C43.4303 454.169 44.3285 454.193 45.2111 454.338C46.0702 454.49 46.8953 454.794 47.648 455.234C48.5735 455.764 49.1561 456.336 49.4028 456.944C49.5245 457.236 49.5871 457.549 49.5871 457.865C49.5871 458.18 49.5245 458.493 49.4028 458.785C49.0992 459.487 48.6481 460.115 48.0799 460.628C47.3922 461.28 46.6413 461.862 45.8384 462.366L48.6831 464.005L46.3182 465.373L43.4289 463.707C41.9134 464.462 40.3507 465.119 38.7505 465.674C37.166 466.237 35.5458 466.694 33.9006 467.042L32.372 463.259C33.1717 463.106 33.9943 462.921 34.8397 462.705C35.5526 462.527 36.3512 462.298 37.2389 462.021C38.089 461.752 38.9212 461.429 39.7307 461.056L37.6742 459.866C36.9407 460.146 36.1799 460.413 35.3984 460.663C34.224 461.053 33.1557 461.357 32.1938 461.576C31.3272 461.782 30.4441 461.911 29.5547 461.962C28.8111 462.004 28.0654 461.947 27.3371 461.791C26.6594 461.638 26.0088 461.383 25.4074 461.035C24.6949 460.677 24.1002 460.123 23.6937 459.438C23.4018 458.885 23.3191 458.245 23.4607 457.635C23.6472 456.934 23.9998 456.288 24.4889 455.751C25.0952 455.055 25.7927 454.444 26.5625 453.934L24.1908 452.566L26.5557 451.198L28.9549 452.566C29.6643 452.224 30.391 451.92 31.1244 451.639C31.8579 451.359 32.5913 451.106 33.318 450.876C34.0446 450.647 34.7438 450.445 35.4156 450.264C36.0874 450.083 36.7077 449.922 37.2767 449.771L38.5414 453.411ZM30.6 457.174C30.866 457.317 31.1707 457.374 31.4706 457.334C31.9109 457.289 32.3452 457.197 32.7662 457.061L30.9804 456.035C30.263 456.534 30.1328 456.914 30.5897 457.174H30.6ZM41.9105 459.055C41.6203 458.918 41.2947 458.874 40.9783 458.928C40.513 458.983 40.054 459.082 39.6073 459.223L41.345 460.221C41.6608 460.058 41.9263 459.812 42.1128 459.51C42.1306 459.466 42.1392 459.419 42.1381 459.372C42.1369 459.325 42.126 459.279 42.1061 459.236C42.0861 459.193 42.0575 459.155 42.0221 459.124C41.9867 459.093 41.9452 459.069 41.9002 459.055H41.9105Z" fill="#47D8D6"/>
<path d="M36.4541 465.311C17.024 465.311 1.27155 456.158 1.27155 444.863V454.632C1.27155 454.725 1.27155 454.817 1.27155 454.913C1.27155 466.201 17.0377 475.361 36.4541 475.361C55.8705 475.361 71.6366 466.204 71.6366 454.913C71.6366 454.817 71.6366 454.725 71.6366 454.632V444.863C71.6366 456.161 55.8842 465.311 36.4541 465.311Z" fill="#47D8D6"/>
<path d="M36.4541 424.422C17.1063 424.422 1.40521 433.5 1.27496 444.726C1.27496 444.774 1.27496 444.822 1.27496 444.866C1.27496 456.154 17.0412 465.315 36.4575 465.315C55.8739 465.315 71.64 456.161 71.64 444.866C71.64 444.822 71.64 444.774 71.64 444.726C71.5029 433.5 55.8053 424.422 36.4541 424.422Z" fill="#47D8D6"/>
<path d="M36.4541 460.153C50.9784 460.153 62.7527 453.31 62.7527 444.87C62.7527 436.429 50.9784 429.587 36.4541 429.587C21.9298 429.587 10.1555 436.429 10.1555 444.87C10.1555 453.31 21.9298 460.153 36.4541 460.153Z" fill="#47D8D6"/>
<path d="M36.4541 431.225C50.5065 431.225 61.9472 437.632 62.6841 445.687C62.7081 445.414 62.7562 445.143 62.7562 444.866C62.7562 436.428 50.9795 429.583 36.4541 429.583C21.9287 429.583 10.1554 436.424 10.1554 444.866C10.1656 445.141 10.1897 445.415 10.2274 445.687C10.9643 437.632 22.4051 431.225 36.4541 431.225Z" fill="#47D8D6"/>
<path d="M38.4728 440.067C37.8216 440.19 37.1465 440.348 36.4473 440.532C35.8418 440.683 35.1939 440.871 34.5039 441.097C33.8184 441.326 33.1534 441.576 32.5228 441.846L34.6376 443.064C34.8466 442.982 35.0763 442.896 35.3231 442.814C35.5698 442.732 35.8337 442.643 36.0977 442.547C37.2973 442.125 38.4271 441.772 39.4873 441.487C40.4664 441.215 41.4659 441.023 42.476 440.912C43.3652 440.815 44.2634 440.839 45.146 440.984C46.0051 441.136 46.8303 441.44 47.583 441.88C48.5084 442.414 49.091 442.982 49.3378 443.59C49.4589 443.882 49.5213 444.194 49.5213 444.509C49.5213 444.824 49.4589 445.136 49.3378 445.427C49.0341 446.129 48.583 446.758 48.0148 447.271C47.3271 447.923 46.5762 448.505 45.7733 449.009L48.618 450.647L46.2531 452.015L43.3638 450.349C41.8483 451.105 40.2856 451.762 38.6854 452.316C37.1009 452.879 35.4807 453.336 33.8355 453.685L32.3 449.922C33.0975 449.771 33.9201 449.587 34.7678 449.368C35.4807 449.19 36.2758 448.964 37.167 448.684C38.0169 448.416 38.8492 448.095 39.6587 447.722L37.6023 446.529C36.8688 446.809 36.1079 447.076 35.3265 447.329C34.1497 447.719 33.0815 448.022 32.1218 448.239C31.2552 448.445 30.3721 448.575 29.4827 448.626C28.7392 448.667 27.9935 448.61 27.2652 448.454C26.587 448.302 25.9362 448.048 25.3355 447.699C24.6223 447.342 24.0273 446.787 23.6218 446.101C23.3296 445.548 23.2469 444.908 23.3887 444.298C23.5746 443.598 23.9274 442.952 24.417 442.417C25.017 441.721 25.7088 441.109 26.4734 440.597L24.1017 439.229L26.4666 437.861L28.8658 439.229C29.5752 438.887 30.3019 438.583 31.0353 438.302C31.7688 438.022 32.5023 437.769 33.2289 437.539C33.9555 437.31 34.6547 437.108 35.3265 436.927L37.1876 436.435L38.4728 440.067ZM30.535 443.83C30.8011 443.973 31.1052 444.031 31.4055 443.994C31.8454 443.947 32.2795 443.855 32.701 443.72L30.9154 442.694C30.2139 443.191 30.0905 443.57 30.5452 443.83H30.535ZM41.8455 445.711C41.5552 445.574 41.2296 445.53 40.9132 445.585C40.4482 445.641 39.9893 445.739 39.5422 445.879L41.2799 446.881C41.5947 446.715 41.8596 446.468 42.0476 446.166C42.0656 446.123 42.0745 446.076 42.0738 446.03C42.0731 445.983 42.0629 445.937 42.0436 445.894C42.0243 445.852 41.9964 445.813 41.9618 445.782C41.9271 445.75 41.8864 445.726 41.842 445.711H41.8455Z" fill="#47D8D6"/>
<path d="M38.4728 439.192C37.8216 439.315 37.1465 439.472 36.4473 439.657C35.8418 439.807 35.1939 439.997 34.5039 440.225C33.8184 440.451 33.1534 440.7 32.5228 440.97L34.6376 442.188C34.8455 442.106 35.074 442.024 35.3231 441.942C35.5733 441.86 35.8337 441.767 36.0977 441.672C37.2973 441.25 38.4271 440.896 39.4873 440.611C40.4667 440.341 41.4661 440.149 42.476 440.037C43.3653 439.939 44.2638 439.964 45.146 440.112C46.0053 440.261 46.8308 440.564 47.583 441.005C48.5084 441.538 49.091 442.106 49.3378 442.715C49.4589 443.006 49.5213 443.318 49.5213 443.633C49.5213 443.949 49.4589 444.261 49.3378 444.552C49.035 445.254 48.5837 445.883 48.0148 446.395C47.328 447.048 46.577 447.63 45.7733 448.133L48.618 449.772L46.2531 451.14L43.3638 449.477C41.8482 450.232 40.2856 450.887 38.6854 451.441C37.1009 452.004 35.4807 452.461 33.8355 452.809L32.3 449.046C33.0975 448.896 33.9201 448.711 34.7678 448.492C35.4807 448.317 36.2804 448.089 37.167 447.808C38.0169 447.54 38.8492 447.219 39.6587 446.847L37.6023 445.657C36.8688 445.934 36.1079 446.2 35.3265 446.454C34.1497 446.844 33.0815 447.148 32.1218 447.367C31.2552 447.572 30.372 447.7 29.4827 447.75C28.7392 447.792 27.9935 447.734 27.2652 447.579C26.587 447.427 25.9362 447.172 25.3355 446.823C24.6223 446.466 24.0273 445.911 23.6218 445.226C23.3296 444.672 23.2469 444.032 23.3887 443.423C23.5754 442.723 23.928 442.077 24.417 441.542C25.0188 440.847 25.7103 440.235 26.4734 439.722L24.1017 438.354L26.4666 436.985L28.8658 438.354C29.5752 438.012 30.3019 437.707 31.0353 437.427C31.7688 437.146 32.5023 436.893 33.2289 436.667C33.9555 436.442 34.6547 436.233 35.3265 436.052L37.1876 435.562L38.4728 439.192ZM30.535 442.954C30.8021 443.095 31.1056 443.151 31.4055 443.115C31.8454 443.068 32.2795 442.976 32.701 442.841L30.9154 441.815C30.2139 442.315 30.0905 442.696 30.5452 442.958L30.535 442.954ZM41.8455 444.832C41.5552 444.695 41.2296 444.651 40.9132 444.706C40.4482 444.762 39.9893 444.86 39.5422 445L41.2799 446.002C41.5947 445.836 41.8596 445.589 42.0476 445.287C42.0651 445.244 42.0735 445.198 42.0726 445.152C42.0716 445.105 42.0612 445.06 42.0419 445.017C42.0227 444.975 41.9951 444.937 41.9607 444.906C41.9263 444.875 41.886 444.851 41.842 444.836L41.8455 444.832Z" fill="#47D8D6"/>
<path d="M36.4164 451.006C16.9863 451.006 1.23389 441.853 1.23389 430.562V440.341C1.23389 440.433 1.23389 440.529 1.23389 440.621C1.23389 451.909 17 461.07 36.4164 461.07C55.8327 461.07 71.5988 451.916 71.5988 440.621C71.5988 440.529 71.5988 440.433 71.5988 440.341V430.575C71.6091 441.853 55.8567 451.006 36.4164 451.006Z" fill="#47D8D6"/>
<path d="M36.4164 410.113C17.0686 410.113 1.36761 419.191 1.23737 430.421C1.23737 430.466 1.23737 430.514 1.23737 430.561C1.23737 441.849 17.0035 451.006 36.4198 451.006C55.8362 451.006 71.6023 441.853 71.6023 430.561C71.6023 430.514 71.6023 430.466 71.6023 430.421C71.4755 419.191 55.7779 410.113 36.4164 410.113Z" fill="#47D8D6"/>
<path d="M36.4267 445.845C50.951 445.845 62.7253 439.002 62.7253 430.561C62.7253 422.121 50.951 415.278 36.4267 415.278C21.9023 415.278 10.1281 422.121 10.1281 430.561C10.1281 439.002 21.9023 445.845 36.4267 445.845Z" fill="#47D8D6"/>
<path d="M36.4164 416.917C50.4688 416.917 61.9095 423.324 62.6464 431.382C62.6704 431.109 62.7184 430.839 62.7184 430.561C62.7184 422.119 50.9418 415.275 36.4164 415.275C21.8909 415.275 10.1177 422.116 10.1177 430.561C10.1279 430.836 10.152 431.11 10.1897 431.382C10.9369 423.324 22.3639 416.917 36.4164 416.917Z" fill="#47D8D6"/>
<path d="M38.4728 425.759C37.8216 425.887 37.1464 426.042 36.4472 426.224C35.8406 426.375 35.1928 426.566 34.5038 426.792C33.8149 427.018 33.1534 427.268 32.5228 427.538L34.6376 428.756C34.8455 428.673 35.074 428.591 35.323 428.509C35.5732 428.427 35.8337 428.335 36.0976 428.239C37.2972 427.819 38.4271 427.466 39.4873 427.179C40.4667 426.908 41.4661 426.716 42.476 426.604C43.3652 426.506 44.2637 426.532 45.146 426.679C46.0053 426.829 46.8308 427.131 47.5829 427.572C48.5084 428.106 49.091 428.677 49.3377 429.282C49.4589 429.573 49.5212 429.885 49.5212 430.201C49.5212 430.516 49.4589 430.828 49.3377 431.119C49.035 431.822 48.5837 432.451 48.0148 432.963C47.3272 433.616 46.5763 434.199 45.7733 434.704L48.618 436.339L46.2531 437.707L43.3638 436.045C41.8476 436.799 40.285 437.456 38.6854 438.012C37.1004 438.573 35.4803 439.03 33.8355 439.38L32.3035 435.621C33.1009 435.468 33.9235 435.283 34.7712 435.066C35.4841 434.889 36.2838 434.661 37.1704 434.382C38.0203 434.114 38.8526 433.793 39.6621 433.421L37.6057 432.231C36.8722 432.511 36.1114 432.775 35.3299 433.028C34.1554 433.418 33.0872 433.722 32.1252 433.941C31.2586 434.146 30.3754 434.275 29.4861 434.324C28.7426 434.366 27.9969 434.308 27.2686 434.153C26.5911 434.001 25.9404 433.747 25.3389 433.401C24.6261 433.041 24.0314 432.486 23.6252 431.8C23.333 431.246 23.2503 430.607 23.3922 429.997C23.5788 429.297 23.9314 428.652 24.4204 428.116C25.0214 427.421 25.7131 426.81 26.4768 426.3L24.1051 424.931L26.47 423.563L28.8692 424.931C29.5787 424.589 30.3053 424.281 31.0388 424.001C31.7722 423.72 32.5057 423.467 33.2323 423.242C33.9589 423.016 34.6581 422.807 35.3299 422.626L37.191 422.137L38.4728 425.759ZM30.5349 429.522C30.8021 429.662 31.1056 429.718 31.4054 429.682C31.8454 429.635 32.2795 429.543 32.701 429.409L30.9153 428.383C30.1956 428.882 30.0631 429.263 30.5178 429.525L30.5349 429.522ZM41.8454 431.4C41.5547 431.264 41.2296 431.22 40.9132 431.273C40.4482 431.329 39.9893 431.428 39.5422 431.567L41.2799 432.569C41.5954 432.404 41.8605 432.157 42.0476 431.855C42.0646 431.81 42.0719 431.762 42.0692 431.714C42.0664 431.666 42.0537 431.62 42.0317 431.577C42.0097 431.535 41.979 431.497 41.9416 431.467C41.9042 431.437 41.8609 431.415 41.8146 431.403L41.8454 431.4Z" fill="#47D8D6"/>
<path d="M38.4729 424.887C37.8217 425.01 37.1465 425.165 36.4473 425.352C35.8418 425.502 35.1939 425.691 34.5039 425.916C33.8184 426.142 33.1535 426.392 32.5228 426.665L34.6376 427.883C34.8467 427.798 35.0763 427.716 35.3231 427.633C35.5699 427.551 35.8338 427.462 36.0977 427.363C37.2973 426.941 38.4272 426.588 39.4874 426.303C40.4668 426.034 41.4662 425.843 42.4761 425.732C43.3651 425.631 44.2638 425.655 45.1461 425.803C46.0056 425.954 46.831 426.258 47.583 426.7C48.5084 427.23 49.091 427.801 49.3378 428.41C49.4594 428.702 49.522 429.014 49.522 429.33C49.522 429.646 49.4594 429.959 49.3378 430.25C49.0333 430.952 48.5823 431.58 48.0149 432.094C47.3262 432.745 46.5755 433.327 45.7733 433.832L48.6181 435.467L46.2531 436.835L43.3638 435.172C41.8484 435.928 40.2857 436.585 38.6854 437.139C37.1005 437.701 35.4804 438.158 33.8356 438.508L32.3001 434.765C33.0975 434.613 33.9201 434.428 34.7678 434.211C35.4807 434.033 36.2804 433.805 37.167 433.527C38.0165 433.257 38.8486 432.934 39.6587 432.563L37.6023 431.372C36.8688 431.653 36.108 431.919 35.3265 432.169C34.1521 432.559 33.0838 432.864 32.1218 433.082C31.2552 433.288 30.3721 433.416 29.4827 433.466C28.7392 433.509 27.9932 433.451 27.2652 433.295C26.5872 433.144 25.9364 432.89 25.3355 432.542C24.622 432.184 24.027 431.628 23.6218 430.941C23.3299 430.389 23.2471 429.75 23.3888 429.142C23.5745 428.44 23.9272 427.794 24.417 427.257C25.018 426.563 25.7097 425.952 26.4735 425.441L24.1017 424.073L26.4666 422.704L28.8658 424.073C29.5753 423.731 30.3019 423.426 31.0354 423.146C31.7688 422.865 32.5023 422.612 33.2289 422.383C33.9555 422.154 34.6547 421.948 35.3265 421.771C35.9983 421.593 36.6186 421.429 37.1876 421.278L38.4729 424.887ZM30.535 428.649C30.8015 428.792 31.1056 428.848 31.4055 428.81C31.8455 428.763 32.2795 428.671 32.7011 428.537L30.9154 427.51C30.1888 428.006 30.062 428.389 30.5178 428.649H30.535ZM41.8455 430.531C41.5556 430.392 41.23 430.347 40.9132 430.401C40.4485 430.459 39.9898 430.557 39.5423 430.695L41.2799 431.697C41.5954 431.532 41.8606 431.285 42.0477 430.982C42.0646 430.937 42.072 430.89 42.0692 430.842C42.0665 430.794 42.0537 430.747 42.0318 430.705C42.0098 430.662 41.979 430.625 41.9416 430.595C41.9042 430.565 41.861 430.543 41.8146 430.531H41.8455Z" fill="#47D8D6"/>
<path d="M481.611 503.909C463.885 493.695 435.04 493.753 417.176 504.043C406.736 510.056 402.369 518.238 404.08 526.033C402.616 532.707 405.584 539.623 412.991 545.189L371.399 569.133C369.685 568.332 367.139 568.397 365.528 569.328L328.052 590.922C327.285 591.363 326.86 591.924 326.771 592.499H326.75V596.713C326.784 597.332 327.203 597.944 328.022 598.423L332.542 601.03C334.256 602.015 337.039 602.008 338.763 601.03L376.239 579.435C377.068 578.957 377.497 578.337 377.534 577.725V576.289L422.091 550.607C422.17 550.562 422.245 550.512 422.317 550.456C440.085 557.896 465.194 556.955 481.33 547.655C491.77 541.642 496.14 533.463 494.427 525.664C496.175 517.913 491.894 509.834 481.611 503.909Z" fill="#E5EDF7"/>
<path d="M447.156 549.431C472.317 549.273 492.639 537.393 492.548 522.896C492.456 508.399 471.986 496.775 446.826 496.933C421.666 497.091 401.344 508.971 401.435 523.468C401.526 537.965 421.996 549.589 447.156 549.431Z" fill="#105244"/>
<path d="M447.156 542.805C472.316 542.647 492.638 530.767 492.547 516.27C492.456 501.773 471.985 490.149 446.825 490.307C421.665 490.465 401.343 502.345 401.434 516.842C401.525 531.339 421.996 542.963 447.156 542.805Z" fill="#105244"/>
<path d="M447.13 538.769C468.423 538.636 485.622 528.582 485.545 516.315C485.468 504.047 468.144 494.21 446.851 494.344C425.558 494.477 408.359 504.53 408.436 516.798C408.513 529.066 425.837 538.903 447.13 538.769Z" fill="white"/>
<path d="M420.559 539.637C420.56 539.664 420.56 539.692 420.559 539.719V539.637Z" fill="#105244"/>
<path d="M419.856 540.701L374.292 566.954C374.181 567.014 374.067 567.067 373.949 567.111L373.84 567.152C373.755 567.184 373.666 567.211 373.572 567.234C373.531 567.234 373.493 567.258 373.452 567.265C373.343 567.289 373.229 567.31 373.11 567.323L372.873 567.347H372.753C372.103 567.392 371.452 567.256 370.875 566.954L370.107 566.513L368.393 565.531C368.212 565.446 368.054 565.318 367.934 565.157C367.814 564.997 367.737 564.809 367.708 564.611V568.438C367.717 568.653 367.786 568.862 367.907 569.04C368.028 569.218 368.197 569.359 368.393 569.447L370.865 570.874C371.392 571.14 371.975 571.279 372.566 571.279C373.157 571.279 373.74 571.14 374.268 570.874L419.832 544.617C420.035 544.53 420.209 544.388 420.334 544.206C420.459 544.025 420.53 543.811 420.538 543.591V539.736C420.516 539.942 420.442 540.138 420.323 540.307C420.204 540.476 420.043 540.612 419.856 540.701Z" fill="#105244"/>
<path d="M368.417 565.534L370.131 566.516L370.899 566.957C371.476 567.259 372.126 567.395 372.777 567.35H372.897L373.133 567.326C373.249 567.314 373.363 567.295 373.476 567.268C373.517 567.268 373.555 567.248 373.596 567.238C373.69 567.215 373.779 567.187 373.863 567.155L373.973 567.114C374.091 567.07 374.205 567.017 374.316 566.957L419.88 540.704C420.074 540.617 420.242 540.48 420.366 540.308C420.491 540.136 420.568 539.934 420.589 539.722C420.591 539.695 420.591 539.668 420.589 539.64C420.555 539.447 420.475 539.265 420.356 539.109C420.237 538.953 420.082 538.828 419.904 538.744L417.433 537.318C416.906 537.052 416.323 536.914 415.733 536.914C415.142 536.914 414.56 537.052 414.033 537.318L368.469 563.571C367.972 563.855 367.735 564.234 367.763 564.597C367.786 564.795 367.858 564.984 367.972 565.148C368.086 565.311 368.239 565.444 368.417 565.534Z" fill="#105244"/>
<path d="M375.279 567.73C375.279 568.383 374.851 569.04 373.983 569.539L336.505 591.134C334.791 592.126 331.997 592.132 330.284 591.134L325.763 588.527C324.814 587.98 324.392 587.241 324.505 586.519H324.488V590.737C324.519 591.356 324.937 591.972 325.756 592.447L330.277 595.05C331.991 596.039 334.774 596.032 336.498 595.05L373.977 573.459C374.806 572.981 375.234 572.361 375.269 571.749V567.747L375.279 567.73Z" fill="#47D8D6"/>
<path d="M325.763 588.541L330.284 591.147C331.997 592.132 334.781 592.125 336.505 591.147L373.983 569.553C374.851 569.054 375.282 568.397 375.279 567.744C375.276 567.09 374.854 566.457 374.004 565.968L369.483 563.362C367.77 562.377 364.986 562.383 363.262 563.362L325.787 584.956C325.019 585.397 324.594 585.958 324.505 586.533C324.395 587.254 324.814 587.993 325.763 588.541Z" fill="#47D8D6"/>
<path d="M512.53 100.753C512.53 96.9359 509.826 92.2839 506.491 90.3649L352.768 1.78917C349.433 -0.133193 346.729 1.40264 346.729 5.20974V95.9952C346.729 99.8091 349.433 104.461 352.768 106.383L506.491 194.976C509.826 196.899 512.53 195.363 512.53 191.556V100.753Z" fill="#105244"/>
<path d="M503.934 118.249L444.527 84.0231V76.7715L503.934 111.001V118.249Z" fill="white"/>
<path d="M503.934 131.46L444.527 97.2301V89.9819L503.934 124.212V131.46Z" fill="white"/>
<path d="M503.934 144.817L444.527 110.591V103.339L503.934 137.569V144.817Z" fill="white"/>
<path d="M503.934 158.168L444.527 123.938V116.69L503.934 150.916V158.168Z" fill="white"/>
<path d="M474.229 154.682L444.527 137.566V130.317L474.229 147.431V154.682Z" fill="white"/>
<path d="M369.613 28.5826L355.242 20.3048V13.0532L369.613 21.3344V28.5826Z" fill="white"/>
<path d="M369.613 44.1256L355.242 35.8444V28.5962L369.613 36.8774V44.1256Z" fill="white"/>
<path d="M369.613 59.6688L355.242 51.3876V44.1394L369.613 52.4172V59.6688Z" fill="white"/>
<path d="M369.613 75.2118L355.242 66.9306V59.6824L369.613 67.9602V75.2118Z" fill="white"/>
<path d="M369.613 90.4232L355.242 82.142V74.8938L369.613 83.1716V90.4232Z" fill="white"/>
<path d="M369.613 106.257L355.242 97.9757V90.7275L369.613 99.0053V106.257Z" fill="white"/>
<path d="M417.817 119.46L426.354 114.607L417.844 109.708L417.817 119.46Z" fill="#47D8D6"/>
<path d="M389.595 103.907L416.96 119.672L416.994 108.234L427.002 113.991L427.132 69.0308L389.774 47.4812L389.595 103.907ZM393.897 55.8685L412.449 66.5577L412.425 72.5643L393.897 61.8818V55.8685ZM393.873 65.8257L422.913 82.5592V86.6878L393.852 69.951L393.873 65.8257ZM393.849 73.1082L422.896 89.845V93.9497L393.849 77.2128V73.1082ZM393.825 80.3871L422.879 97.124L422.862 101.229L393.818 84.4918L393.825 80.3871ZM393.808 87.6729L413.776 99.1934V103.298L393.804 91.7845L393.808 87.6729Z" fill="#47D8D6"/>
<path d="M637.275 271.973C637.275 268.426 634.762 264.106 631.664 262.317L542.417 210.896C539.333 209.107 536.807 210.554 536.807 214.08V316.174C536.807 319.718 539.319 324.041 542.417 325.827L631.664 377.252C634.749 379.037 637.275 377.611 637.275 374.064V271.973Z" fill="#105244"/>
<path d="M582.124 287.257L556.967 272.76V234.781L582.124 249.274V287.257Z" fill="#47D8D6"/>
<path d="M617.221 323.145L556.967 288.426V281.784L617.221 316.503V323.145Z" fill="white"/>
<path d="M617.221 338.815L556.967 304.096V297.45L617.221 332.169V338.815Z" fill="white"/>
<path d="M595.426 341.921L556.967 319.762V313.116L595.426 335.278V341.921Z" fill="white"/>
<path d="M617.221 276.143L587.094 258.784V252.141L617.221 269.501V276.143Z" fill="white"/>
<path d="M617.221 291.809L587.094 274.45V267.807L617.221 285.167V291.809Z" fill="white"/>
<path d="M617.221 307.479L587.094 290.12V283.473L617.221 300.833V307.479Z" fill="white"/>
<path d="M255.467 156.457C255.467 153.238 253.187 149.319 250.377 147.701L169.424 101.054C166.614 99.4363 164.335 100.712 164.335 103.945V196.557C164.335 199.775 166.614 203.695 169.424 205.317L250.377 251.96C253.187 253.581 255.467 252.302 255.467 249.069V156.457Z" fill="#105244"/>
<path d="M210.382 136.413C199.349 130.057 190.407 135.133 190.407 147.755C190.407 160.377 199.349 175.759 210.382 182.115C221.415 188.47 230.354 183.394 230.354 170.772L210.382 159.262V136.413Z" fill="#47D8D6"/>
<path d="M237.709 208.912L183.052 177.419V171.392L237.709 202.885V208.912Z" fill="white"/>
<path d="M237.709 220.966L183.052 189.473V183.446L237.709 214.939V220.966Z" fill="white"/>
<path d="M217.94 221.626L183.052 201.527V195.5L217.94 215.602V221.626Z" fill="white"/>
<path d="M194.181 720.601C214.136 719.31 230.029 713.901 229.679 708.521C229.33 703.141 212.87 699.826 192.915 701.117C172.96 702.409 157.067 707.817 157.416 713.197C157.766 718.578 174.226 721.892 194.181 720.601Z" fill="#E5EDF7"/>
<path d="M130.287 673.067C143.282 663.23 150.438 650.807 146.268 645.321C142.098 639.835 128.183 643.362 115.187 653.2C102.191 663.037 95.0362 675.46 99.2058 680.946C103.375 686.432 117.291 682.905 130.287 673.067Z" fill="#E5EDF7"/>
<path d="M221.902 684.912C221.902 684.912 198.211 684.283 192.618 685.107C192.618 685.107 179.104 696.436 156.791 698.858V712.54C156.791 712.54 166.093 720.999 182.216 715.016V713.159C182.216 713.159 200.611 714.185 210.118 710.891C210.118 710.891 228.517 707.813 230.169 695.625C230.169 695.632 229.343 686.349 221.902 684.912Z" fill="#105244"/>
<path d="M182.216 715.013V713.156C182.216 713.156 200.611 714.182 210.118 710.888C210.118 710.888 228.517 707.809 230.169 695.622C230.004 694.245 229.667 692.895 229.165 691.603C228.668 699.063 225.95 700.838 225.95 700.838C206.869 714.89 181.959 709.882 181.959 709.882C167.827 713.935 156.791 707.238 156.791 707.238V712.533C156.791 712.533 166.093 721.006 182.216 715.013Z" fill="#105244"/>
<path d="M199.12 684.73C198.568 684.73 198.04 684.758 197.536 684.775C198.429 686.609 198.735 688.672 198.414 690.686H199.723C200.075 688.683 199.866 686.622 199.12 684.73Z" fill="#105244"/>
<path d="M204.148 684.696H202.537C203.459 686.545 203.781 688.635 203.459 690.675H204.768C205.12 688.664 204.905 686.594 204.148 684.696Z" fill="#105244"/>
<path d="M208.669 684.741L207.051 684.721C207.96 686.559 208.278 688.633 207.962 690.659H209.272C209.617 688.668 209.409 686.621 208.669 684.741Z" fill="#105244"/>
<path d="M145.453 646.037C144.342 642.884 140.84 637.271 130.208 639.538C130.208 639.538 128.926 652.335 118.702 654.397C108.478 656.46 106.411 656.87 106.411 656.87L100.211 663.267L94.8368 667.874C94.8368 667.874 95.4572 676.881 97.9386 678.533C100.42 680.185 109.935 682.658 113.235 678.533C116.536 674.408 119.435 670.625 119.435 670.625V668.425C119.435 668.425 126.76 665.312 131.63 662.443C134.438 660.783 137.078 658.856 139.513 656.689C145.467 650.45 145.453 646.037 145.453 646.037Z" fill="#105244"/>
<path d="M97.9387 678.54C100.42 680.188 109.935 682.665 113.235 678.54C116.536 674.415 119.435 670.631 119.435 670.631V668.432C119.435 668.432 126.76 665.319 131.63 662.449C134.438 660.79 137.078 658.863 139.513 656.696C145.45 650.45 145.436 646.037 145.436 646.037C145.229 645.447 144.973 644.875 144.672 644.327C142.577 652.304 138.05 655.742 138.05 655.742C129.57 663.031 117.321 666.643 117.321 666.643V668.442C117.321 668.442 113.671 673.607 111.196 676.015C108.721 678.423 96.3312 676.015 96.3312 676.015C96.7631 677.165 97.2875 678.105 97.9387 678.54Z" fill="#105244"/>
<path d="M128.357 644.512C130.52 645.254 132.358 646.724 133.553 648.671L134.523 647.802C134.523 647.802 132.809 644.669 129.402 643.355L128.357 644.512Z" fill="#105244"/>
<path d="M125.457 647.364C127.62 648.108 129.457 649.578 130.653 651.524L131.623 650.655C131.623 650.655 129.91 647.522 126.503 646.208L125.457 647.364Z" fill="#105244"/>
<path d="M122.589 650.21C124.751 650.955 126.587 652.425 127.785 654.37L128.751 653.501C128.751 653.501 127.037 650.368 123.634 649.054L122.589 650.21Z" fill="#105244"/>
<path d="M259.686 357.033L222.313 442.691L175.748 422.455L174.288 425.804L224.925 447.808L263.764 358.805L259.686 357.033Z" fill="#105244"/>
<path d="M210.706 331.922L171.873 420.926L222.51 442.931L261.343 353.927L210.706 331.922Z" fill="white"/>
<path d="M247.158 367.893L248.272 365.338L209.985 348.604L208.871 351.16L247.158 367.893Z" fill="#E5EDF7"/>
<path d="M244.122 374.854L245.236 372.299L206.948 355.562L205.834 358.117L244.122 374.854Z" fill="#E5EDF7"/>
<path d="M241.195 381.558L242.312 379.003L204.024 362.27L202.907 364.825L241.195 381.558Z" fill="#E5EDF7"/>
<path d="M238.24 388.335L239.354 385.779L201.066 369.046L199.953 371.598L238.24 388.335Z" fill="#E5EDF7"/>
<path d="M235.101 395.528L236.215 392.973L197.927 376.24L196.813 378.795L235.101 395.528Z" fill="#E5EDF7"/>
<path d="M232.081 402.451L233.195 399.896L194.907 383.163L193.793 385.718L232.081 402.451Z" fill="#E5EDF7"/>
<path d="M228.928 409.676L230.042 407.12L191.754 390.387L190.64 392.942L228.928 409.676Z" fill="#E5EDF7"/>
<path d="M225.747 416.961L226.861 414.406L188.574 397.673L187.46 400.228L225.747 416.961Z" fill="#E5EDF7"/>
<path d="M222.707 423.929L223.821 421.374L185.533 404.64L184.419 407.196L222.707 423.929Z" fill="#E5EDF7"/>
<path d="M247.861 404.24C248.094 400.994 244.776 401.61 244.776 401.61C245.171 404.049 238.329 406.399 238.329 406.399C235.029 408.858 230.607 405.143 230.607 405.143C232.352 404.586 233.692 403.057 234.642 401.613C235.543 400.454 236.252 398.74 236.609 397.775C236.715 397.538 236.801 397.292 236.866 397.04C237.181 395.788 236.629 395.165 236.054 394.851C235.761 394.808 235.462 394.842 235.187 394.948C234.911 395.055 234.668 395.231 234.48 395.46L234.319 395.661C231.649 398.884 224.579 402.027 224.579 402.027C219.389 403.077 214.639 409.826 213.984 411.198C213.33 412.569 193.8 411.468 193.8 411.468L194.304 434.321C199.425 434.321 210.68 428.526 214.574 426.426C214.574 426.426 220.233 424.069 225.058 425.314C232.314 427.589 238.905 425.369 241.02 425C243.039 424.658 243.258 422.369 243.279 421.47L243.457 421.364C248.787 418.015 244.595 414.078 244.595 414.078C249.763 411.341 245.431 408.328 245.431 408.328C247.237 407.028 247.861 404.24 247.861 404.24Z" fill="#FFBDA7"/>
<path d="M226.638 423.796C220.754 421.282 213.33 421.093 205.44 426.382C200.861 429.46 196.799 429.83 194.194 429.604L194.297 434.317C199.418 434.317 210.673 428.523 214.57 426.423C214.57 426.423 220.226 424.066 225.052 425.311C232.307 427.586 238.898 425.366 241.013 424.996C241.411 424.929 241.785 424.762 242.1 424.511C234.624 425.571 232.537 426.317 226.638 423.796Z" fill="#FFBDA7"/>
<path d="M87.485 418.107C87.485 418.107 87.4439 425.085 88.7669 427.562C88.7669 427.562 101.565 460.156 103.217 462.452C103.217 462.452 109.729 436.9 108.337 421.658C108.324 421.689 102.566 424.179 87.485 418.107Z" fill="#FFBDA7"/>
<path d="M88.7532 427.575C88.7532 427.575 101.551 460.17 103.203 462.465C103.203 462.465 104.231 458.384 105.4 452.511C102.11 444.969 91.6391 433.496 93.1643 429.074C94.1925 426.074 94.028 422.646 93.7058 420.307C91.8344 419.742 89.7608 419.02 87.4713 418.104C87.485 418.107 87.4302 425.099 88.7532 427.575Z" fill="#FFBDA7"/>
<path d="M94.4427 319.725C94.4427 319.725 79.2592 333 85.384 363.378C85.384 363.378 89.1541 397.207 88.9245 410.821C88.9245 410.821 102.634 414.95 109.931 410.821C109.931 410.821 105.787 367.089 97.0338 358.014C97.0338 358.011 91.1969 324.897 94.4427 319.725Z" fill="#47D8D6"/>
<path d="M109.729 409.453C108.358 410.784 105.592 412.761 101.908 412.084C93.5242 410.544 88.7806 404.141 88.7224 402.164L87.9992 402.869C86.9626 404.352 86.3349 406.081 86.1792 407.883L85.8022 412.645C85.8022 412.645 85.5897 415.559 86.4877 417.434C88.479 420.946 94.3296 427.404 109.616 423.96L110.027 418.111C110.164 416.342 109.897 411.916 109.729 409.453Z" fill="white"/>
<path d="M198.681 529.423C198.681 509.618 190.966 465.612 190.966 465.612C190.966 465.612 184.32 470.264 171.347 471.605C159.433 473.804 144.127 473.999 131.435 465.612C131.435 465.612 109.074 451.396 103.875 447.459C103.875 447.459 99.4673 477.163 103.875 495.316C108.283 513.469 101.058 548.677 101.918 556.928C102.778 565.178 91.1969 592.132 92.3005 612.488C92.3005 612.488 93.956 665.295 95.608 668.049C97.26 670.802 104.979 673.549 112.145 665.312C119.312 657.075 130.27 648.811 130.852 642.76C131.435 636.709 129.783 612.505 133.09 589.95C136.398 567.395 146.697 542.113 146.718 542.062C156.894 568.4 152.932 583.345 152.932 583.345C152.932 583.345 143.013 620.202 145.217 629.003C147.42 637.804 154.035 694.466 156.791 698.865C156.791 698.865 178.678 698.865 192.618 685.114C192.618 685.114 186.555 638.355 186.555 624.604C186.555 610.853 198.681 549.225 198.681 529.423Z" fill="#105244"/>
<path d="M131.435 465.612C144.116 474.01 159.434 473.805 171.347 471.605C178.098 470.375 184.682 468.364 190.966 465.612L189.156 444.747L189.036 443.348L189.088 443.3L187.374 407.866C186.133 405.39 189.43 375.771 189.43 375.771C189.016 356.465 174.134 339.379 174.134 339.379C169.586 334.84 154.704 313.797 154.704 313.797C149.33 314.211 117.499 304.308 117.499 304.308C116.235 304.047 114.938 303.993 113.657 304.148C105.164 305.304 96.8933 311.221 92.8832 314.488C92.5782 314.738 90.484 316.54 88.6984 320.467C79.9653 342.927 90.7171 368.215 101.788 388.879C114.603 412.823 103.844 447.463 103.844 447.466C109.078 451.396 131.435 465.612 131.435 465.612Z" fill="#47D8D6"/>
<path d="M189.444 375.757C189.033 356.451 174.148 339.366 174.148 339.366C169.603 334.827 154.721 313.783 154.721 313.783C154.721 313.783 154.807 316.735 155.321 320.847C156.76 329.699 168.307 345.345 171.906 350.052L172.074 350.253C172.376 350.625 172.674 351.014 172.968 351.42C180.289 361.384 185.475 379.277 184.108 388.468C182.342 400.348 185.307 408.194 185.307 408.194L187.398 408.297L187.113 406.074C186.836 399.13 189.444 375.757 189.444 375.757Z" fill="#47D8D6"/>
<path d="M144.696 537.29L138.238 521.97C138.139 525.325 137.896 528.582 137.553 531.694H137.529C136.715 538.058 135.571 544.375 134.101 550.62C133.06 554.851 131.77 559.016 130.239 563.095C130.043 563.54 129.841 563.981 129.629 564.419C128.888 566.471 128.038 569.027 127.229 571.886C127.229 571.965 125.468 582.086 125.704 588.066C126.208 602.322 127.579 629.242 130.972 639.969C130.972 638.687 130.945 634.77 130.972 633.597C131.006 632.184 131.545 620.123 131.545 620.123C131.641 610.689 132.079 599.408 133.676 588.51C136.511 569.18 144.497 547.805 146.721 542.096C146.305 540.397 145.622 538.775 144.696 537.29Z" fill="#105244"/>
<path d="M190.966 465.612L188.807 437.43C188.807 437.43 162.803 436.808 148.229 426.262C133.656 415.716 144.253 382.656 144.253 382.656C144.253 382.656 126.41 419.729 145.844 432.994C145.844 432.994 148.353 435.781 154.724 437.906C155.615 438.2 156.582 438.484 157.631 438.747C161.572 440.061 168.557 443.036 172.447 448.509C172.495 448.581 172.54 448.65 172.581 448.721L173.023 449.529C176.108 455.258 179.175 462.818 178.894 469.857L190.966 465.612Z" fill="#47D8D6"/>
<path d="M171.333 259.619C168.475 257.97 166.155 259.276 166.155 262.557C166.155 265.837 168.475 269.815 171.333 271.45C174.192 273.085 176.512 271.792 176.512 268.509C176.512 265.225 174.199 261.264 171.333 259.619ZM171.333 269.73C169.311 268.563 167.673 265.745 167.673 263.432C167.673 261.12 169.311 260.186 171.333 261.353C173.356 262.519 174.994 265.338 174.994 267.65C174.994 269.962 173.356 270.893 171.333 269.73Z" fill="#105244"/>
<path d="M154.724 314.197C154.724 314.197 134.626 315.452 117.023 305.919C117.023 305.919 119.998 293.154 119.792 290.681L140.254 275.001L151.951 259.53L160.52 244.479L165.486 248.447C165.486 248.447 171.268 253.968 169.819 259.95C169.819 259.95 167.015 265.933 167.899 268.201C167.899 268.201 170.785 274.734 167.82 279.831C164.856 284.927 162.378 292.966 162.378 292.966L153.905 298.329C153.905 298.329 152.459 299.978 152.877 303.279C153.295 306.58 154.724 314.197 154.724 314.197Z" fill="#FFBDA7"/>
<path d="M175.546 265.543L161.12 267.636L160.571 269.124L174.949 267.034L175.546 265.543Z" fill="#105244"/>
<path d="M119.034 294.943C119.034 294.943 111.594 276.79 107.724 266.894C103.854 256.998 108.276 231.689 137.2 227.013C137.2 227.013 164.434 225.645 166.114 240.764C166.114 240.764 166.689 247.092 163.934 252.866C163.934 252.866 166.412 256.991 163.934 262.218C161.456 267.445 159.523 277.898 162.278 279.547C162.278 279.547 166.138 282.847 167.79 279.82C167.79 279.82 168.893 296.581 162.83 300.727C162.83 300.727 158.422 303.463 153.874 298.332C153.874 298.332 159.66 295.651 159.869 287.811C160.078 279.971 157.422 270.896 151.927 277.498C146.433 284.099 142.917 296.27 142.917 296.27C142.917 296.27 131.699 303.538 119.034 294.943Z" fill="#105244"/>
<path d="M155.77 282.092C154.549 279.906 152.74 280.008 151.729 282.321C151.588 282.654 151.474 282.997 151.386 283.347C151.288 283.732 151.215 284.123 151.167 284.517C150.608 287.007 148.791 292.952 143.547 297.744C143.547 297.744 145.971 305.745 142.351 311.382C142.351 311.382 151.948 313.872 154.793 313.776C154.793 313.776 154.721 313.657 154.597 313.434L152.925 303.627C152.397 300.207 153.912 298.305 153.912 298.305C153.13 296.034 154.097 292.73 154.1 292.726C154.354 292.401 154.629 292.092 154.923 291.803C155.17 291.65 155.388 291.456 155.567 291.228C155.808 290.921 156.006 290.584 156.157 290.226C157.158 287.92 156.99 284.274 155.77 282.092Z" fill="#FFBDA7"/>
<path d="M141.878 228.95C137.169 228.881 131.486 230.756 131.411 230.783C123.332 234.087 109.818 241.619 111.131 254.672C112.985 273.184 115.398 291.17 124.131 291.17C132.864 291.17 128.244 262.095 138.242 251.235C147.657 240.997 164.883 230.544 141.878 228.95Z" fill="#105244"/>
<path d="M199.013 408.872L185.304 408.208C185.963 410.207 186.471 412.253 186.822 414.328C186.822 414.328 188.114 420.539 182.785 428.208C180.383 430.942 177.745 433.46 174.901 435.734C178.901 436.828 189.074 437.003 189.074 437.003C194.695 435.888 196.614 431.492 196.614 431.492C200.1 428.263 201.234 420.119 201.598 414.571C201.611 414.404 201.622 414.24 201.629 414.078C201.766 410.22 199.013 408.872 199.013 408.872Z" fill="white"/>
<path d="M158.683 319.253C156.376 316.058 154.779 313.8 154.779 313.8C149.405 314.214 117.574 304.311 117.574 304.311C116.311 304.051 115.013 303.996 113.732 304.151C110.007 304.657 106.322 306.08 103.025 307.797C103.028 307.783 118.208 322.765 158.683 319.253Z" fill="white"/>
<path d="M664.321 577.307L531.097 654.072C530.589 654.363 530.014 654.516 529.429 654.516C528.844 654.516 528.269 654.363 527.762 654.072L489.522 632.03C489.015 631.738 488.594 631.318 488.302 630.813C488.009 630.307 487.855 629.734 487.855 629.15C487.855 628.566 488.009 627.992 488.302 627.487C488.594 626.981 489.015 626.561 489.522 626.27L622.746 549.505C623.253 549.213 623.828 549.059 624.413 549.059C624.999 549.059 625.574 549.213 626.081 549.505L664.321 571.547C664.827 571.839 665.248 572.259 665.541 572.764C665.834 573.27 665.988 573.843 665.988 574.427C665.988 575.011 665.834 575.585 665.541 576.09C665.248 576.596 664.827 577.016 664.321 577.307Z" fill="#E5EDF7"/>
<path d="M619.387 596.093L587.375 577.527L587.042 424.391L619.051 442.958L619.387 596.093Z" fill="#47D8D6"/>
<path d="M653.558 423.071L619.051 442.958L587.042 424.391L621.543 404.514L653.558 423.071Z" fill="#47D8D6"/>
<path d="M653.894 576.206L619.387 596.093L619.051 442.958L653.558 423.071L653.894 576.206Z" fill="#47D8D6"/>
<path d="M574.364 622.168L542.356 603.602L542.095 477.43L574.104 495.987L574.364 622.168Z" fill="#105244"/>
<path d="M608.639 476.089L574.104 495.987L542.095 477.43L576.623 457.533L608.639 476.089Z" fill="#105244"/>
<path d="M608.899 602.271L574.364 622.168L574.104 495.987L608.639 476.089L608.899 602.271Z" fill="#105244"/>
<path d="M529.565 647.922L497.556 629.355L497.408 544.388L529.417 562.955L529.565 647.922Z" fill="#E5EDF7"/>
<path d="M563.928 543.071L529.417 562.955L497.408 544.388L531.919 524.501L563.928 543.071Z" fill="white"/>
<path d="M564.068 628.035L529.565 647.922L529.417 562.955L563.928 543.071L564.068 628.035Z" fill="#E5EDF7"/>
</g>
<defs>
<clipPath id="clip0_50_10236">
<rect width="666" height="720" fill="white" transform="translate(0 0.961426)"/>
</clipPath>
</defs>
</svg>
