<svg width="40" height="40" viewBox="0 0 40 40" fill="none" xmlns="http://www.w3.org/2000/svg">
<rect x="0.5" y="0.5" width="39" height="39" rx="3.5" stroke="white"/>
<path d="M16.3672 11.5904C14.2859 11.6936 10.9672 11.9889 10.3203 12.1295C9.43906 12.3217 8.6 13.1607 8.37969 14.0701C8.21563 14.7498 8 18.1014 8 19.9998C8 21.8982 8.21563 25.2498 8.37969 25.9295C8.6 26.8389 9.43906 27.6732 10.3203 27.8701C10.6531 27.9404 12.5 28.1373 13.8828 28.2498C17.8109 28.5639 22.1328 28.5639 26.1313 28.2498C27.5 28.142 29.3375 27.9451 29.6797 27.8701C30.5656 27.6732 31.4 26.8389 31.6203 25.9295C31.7844 25.2498 32 21.8982 32 19.9998C32 18.1014 31.7844 14.7498 31.6203 14.0701C31.4 13.1607 30.5609 12.3264 29.6797 12.1295C28.9953 11.9795 25.775 11.6982 23.4922 11.5857C21.7344 11.5014 18.1203 11.5014 16.3672 11.5904ZM21.0266 18.0076C22.6531 19.0904 23.9797 19.9857 23.9797 19.9998C23.9797 20.0232 18.1063 23.9467 18.0266 23.9748C18.0031 23.9842 17.9844 22.3436 17.9844 19.9998C17.9844 17.6561 18.0031 16.0154 18.0266 16.0248C18.05 16.0295 19.4 16.9248 21.0266 18.0076Z" fill="white"/>
</svg>
